<svg width="169" height="181" viewBox="0 0 169 181" fill="none" xmlns="http://www.w3.org/2000/svg">
<path d="M149.872 62.4132L107.968 55.8908L89.2365 15.2189C88.7249 14.1053 87.8832 13.2038 86.8434 12.6559C84.2358 11.2772 81.0671 12.4261 79.7632 15.2189L61.0313 55.8908L19.1279 62.4132C17.9726 62.59 16.9164 63.1733 16.1077 64.057C15.13 65.1333 14.5913 66.5812 14.6098 68.0826C14.6284 69.584 15.2028 71.0161 16.2067 72.0642L46.5244 103.721L39.3617 148.424C39.1937 149.463 39.3012 150.533 39.6718 151.511C40.0425 152.488 40.6615 153.335 41.4588 153.956C42.2561 154.576 43.1996 154.944 44.1825 155.019C45.1653 155.094 46.1481 154.873 47.0195 154.38L84.4999 133.275L121.98 154.38C123.003 154.964 124.192 155.158 125.331 154.946C128.202 154.416 130.133 151.499 129.638 148.424L122.475 103.721L152.793 72.0642C153.618 71.1981 154.163 70.0668 154.328 68.8295C154.774 65.7362 152.76 62.8728 149.872 62.4132ZM109.718 99.2672L115.676 136.439L84.4999 118.905L53.324 136.457L59.2819 99.2849L34.0639 72.948L68.9202 67.5215L84.4999 33.7077L100.08 67.5215L134.936 72.948L109.718 99.2672Z" fill="#FFD60A"/>
<path d="M109.718 99.2672L115.676 136.439L84.4999 118.905L53.324 136.457L59.2819 99.2849L34.0639 72.948L68.9202 67.5215L84.4999 33.7077L100.08 67.5215L134.936 72.948L109.718 99.2672Z" fill="#FFD60A"/>
</svg>
