<svg width="173" height="162" viewBox="0 0 173 162" fill="none" xmlns="http://www.w3.org/2000/svg">
<path d="M153.083 55.8615L110.435 50.0238L91.3708 13.6212C90.8501 12.6246 89.9935 11.8177 88.9353 11.3273C86.2813 10.0933 83.0563 11.1216 81.7294 13.6212L62.6649 50.0238L20.0177 55.8615C18.8419 56.0197 17.7669 56.5418 16.9438 57.3328C15.9488 58.296 15.4005 59.5919 15.4194 60.9357C15.4383 62.2795 16.0229 63.5613 17.0446 64.4994L47.9005 92.8335L40.6106 132.843C40.4397 133.774 40.549 134.731 40.9263 135.606C41.3035 136.481 41.9336 137.239 42.745 137.794C43.5564 138.35 44.5167 138.679 45.517 138.747C46.5173 138.814 47.5176 138.616 48.4044 138.175L86.5501 119.285L124.696 138.175C125.737 138.697 126.947 138.871 128.106 138.681C131.028 138.206 132.993 135.596 132.49 132.843L125.2 92.8335L156.056 64.4994C156.895 63.7242 157.45 62.7117 157.618 61.6042C158.071 58.8357 156.022 56.2728 153.083 55.8615ZM112.216 88.8468L118.279 122.117L86.5501 106.423L54.8208 122.133L60.8845 88.8626L35.2188 65.2904L70.6938 60.4336L86.5501 30.1693L102.406 60.4336L137.881 65.2904L112.216 88.8468Z" fill="#FFD60A"/>
<path d="M112.216 88.8468L118.279 122.117L86.5501 106.423L54.8208 122.133L60.8845 88.8626L35.2188 65.2904L70.6938 60.4336L86.5501 30.1693L102.406 60.4336L137.881 65.2904L112.216 88.8468Z" fill="#FFD60A"/>
</svg>
