<svg width="159" height="191" viewBox="0 0 159 191" fill="none" xmlns="http://www.w3.org/2000/svg">
<path d="M140.553 65.8614L101.377 58.9787L83.8645 16.0597C83.3861 14.8846 82.5992 13.9333 81.6271 13.3551C79.1893 11.9002 76.2268 13.1126 75.0078 16.0597L57.4951 58.9787L18.3191 65.8614C17.2391 66.048 16.2516 66.6635 15.4955 67.5961C14.5815 68.7318 14.0778 70.2597 14.0952 71.844C14.1125 73.4284 14.6495 74.9396 15.5881 76.0456L43.9324 109.452L37.2359 156.624C37.0789 157.721 37.1793 158.85 37.5259 159.881C37.8724 160.913 38.4512 161.807 39.1966 162.461C39.9419 163.116 40.8241 163.505 41.7429 163.584C42.6618 163.663 43.5807 163.43 44.3953 162.91L79.4361 140.639L114.477 162.91C115.434 163.525 116.545 163.73 117.609 163.506C120.294 162.947 122.099 159.869 121.636 156.624L114.94 109.452L143.284 76.0456C144.056 75.1316 144.565 73.9379 144.719 72.6322C145.136 69.3681 143.253 66.3464 140.553 65.8614ZM103.013 104.752L108.583 143.977L79.4361 125.474L50.2894 143.996L55.8596 104.77L32.283 76.9782L64.8705 71.252L79.4361 35.57L94.0018 71.252L126.589 76.9782L103.013 104.752Z" fill="#FFD60A"/>
<path d="M103.013 104.752L108.583 143.977L79.4361 125.474L50.2894 143.996L55.8596 104.77L32.283 76.9782L64.8705 71.252L79.4361 35.57L94.0018 71.252L126.589 76.9782L103.013 104.752Z" fill="#FFD60A"/>
</svg>
