<svg width="163" height="173" viewBox="0 0 163 173" fill="none" xmlns="http://www.w3.org/2000/svg">
<path d="M144.063 59.6546L103.895 53.4205L85.9394 14.5462C85.4489 13.4819 84.6421 12.6203 83.6454 12.0965C81.1458 10.7787 78.1083 11.8769 76.8585 14.5462L58.9024 53.4205L18.7347 59.6546C17.6273 59.8236 16.6148 60.3811 15.8396 61.2258C14.9024 62.2545 14.386 63.6384 14.4038 65.0734C14.4216 66.5085 14.9721 67.8773 15.9345 68.879L44.9964 99.1371L38.1304 141.863C37.9694 142.857 38.0724 143.88 38.4277 144.814C38.783 145.749 39.3764 146.558 40.1406 147.151C40.9049 147.744 41.8093 148.096 42.7515 148.168C43.6936 148.239 44.6357 148.028 45.471 147.557L81.3989 127.385L117.327 147.557C118.308 148.114 119.447 148.3 120.538 148.097C123.291 147.591 125.142 144.803 124.667 141.863L117.801 99.1371L146.863 68.879C147.654 68.0512 148.176 66.9699 148.335 65.7873C148.762 62.8308 146.832 60.0939 144.063 59.6546ZM105.572 94.8797L111.284 130.409L81.3989 113.65L51.5144 130.426L57.2255 94.8966L33.0521 69.7238L66.4646 64.5371L81.3989 32.2179L96.3333 64.5371L129.746 69.7238L105.572 94.8797Z" fill="#FFD60A"/>
<path d="M105.572 94.8797L111.284 130.409L81.3989 113.65L51.5144 130.426L57.2255 94.8966L33.0521 69.7238L66.4646 64.5371L81.3989 32.2179L96.3333 64.5371L129.746 69.7238L105.572 94.8797Z" fill="#FFD60A"/>
</svg>
