<svg width="168" height="166" viewBox="0 0 168 166" fill="none" xmlns="http://www.w3.org/2000/svg">
<path d="M148.986 57.2408L107.33 51.259L88.709 13.9576C88.2004 12.9363 87.3637 12.1096 86.3301 11.607C83.7379 10.3426 80.5879 11.3963 79.2918 13.9576L60.6707 51.259L19.0152 57.2408C17.8668 57.4029 16.8168 57.9379 16.0129 58.7484C15.041 59.7355 14.5054 61.0634 14.5239 62.4404C14.5424 63.8173 15.1133 65.1308 16.1113 66.092L46.2496 95.1258L39.1293 136.123C38.9623 137.077 39.0691 138.058 39.4376 138.955C39.8061 139.851 40.4215 140.628 41.214 141.197C42.0065 141.766 42.9445 142.104 43.9215 142.172C44.8986 142.241 45.8756 142.038 46.7418 141.586L84.0004 122.23L121.259 141.586C122.276 142.121 123.457 142.3 124.589 142.105C127.444 141.619 129.364 138.944 128.871 136.123L121.751 95.1258L151.889 66.092C152.71 65.2977 153.251 64.2602 153.415 63.1254C153.858 60.2885 151.857 57.6623 148.986 57.2408ZM109.069 91.0406L114.992 125.132L84.0004 109.051L53.009 125.148L58.9316 91.0568L33.8629 66.9025L68.5129 61.9258L84.0004 30.9143L99.4879 61.9258L134.138 66.9025L109.069 91.0406Z" fill="#FFD60A"/>
<path d="M109.069 91.0406L114.992 125.132L84.0004 109.051L53.009 125.148L58.9316 91.0568L33.8629 66.9025L68.5129 61.9258L84.0004 30.9143L99.4879 61.9258L134.138 66.9025L109.069 91.0406Z" fill="#FFD60A"/>
</svg>
