<svg width="169" height="181" viewBox="0 0 169 181" fill="none" xmlns="http://www.w3.org/2000/svg">
<path d="M135.262 69.3407L93.3591 62.8183L74.6271 22.1464C74.1155 21.0328 73.2738 20.1313 72.234 19.5834C69.6264 18.2047 66.4577 19.3536 65.1539 22.1464L46.4219 62.8183L4.51851 69.3407C3.36324 69.5174 2.30699 70.1007 1.4983 70.9845C0.520634 72.0607 -0.0181033 73.5086 0.000464518 75.0101C0.0190323 76.5115 0.593386 77.9436 1.59732 78.9917L31.915 110.649L24.7523 155.351C24.5843 156.391 24.6918 157.46 25.0624 158.438C25.4331 159.416 26.0522 160.263 26.8494 160.883C27.6467 161.503 28.5902 161.872 29.5731 161.947C30.5559 162.022 31.5388 161.8 32.4101 161.308L69.8905 140.203L107.371 161.308C108.394 161.891 109.582 162.085 110.721 161.873C113.593 161.343 115.524 158.427 115.029 155.351L107.866 110.649L138.184 78.9917C139.009 78.1255 139.553 76.9943 139.719 75.757C140.164 72.6637 138.151 69.8003 135.262 69.3407ZM95.1085 106.195L101.066 143.367L69.8905 125.832L38.7146 143.385L44.6725 106.212L19.4545 79.8754L54.3108 74.449L69.8905 40.6352L85.4702 74.449L120.326 79.8754L95.1085 106.195Z" fill="#FFD60A"/>
<path d="M95.1085 106.195L101.066 143.367L69.8905 125.832L38.7146 143.385L44.6725 106.212L19.4545 79.8754L54.3108 74.449L69.8905 40.6352L85.4702 74.449L120.326 79.8754L95.1085 106.195Z" fill="#FFD60A"/>
</svg>
