<svg width="162" height="168" viewBox="0 0 162 168" fill="none" xmlns="http://www.w3.org/2000/svg">
<path d="M143.664 57.9304L103.496 51.8765L85.54 14.1257C85.0495 13.0921 84.2427 12.2554 83.246 11.7468C80.7464 10.4671 77.7089 11.5335 76.4591 14.1257L58.503 51.8765L18.3353 57.9304C17.2278 58.0944 16.2153 58.6358 15.4401 59.4562C14.503 60.4551 13.9866 61.799 14.0044 63.1926C14.0222 64.5861 14.5727 65.9154 15.5351 66.8882L44.597 96.2718L37.731 137.763C37.57 138.728 37.6729 139.721 38.0283 140.629C38.3836 141.536 38.977 142.322 39.7412 142.898C40.5055 143.474 41.4099 143.816 42.3521 143.885C43.2942 143.955 44.2363 143.749 45.0716 143.292L80.9995 123.703L116.927 143.292C117.908 143.833 119.047 144.014 120.139 143.817C122.892 143.325 124.743 140.618 124.268 137.763L117.402 96.2718L146.464 66.8882C147.255 66.0843 147.777 65.0343 147.935 63.8858C148.362 61.0147 146.432 58.3569 143.664 57.9304ZM105.173 92.1374L110.884 126.64L80.9995 110.365L51.115 126.656L56.8261 92.1538L32.6526 67.7085L66.0651 62.6718L80.9995 31.2866L95.9339 62.6718L129.346 67.7085L105.173 92.1374Z" fill="#FFD60A"/>
<path d="M105.173 92.1374L110.884 126.64L80.9995 110.365L51.115 126.656L56.8261 92.1538L32.6526 67.7085L66.0651 62.6718L80.9995 31.2866L95.9339 62.6718L129.346 67.7085L105.173 92.1374Z" fill="#FFD60A"/>
</svg>
