<svg width="162" height="168" viewBox="0 0 162 168" fill="none" xmlns="http://www.w3.org/2000/svg">
<path d="M143.664 57.9304L103.497 51.8765L85.5404 14.1257C85.05 13.0921 84.2432 12.2554 83.2465 11.7468C80.7469 10.4671 77.7094 11.5335 76.4596 14.1257L58.5035 51.8765L18.3357 57.9304C17.2283 58.0944 16.2158 58.6358 15.4406 59.4562C14.5035 60.4551 13.987 61.799 14.0048 63.1926C14.0226 64.5861 14.5732 65.9154 15.5356 66.8882L44.5975 96.2718L37.7315 137.763C37.5704 138.728 37.6734 139.721 38.0287 140.629C38.3841 141.536 38.9775 142.322 39.7417 142.898C40.506 143.474 41.4104 143.816 42.3526 143.885C43.2947 143.955 44.2368 143.749 45.0721 143.292L81 123.703L116.928 143.292C117.909 143.833 119.048 144.014 120.139 143.817C122.892 143.325 124.743 140.618 124.269 137.763L117.403 96.2718L146.464 66.8882C147.255 66.0843 147.778 65.0343 147.936 63.8858C148.363 61.0147 146.433 58.3569 143.664 57.9304ZM105.173 92.1374L110.885 126.64L81 110.365L51.1154 126.656L56.8266 92.1538L32.6531 67.7085L66.0656 62.6718L81 31.2866L95.9344 62.6718L129.347 67.7085L105.173 92.1374Z" fill="#FFD60A"/>
<path d="M105.173 92.1374L110.885 126.64L81 110.365L51.1154 126.656L56.8266 92.1538L32.6531 67.7085L66.0656 62.6718L81 31.2866L95.9344 62.6718L129.347 67.7085L105.173 92.1374Z" fill="#FFD60A"/>
</svg>
