<svg width="166" height="165" viewBox="0 0 166 165" fill="none" xmlns="http://www.w3.org/2000/svg">
<path d="M147.212 56.8959L106.052 50.9501L87.653 13.8735C87.1504 12.8583 86.3237 12.0366 85.3024 11.537C82.741 10.2802 79.6285 11.3276 78.3479 13.8735L59.9485 50.9501L18.7889 56.8959C17.6541 57.0571 16.6166 57.5888 15.8223 58.3945C14.862 59.3755 14.3328 60.6954 14.351 62.0641C14.3693 63.4328 14.9334 64.7383 15.9196 65.6938L45.699 94.5527L38.6635 135.303C38.4985 136.251 38.604 137.226 38.9681 138.117C39.3322 139.009 39.9403 139.781 40.7234 140.346C41.5065 140.912 42.4333 141.247 43.3987 141.316C44.3641 141.384 45.3295 141.182 46.1854 140.733L83.0004 121.494L119.815 140.733C120.821 141.265 121.988 141.442 123.106 141.249C125.927 140.766 127.824 138.107 127.337 135.303L120.302 94.5527L150.081 65.6938C150.892 64.9042 151.427 63.873 151.589 62.745C152.027 59.9252 150.049 57.3149 147.212 56.8959ZM107.771 90.4921L113.623 124.378L83.0004 108.394L52.378 124.394L58.2301 90.5082L33.4598 66.4994L67.6973 61.5527L83.0004 30.728L98.3035 61.5527L132.541 66.4994L107.771 90.4921Z" fill="#FFD60A"/>
<path d="M107.771 90.4921L113.623 124.378L83.0004 108.394L52.378 124.394L58.2301 90.5082L33.4598 66.4994L67.6973 61.5527L83.0004 30.728L98.3035 61.5527L132.541 66.4994L107.771 90.4921Z" fill="#FFD60A"/>
</svg>
