<svg width="172" height="162" viewBox="0 0 172 162" fill="none" xmlns="http://www.w3.org/2000/svg">
<path d="M152.195 55.8615L109.796 50.0238L90.8423 13.6212C90.3246 12.6246 89.473 11.8177 88.4209 11.3273C85.7824 10.0933 82.5762 11.1216 81.2569 13.6212L62.3033 50.0238L19.904 55.8615C18.7351 56.0197 17.6663 56.5418 16.8481 57.3328C15.8588 58.296 15.3137 59.5919 15.3325 60.9357C15.3513 62.2795 15.9324 63.5613 16.9483 64.4994L47.6247 92.8335L40.3773 132.843C40.2073 133.774 40.316 134.731 40.6911 135.606C41.0661 136.481 41.6925 137.239 42.4992 137.794C43.3059 138.35 44.2606 138.679 45.2551 138.747C46.2496 138.814 47.244 138.616 48.1257 138.175L86.0496 119.285L123.974 138.175C125.009 138.697 126.211 138.871 127.364 138.681C130.269 138.206 132.223 135.596 131.722 132.843L124.475 92.8335L155.151 64.4994C155.986 63.7242 156.537 62.7117 156.704 61.6042C157.155 58.8357 155.118 56.2728 152.195 55.8615ZM111.566 88.8468L117.594 122.117L86.0496 106.423L54.5048 122.133L60.5332 88.8626L35.0168 65.2904L70.2856 60.4336L86.0496 30.1693L101.814 60.4336L137.082 65.2904L111.566 88.8468Z" fill="#FFD60A"/>
<path d="M111.566 88.8468L117.594 122.117L86.0496 106.423L54.5048 122.133L60.5332 88.8626L35.0168 65.2904L70.2856 60.4336L86.0496 30.1693L101.814 60.4336L137.082 65.2904L111.566 88.8468Z" fill="#FFD60A"/>
</svg>
