<svg width="167" height="166" viewBox="0 0 167 166" fill="none" xmlns="http://www.w3.org/2000/svg">
<path d="M148.098 57.2408L106.691 51.259L88.1805 13.9576C87.6749 12.9363 86.8432 12.1096 85.8157 11.607C83.239 10.3426 80.1077 11.3963 78.8193 13.9576L60.3091 51.259L18.9016 57.2408C17.76 57.4029 16.7162 57.9379 15.9171 58.7484C14.951 59.7355 14.4186 61.0634 14.437 62.4404C14.4553 63.8173 15.0229 65.1308 16.0149 66.092L45.9738 95.1258L38.8959 136.123C38.7299 137.077 38.8361 138.058 39.2024 138.955C39.5687 139.851 40.1804 140.628 40.9682 141.197C41.756 141.766 42.6884 142.104 43.6596 142.172C44.6309 142.241 45.602 142.038 46.4631 141.586L83.4999 122.23L120.537 141.586C121.548 142.121 122.722 142.3 123.847 142.105C126.685 141.619 128.593 138.944 128.104 136.123L121.026 95.1258L150.985 66.092C151.8 65.2977 152.338 64.2602 152.502 63.1254C152.942 60.2885 150.952 57.6623 148.098 57.2408ZM108.419 91.0406L114.307 125.132L83.4999 109.051L52.693 125.148L58.5804 91.0568L33.6608 66.9025L68.1046 61.9258L83.4999 30.9143L98.8952 61.9258L133.339 66.9025L108.419 91.0406Z" fill="#FFD60A"/>
<path d="M108.419 91.0406L114.307 125.132L83.4999 109.051L52.693 125.148L58.5804 91.0568L33.6608 66.9025L68.1046 61.9258L83.4999 30.9143L98.8952 61.9258L133.339 66.9025L108.419 91.0406Z" fill="#FFD60A"/>
</svg>
