<svg width="158" height="171" viewBox="0 0 158 171" fill="none" xmlns="http://www.w3.org/2000/svg">
<path d="M139.66 58.9649L100.732 52.8029L83.3301 14.378C82.8548 13.326 82.0729 12.4743 81.107 11.9566C78.6845 10.6541 75.7407 11.7395 74.5295 14.378L57.1276 52.8029L18.1996 58.9649C17.1264 59.1319 16.1451 59.683 15.3939 60.5179C14.4856 61.5347 13.9851 62.9026 14.0024 64.3211C14.0196 65.7395 14.5532 67.0925 15.4859 68.0827L43.6508 97.991L36.9967 140.223C36.8407 141.206 36.9405 142.216 37.2848 143.14C37.6292 144.064 38.2043 144.864 38.9449 145.45C39.6856 146.036 40.5621 146.384 41.4752 146.455C42.3882 146.526 43.3013 146.316 44.1108 145.851L78.9298 125.912L113.749 145.851C114.699 146.402 115.803 146.586 116.861 146.385C119.529 145.884 121.323 143.129 120.863 140.223L114.209 97.991L142.374 68.0827C143.14 67.2644 143.646 66.1957 143.8 65.0267C144.214 62.1044 142.343 59.3991 139.66 58.9649ZM102.357 93.7828L107.892 128.901L78.9298 112.336L49.9676 128.918L55.5025 93.7995L32.0751 68.9177L64.4564 63.791L78.9298 31.8454L93.4032 63.791L125.784 68.9177L102.357 93.7828Z" fill="#FFD60A"/>
<path d="M102.357 93.7828L107.892 128.901L78.9298 112.336L49.9676 128.918L55.5025 93.7995L32.0751 68.9177L64.4564 63.791L78.9298 31.8454L93.4032 63.791L125.784 68.9177L102.357 93.7828Z" fill="#FFD60A"/>
</svg>
