<svg width="166" height="178" viewBox="0 0 166 178" fill="none" xmlns="http://www.w3.org/2000/svg">
<path d="M147.212 61.3786L106.052 54.9644L87.653 14.9665C87.1504 13.8714 86.3237 12.9849 85.3024 12.446C82.741 11.0902 79.6285 12.22 78.3479 14.9665L59.9485 54.9644L18.7889 61.3786C17.6541 61.5524 16.6166 62.1261 15.8223 62.9952C14.862 64.0536 14.3328 65.4775 14.351 66.954C14.3693 68.4305 14.9334 69.8389 15.9196 70.8696L45.699 102.002L38.6635 145.963C38.4985 146.986 38.604 148.038 38.9681 148.999C39.3322 149.961 39.9403 150.794 40.7234 151.404C41.5065 152.014 42.4333 152.376 43.3987 152.45C44.3641 152.524 45.3295 152.306 46.1854 151.821L83.0004 131.066L119.815 151.821C120.821 152.395 121.988 152.586 123.106 152.378C125.927 151.856 127.824 148.988 127.337 145.963L120.302 102.002L150.081 70.8696C150.892 70.0179 151.427 68.9054 151.589 67.6886C152.027 64.6466 150.049 61.8306 147.212 61.3786ZM107.771 97.6218L113.623 134.178L83.0004 116.934L52.378 134.195L58.2301 97.6392L33.4598 71.7388L67.6973 66.4023L83.0004 33.1489L98.3035 66.4023L132.541 71.7388L107.771 97.6218Z" fill="#FFD60A"/>
<path d="M107.771 97.6218L113.623 134.178L83.0004 116.934L52.378 134.195L58.2301 97.6392L33.4598 71.7388L67.6973 66.4023L83.0004 33.1489L98.3035 66.4023L132.541 71.7388L107.771 97.6218Z" fill="#FFD60A"/>
</svg>
