<svg width="201" height="203" viewBox="0 0 201 203" fill="none" xmlns="http://www.w3.org/2000/svg">
<rect x="3.89844" y="3.69531" width="194" height="196" rx="95" fill="#D9E2EC"/>
<path d="M82.3192 109.94V94.8161H85.3283V109.94H82.3192ZM76.2676 103.877V100.879H91.3912V103.877H76.2676Z" fill="#102A43"/>
<path d="M105.212 90.8786V113.788H101.744V94.3463H101.61L96.1285 97.9259V94.6148L101.845 90.8786H105.212Z" fill="#102A43"/>
<path d="M111.409 113.788V111.282L119.161 103.25C119.988 102.378 120.671 101.614 121.208 100.957C121.752 100.294 122.158 99.6635 122.427 99.0669C122.695 98.4703 122.83 97.8364 122.83 97.1652C122.83 96.4046 122.651 95.7483 122.293 95.1965C121.935 94.6372 121.446 94.2084 120.827 93.9101C120.208 93.6043 119.511 93.4514 118.736 93.4514C117.915 93.4514 117.199 93.6192 116.588 93.9548C115.976 94.2904 115.506 94.7639 115.178 95.3755C114.85 95.987 114.686 96.7029 114.686 97.5232H111.386C111.386 96.1287 111.707 94.9094 112.348 93.8653C112.99 92.8213 113.87 92.0122 114.988 91.4379C116.107 90.8563 117.378 90.5654 118.803 90.5654C120.242 90.5654 121.51 90.8525 122.606 91.4268C123.71 91.9935 124.571 92.7691 125.19 93.7535C125.809 94.7304 126.118 95.8341 126.118 97.0646C126.118 97.9147 125.958 98.7462 125.637 99.5591C125.324 100.372 124.776 101.278 123.993 102.277C123.21 103.269 122.121 104.473 120.727 105.89L116.174 110.656V110.823H126.487V113.788H111.409Z" fill="#102A43"/>
<rect x="3.89844" y="3.69531" width="194" height="196" rx="95" stroke="url(#paint0_linear_29_415)" stroke-width="6"/>
<defs>
<linearGradient id="paint0_linear_29_415" x1="100.898" y1="0.695312" x2="100.898" y2="202.695" gradientUnits="userSpaceOnUse">
<stop stop-color="#2186EB"/>
<stop offset="1" stop-color="#6340EE"/>
</linearGradient>
</defs>
</svg>
