<svg width="646" height="170" viewBox="0 0 646 170" fill="none" xmlns="http://www.w3.org/2000/svg">
<path d="M142.261 59.0626L102.737 52.9908L85.0678 15.1287C84.5853 14.0921 83.7913 13.2529 82.8106 12.7428C80.351 11.4593 77.3621 12.5289 76.1323 15.1287L58.4637 52.9908L18.9388 59.0626C17.8491 59.2271 16.8528 59.7701 16.09 60.5929C15.1678 61.5947 14.6597 62.9426 14.6772 64.3403C14.6947 65.738 15.2365 67.0711 16.1834 68.0468L44.7802 97.5171L38.0241 139.131C37.8656 140.099 37.967 141.095 38.3166 142.005C38.6662 142.915 39.2501 143.703 40.0021 144.281C40.7541 144.858 41.6441 145.201 42.5712 145.271C43.4983 145.341 44.4253 145.135 45.2472 144.676L80.6001 125.029L115.953 144.676C116.918 145.219 118.039 145.4 119.113 145.203C121.822 144.709 123.643 141.994 123.176 139.131L116.42 97.5171L145.017 68.0468C145.795 67.2406 146.309 66.1875 146.464 65.0356C146.885 62.1561 144.986 59.4904 142.261 59.0626V59.0626ZM104.387 93.3705L110.006 127.975L80.6001 111.652L51.1938 127.991L56.8135 93.387L33.027 68.8696L65.9047 63.818L80.6001 32.3403L95.2954 63.818L128.173 68.8696L104.387 93.3705Z" fill="#FFD60A"/>
<path d="M303.878 59.0626L263.736 52.9908L245.791 15.1287C245.301 14.0921 244.494 13.2529 243.498 12.7428C241 11.4593 237.965 12.5289 236.716 15.1287L218.771 52.9908L178.628 59.0626C177.522 59.2271 176.51 59.7701 175.735 60.5929C174.799 61.5947 174.282 62.9426 174.3 64.3403C174.318 65.738 174.868 67.0711 175.83 68.0468L204.874 97.5171L198.012 139.131C197.851 140.099 197.954 141.095 198.309 142.005C198.664 142.915 199.257 143.703 200.021 144.281C200.785 144.858 201.689 145.201 202.63 145.271C203.572 145.341 204.513 145.135 205.348 144.676L241.253 125.029L277.158 144.676C278.139 145.219 279.277 145.4 280.368 145.203C283.119 144.709 284.969 141.994 284.494 139.131L277.633 97.5171L306.676 68.0468C307.467 67.2406 307.989 66.1875 308.147 65.0356C308.574 62.1561 306.645 59.4904 303.878 59.0626V59.0626ZM265.411 93.3705L271.119 127.975L241.253 111.652L211.387 127.991L217.095 93.387L192.937 68.8696L226.328 63.818L241.253 32.3403L256.178 63.818L289.57 68.8696L265.411 93.3705Z" fill="#FFD60A"/>
<path d="M304.101 58.8077L263.958 52.7359L246.013 14.8738C245.523 13.8372 244.717 12.998 243.721 12.4879C241.223 11.2044 238.187 12.274 236.938 14.8738L218.994 52.7359L178.851 58.8077C177.744 58.9723 176.732 59.5153 175.958 60.338C175.021 61.3399 174.505 62.6877 174.523 64.0854C174.541 65.4831 175.091 66.8162 176.053 67.7919L205.096 97.2622L198.235 138.876C198.074 139.844 198.177 140.84 198.532 141.75C198.887 142.66 199.48 143.449 200.244 144.026C201.007 144.603 201.911 144.946 202.853 145.016C203.794 145.086 204.736 144.88 205.571 144.421L241.476 124.774L277.381 144.421C278.361 144.964 279.5 145.145 280.591 144.948C283.342 144.454 285.191 141.739 284.717 138.876L277.855 97.2622L306.899 67.7919C307.69 66.9857 308.211 65.9326 308.369 64.7807C308.796 61.9012 306.867 59.2355 304.101 58.8077ZM265.634 93.1156L271.342 127.72L241.476 111.397L211.61 127.736L217.318 93.1321L193.159 68.6147L226.551 63.5631L241.476 32.0854L256.401 63.5631L289.792 68.6147L265.634 93.1156Z" fill="#FFD60A"/>
<path d="M265.634 93.1156L271.342 127.72L241.476 111.397L211.61 127.736L217.318 93.1321L193.159 68.6147L226.551 63.5631L241.476 32.0854L256.401 63.5631L289.792 68.6147L265.634 93.1156Z" fill="#FFD60A"/>
<path d="M463.567 59.0626L424.042 52.9908L406.374 15.1287C405.891 14.0921 405.097 13.2529 404.116 12.7428C401.657 11.4593 398.668 12.5289 397.438 15.1287L379.769 52.9908L340.244 59.0626C339.155 59.2271 338.158 59.7701 337.396 60.5929C336.474 61.5947 335.965 62.9426 335.983 64.3403C336 65.738 336.542 67.0711 337.489 68.0468L366.086 97.5171L359.33 139.131C359.171 140.099 359.273 141.095 359.622 142.005C359.972 142.915 360.556 143.703 361.308 144.281C362.06 144.858 362.95 145.201 363.877 145.271C364.804 145.341 365.731 145.135 366.553 144.676L401.906 125.029L437.259 144.676C438.224 145.219 439.345 145.4 440.419 145.203C443.127 144.709 444.949 141.994 444.482 139.131L437.726 97.5171L466.322 68.0468C467.101 67.2406 467.614 66.1875 467.77 65.0356C468.19 62.1561 466.291 59.4904 463.567 59.0626V59.0626ZM425.692 93.3705L431.312 127.975L401.906 111.652L372.499 127.991L378.119 93.387L354.333 68.8696L387.21 63.818L401.906 32.3403L416.601 63.818L449.479 68.8696L425.692 93.3705Z" fill="#FFD60A"/>
<path d="M585.729 53.4245L585.959 53.9019L586.483 53.9799L627.239 60.0512C627.24 60.0513 627.241 60.0514 627.241 60.0515C629.494 60.3957 631.088 62.543 630.736 64.8868L630.734 64.8976C630.604 65.8334 630.173 66.6877 629.523 67.3413L600.034 96.8097L599.67 97.174L599.755 97.6822L606.722 139.296L606.722 139.297C607.116 141.637 605.578 143.823 603.344 144.218L603.343 144.218C602.455 144.376 601.531 144.231 600.738 143.798L600.734 143.796L564.276 124.149L563.802 123.893L563.327 124.149L526.87 143.796L526.868 143.797C526.188 144.165 525.422 144.33 524.657 144.274C523.893 144.218 523.157 143.943 522.532 143.479C521.908 143.014 521.42 142.376 521.127 141.636C520.834 140.896 520.748 140.086 520.881 139.297L520.882 139.296L527.849 97.6822L527.934 97.174L527.569 96.8097L498.079 67.3395L498.079 67.3394C497.289 66.5507 496.833 65.4678 496.819 64.3274C496.804 63.1876 497.231 62.0931 498 61.2829C498.637 60.6166 499.463 60.1832 500.358 60.052L500.361 60.0517L541.121 53.9799L541.645 53.9019L541.875 53.4245L560.093 15.5671C560.094 15.5664 560.094 15.5657 560.094 15.5651C561.126 13.4521 563.608 12.6119 565.63 13.635L565.631 13.6356C566.442 14.0447 567.104 14.7205 567.508 15.5615L567.508 15.5623L585.729 53.4245ZM593.653 128.855L595.45 129.823L595.113 127.809L589.403 93.7138L613.568 69.5771L614.974 68.1732L613.009 67.8805L579.628 62.907L564.703 31.9065L563.802 30.035L562.901 31.9065L547.976 62.907L514.595 67.8805L512.631 68.1731L514.035 69.5768L538.201 93.73L532.49 127.826L532.153 129.84L533.951 128.871L563.802 112.787L593.653 128.855Z" fill="#FFD60A" stroke="#FFD60A" stroke-width="2"/>
</svg>
