<svg width="682" height="163" viewBox="0 0 682 163" fill="none" xmlns="http://www.w3.org/2000/svg">
<path d="M150.004 56.5321L108.297 50.6985L89.6531 14.3217C89.1438 13.3257 88.3061 12.5194 87.2712 12.0293C84.6758 10.7962 81.5219 11.8238 80.2242 14.3217L61.5802 50.6985L19.8733 56.5321C18.7234 56.6902 17.6721 57.2119 16.8672 58.0023C15.8942 58.9649 15.358 60.2599 15.3764 61.6027C15.3949 62.9456 15.9666 64.2265 16.9658 65.1639L47.1413 93.4781L40.0122 133.459C39.845 134.389 39.9519 135.346 40.3209 136.221C40.6898 137.095 41.306 137.853 42.0995 138.407C42.893 138.962 43.8321 139.292 44.8104 139.359C45.7886 139.426 46.7668 139.228 47.6341 138.787L84.9387 119.911L122.243 138.787C123.262 139.309 124.444 139.483 125.578 139.293C128.436 138.819 130.358 136.21 129.865 133.459L122.736 93.4781L152.912 65.1639C153.733 64.3892 154.275 63.3774 154.439 62.2708C154.883 59.5042 152.879 56.9431 150.004 56.5321V56.5321ZM110.038 89.4942L115.968 122.741L84.9387 107.058L53.909 122.757L59.839 89.51L34.7393 65.9543L69.432 61.1009L84.9387 30.858L100.445 61.1009L135.138 65.9543L110.038 89.4942Z" fill="#FFD60A"/>
<path d="M320.542 56.5321L278.184 50.6985L259.248 14.3217C258.731 13.3257 257.88 12.5194 256.829 12.0293C254.193 10.7962 250.99 11.8238 249.672 14.3217L230.737 50.6985L188.378 56.5321C187.21 56.6902 186.143 57.2119 185.325 58.0023C184.337 58.9649 183.792 60.2599 183.811 61.6027C183.83 62.9456 184.41 64.2265 185.425 65.1639L216.072 93.4781L208.832 133.459C208.662 134.389 208.771 135.346 209.145 136.221C209.52 137.095 210.146 137.853 210.952 138.407C211.758 138.962 212.711 139.292 213.705 139.359C214.698 139.426 215.692 139.228 216.573 138.787L254.46 119.911L292.348 138.787C293.382 139.309 294.583 139.483 295.734 139.293C298.637 138.819 300.589 136.21 300.089 133.459L292.848 93.4781L323.495 65.1639C324.329 64.3892 324.88 63.3774 325.047 62.2708C325.497 59.5042 323.462 56.9431 320.542 56.5321V56.5321ZM279.952 89.4942L285.975 122.741L254.46 107.058L222.946 122.757L228.968 89.51L203.476 65.9543L238.711 61.1009L254.46 30.858L270.209 61.1009L305.444 65.9543L279.952 89.4942Z" fill="#FFD60A"/>
<path d="M320.777 56.2872L278.419 50.4536L259.484 14.0768C258.966 13.0808 258.116 12.2745 257.064 11.7845C254.429 10.5513 251.225 11.5789 249.907 14.0768L230.972 50.4536L188.613 56.2872C187.446 56.4453 186.378 56.967 185.56 57.7575C184.572 58.72 184.028 60.015 184.046 61.3579C184.065 62.7007 184.646 63.9816 185.661 64.919L216.308 93.2332L209.067 133.215C208.897 134.145 209.006 135.101 209.381 135.976C209.755 136.85 210.381 137.608 211.187 138.162C211.993 138.717 212.947 139.047 213.94 139.114C214.934 139.181 215.927 138.983 216.808 138.542L254.695 119.666L292.583 138.542C293.617 139.064 294.819 139.238 295.97 139.048C298.873 138.574 300.824 135.965 300.324 133.215L293.083 93.2332L323.73 64.919C324.565 64.1444 325.115 63.1326 325.282 62.0259C325.732 59.2593 323.697 56.6982 320.777 56.2872ZM280.187 89.2493L286.21 122.496L254.695 106.813L223.181 122.512L229.204 89.2651L203.712 65.7095L238.947 60.8561L254.695 30.6132L270.444 60.8561L305.679 65.7095L280.187 89.2493Z" fill="#FFD60A"/>
<path d="M280.187 89.2493L286.21 122.496L254.695 106.813L223.181 122.512L229.204 89.2651L203.712 65.7095L238.947 60.8561L254.695 30.6132L270.444 60.8561L305.679 65.7095L280.187 89.2493Z" fill="#FFD60A"/>
<path d="M489.047 56.5321L447.34 50.6985L428.696 14.3217C428.187 13.3257 427.349 12.5194 426.314 12.0293C423.719 10.7962 420.565 11.8238 419.267 14.3217L400.623 50.6985L358.916 56.5321C357.766 56.6902 356.715 57.2119 355.91 58.0023C354.937 58.9649 354.401 60.2599 354.419 61.6027C354.438 62.9456 355.01 64.2265 356.009 65.1639L386.184 93.4781L379.055 133.459C378.888 134.389 378.995 135.346 379.364 136.221C379.733 137.095 380.349 137.853 381.142 138.407C381.936 138.962 382.875 139.292 383.853 139.359C384.832 139.426 385.81 139.228 386.677 138.787L423.982 119.911L461.286 138.787C462.305 139.309 463.487 139.483 464.621 139.293C467.479 138.819 469.401 136.21 468.908 133.459L461.779 93.4781L491.954 65.1639C492.776 64.3892 493.318 63.3774 493.482 62.2708C493.926 59.5042 491.922 56.9431 489.047 56.5321V56.5321ZM449.081 89.4942L455.011 122.741L423.982 107.058L392.952 122.757L398.882 89.51L373.782 65.9543L408.475 61.1009L423.982 30.858L439.488 61.1009L474.181 65.9543L449.081 89.4942Z" fill="#FFD60A"/>
<path d="M618.021 51.1658L618.261 51.6203L618.771 51.6894L661.778 57.5226C661.778 57.5226 661.778 57.5226 661.778 57.5227C664.263 57.8673 665.856 59.9704 665.502 62.1077L665.5 62.1195C665.368 62.9877 664.927 63.7964 664.239 64.426L633.122 92.7384L632.711 93.1124L632.812 93.6589L640.163 133.64L640.164 133.641C640.558 135.776 639.026 137.91 636.567 138.306L636.565 138.306C635.596 138.463 634.588 138.317 633.732 137.891L633.727 137.889L595.257 119.013L594.817 118.797L594.376 119.013L555.906 137.889L555.904 137.89C555.17 138.252 554.337 138.417 553.501 138.361C552.665 138.305 551.868 138.032 551.2 137.58C550.532 137.127 550.023 136.516 549.721 135.822C549.42 135.128 549.334 134.374 549.469 133.642L549.47 133.64L556.822 93.6589L556.922 93.1124L556.511 92.7384L525.393 64.4242L525.393 64.4242C524.558 63.6651 524.095 62.6433 524.08 61.5886C524.065 60.5345 524.498 59.5033 525.309 58.7252C525.983 58.0835 526.871 57.6539 527.85 57.5233L527.852 57.523L570.863 51.6894L571.372 51.6203L571.612 51.1658L590.836 14.7939C590.837 14.7932 590.837 14.7926 590.837 14.7919C591.911 12.7904 594.578 11.9123 596.804 12.9376L596.805 12.9381C597.681 13.3405 598.376 13.9958 598.794 14.7881L598.794 14.7889L618.021 51.1658ZM627.799 122.56L621.785 89.86L647.257 66.6942L648.844 65.2516L646.719 64.9634L611.452 60.1791L595.701 30.3906L594.817 28.7187L593.933 30.3906L578.182 60.1791L542.914 64.9634L540.79 65.2515L542.375 66.6939L567.848 89.8756L561.834 122.576L561.474 124.529L563.258 123.654L594.817 108.172L626.376 123.639L628.159 124.512L627.799 122.56Z" fill="#FFD60A" stroke="#FFD60A" stroke-width="2"/>
</svg>
