<svg width="432" height="185" viewBox="0 0 432 185" fill="none" xmlns="http://www.w3.org/2000/svg">
<path d="M415.335 66.4537C415.229 66.279 415.175 66.0778 415.18 65.8734L415.478 52.9706L404.454 59.6803C404.279 59.7866 404.078 59.8405 403.873 59.8358L390.971 59.5374L397.68 70.5622C397.787 70.7369 397.84 70.9381 397.836 71.1425L397.537 84.045L408.562 77.3353C408.737 77.2291 408.938 77.1751 409.142 77.1798L422.045 77.4782L415.335 66.4537Z" fill="#FFD60A"/>
<path d="M346.91 104.611C346.794 104.548 346.699 104.452 346.635 104.336L342.623 97.0001L338.611 104.336C338.548 104.452 338.452 104.547 338.336 104.611L331 108.623L338.336 112.635C338.452 112.699 338.547 112.794 338.611 112.91L342.623 120.246L346.635 112.91C346.699 112.794 346.794 112.699 346.91 112.635L354.246 108.623L346.91 104.611Z" fill="#FFD60A"/>
<ellipse cx="391.754" cy="5.75391" rx="5.7538" ry="5.75379" fill="#FFD60A"/>
<ellipse cx="188.754" cy="121.754" rx="5.7538" ry="5.75379" fill="#FFD60A"/>
<ellipse cx="372" cy="86.0001" rx="2" ry="2" fill="#FFD60A"/>
<ellipse cx="419" cy="121" rx="2" ry="2" fill="#FFD60A"/>
<path d="M15.9105 168.611C15.7943 168.548 15.6988 168.452 15.6353 168.336L11.6231 161L7.61118 168.336C7.54761 168.452 7.45218 168.547 7.33598 168.611L0.00012207 172.623L7.33584 176.635C7.45204 176.699 7.54747 176.794 7.61104 176.91L11.623 184.246L15.6351 176.91C15.6987 176.794 15.7941 176.699 15.9103 176.635L23.246 172.623L15.9105 168.611Z" fill="#FFD60A"/>
</svg>
