<svg width="822" height="165" viewBox="0 0 822 165" fill="none" xmlns="http://www.w3.org/2000/svg">
<path d="M146.731 56.8955L105.872 50.9498L87.607 13.8734C87.1082 12.8583 86.2874 12.0365 85.2736 11.537C82.731 10.2802 79.6412 11.3276 78.3699 13.8734L60.1048 50.9498L19.2457 56.8955C18.1193 57.0567 17.0893 57.5884 16.3008 58.3941C15.3475 59.3751 14.8222 60.695 14.8403 62.0637C14.8584 63.4324 15.4184 64.7379 16.3974 65.6933L45.9594 94.5519L38.9752 135.302C38.8115 136.25 38.9162 137.225 39.2777 138.116C39.6391 139.008 40.2427 139.78 41.0201 140.345C41.7975 140.91 42.7175 141.246 43.6759 141.315C44.6342 141.383 45.5926 141.181 46.4422 140.732L82.9885 121.493L119.535 140.732C120.532 141.264 121.691 141.441 122.802 141.248C125.602 140.764 127.484 138.106 127.002 135.302L120.017 94.5519L149.58 65.6933C150.384 64.9038 150.915 63.8725 151.076 62.7446C151.511 59.9248 149.547 57.3145 146.731 56.8955ZM107.578 90.4914L113.387 124.377L82.9885 108.393L52.5896 124.393L58.399 90.5075L33.8095 66.499L67.7971 61.5522L82.9885 30.7278L98.1799 61.5522L132.167 66.499L107.578 90.4914Z" fill="#FFD60A"/>
<path d="M107.578 90.4914L113.387 124.377L82.9885 108.393L52.5896 124.393L58.399 90.5075L33.8095 66.499L67.7971 61.5522L82.9885 30.7278L98.1799 61.5522L132.167 66.499L107.578 90.4914Z" fill="#FFD60A"/>
<path d="M309.271 56.8955L269.041 50.9498L251.057 13.8734C250.566 12.8583 249.758 12.0365 248.759 11.537C246.256 10.2802 243.214 11.3276 241.962 13.8734L223.978 50.9498L183.747 56.8955C182.638 57.0567 181.624 57.5884 180.848 58.3941C179.909 59.3751 179.392 60.695 179.41 62.0637C179.427 63.4324 179.979 64.7379 180.943 65.6933L210.05 94.5519L203.173 135.302C203.012 136.25 203.115 137.225 203.471 138.116C203.827 139.008 204.421 139.78 205.187 140.345C205.952 140.91 206.858 141.246 207.802 141.315C208.745 141.383 209.689 141.181 210.525 140.732L246.509 121.493L282.493 140.732C283.476 141.264 284.617 141.441 285.71 141.248C288.467 140.764 290.321 138.106 289.845 135.302L282.969 94.5519L312.076 65.6933C312.868 64.9038 313.391 63.8725 313.55 62.7446C313.977 59.9248 312.044 57.3145 309.271 56.8955V56.8955ZM270.721 90.4914L276.441 124.377L246.509 108.393L216.578 124.393L222.298 90.5075L198.087 66.499L231.552 61.5522L246.509 30.7278L261.467 61.5522L294.932 66.499L270.721 90.4914Z" fill="#FFD60A"/>
<path d="M473.772 56.8955L432.913 50.9498L414.648 13.8734C414.149 12.8583 413.328 12.0365 412.315 11.537C409.772 10.2802 406.682 11.3276 405.411 13.8734L387.146 50.9498L346.287 56.8955C345.16 57.0567 344.13 57.5884 343.342 58.3941C342.389 59.3751 341.863 60.695 341.881 62.0637C341.899 63.4324 342.459 64.7379 343.438 65.6933L373 94.5519L366.016 135.302C365.852 136.25 365.957 137.225 366.319 138.116C366.68 139.008 367.284 139.78 368.061 140.345C368.839 140.91 369.759 141.246 370.717 141.315C371.675 141.383 372.634 141.181 373.483 140.732L410.029 121.493L446.576 140.732C447.573 141.264 448.732 141.441 449.843 141.248C452.643 140.764 454.525 138.106 454.043 135.302L447.059 94.5519L476.621 65.6933C477.425 64.9038 477.956 63.8725 478.117 62.7446C478.552 59.9248 476.588 57.3145 473.772 56.8955V56.8955ZM434.619 90.4914L440.428 124.377L410.029 108.393L379.631 124.393L385.44 90.5075L360.851 66.499L394.838 61.5522L410.029 30.7278L425.221 61.5522L459.208 66.499L434.619 90.4914Z" fill="#FFD60A"/>
<path d="M636.312 56.8955L596.082 50.9498L578.098 13.8734C577.607 12.8583 576.799 12.0365 575.8 11.537C573.297 10.2802 570.255 11.3276 569.003 13.8734L551.019 50.9498L510.788 56.8955C509.679 57.0567 508.665 57.5884 507.889 58.3941C506.95 59.3751 506.433 60.695 506.451 62.0637C506.468 63.4324 507.02 64.7379 507.984 65.6933L537.091 94.5519L530.214 135.302C530.053 136.25 530.156 137.225 530.512 138.116C530.868 139.008 531.462 139.78 532.228 140.345C532.993 140.91 533.899 141.246 534.843 141.315C535.786 141.383 536.73 141.181 537.566 140.732L573.55 121.493L609.534 140.732C610.517 141.264 611.658 141.441 612.751 141.248C615.508 140.764 617.362 138.106 616.886 135.302L610.01 94.5519L639.117 65.6933C639.909 64.9038 640.432 63.8725 640.591 62.7446C641.018 59.9248 639.085 57.3145 636.312 56.8955V56.8955ZM597.762 90.4914L603.482 124.377L573.55 108.393L543.619 124.393L549.339 90.5075L525.128 66.499L558.593 61.5522L573.55 30.7278L588.508 61.5522L621.973 66.499L597.762 90.4914Z" fill="#FFD60A"/>
<path d="M760.68 51.3972L760.914 51.8654L761.432 51.9397L802.917 57.885C802.917 57.885 802.918 57.885 802.918 57.8851C805.251 58.2273 806.837 60.3441 806.486 62.59L806.484 62.6012C806.353 63.504 805.921 64.3345 805.259 64.9742L775.244 93.8311L774.861 94.1996L774.952 94.7234L782.044 135.474L782.044 135.474C782.436 137.717 780.908 139.869 778.597 140.262L778.595 140.262C777.679 140.419 776.726 140.274 775.912 139.847L775.907 139.844L738.799 120.605L738.339 120.367L737.878 120.605L700.77 139.844L700.768 139.845C700.07 140.209 699.281 140.373 698.491 140.317C697.702 140.262 696.945 139.989 696.307 139.532C695.669 139.075 695.175 138.452 694.88 137.736C694.585 137.019 694.5 136.236 694.633 135.475L694.634 135.474L701.725 94.7234L701.816 94.1996L701.433 93.8311L671.416 64.9724L671.416 64.9724C670.613 64.2007 670.157 63.1494 670.142 62.0503C670.127 60.9519 670.555 59.8899 671.335 59.098C671.984 58.4457 672.83 58.016 673.755 57.8858L673.757 57.8854L715.245 51.9397L715.763 51.8654L715.997 51.3972L734.541 14.3257C734.541 14.325 734.542 14.3243 734.542 14.3236C735.585 12.2701 738.127 11.4167 740.221 12.4362L740.222 12.4367C741.055 12.8408 741.726 13.5041 742.133 14.3199L742.134 14.3208L760.68 51.3972ZM770.19 124.206L764.383 90.8439L788.967 67.22L790.445 65.7999L788.416 65.5091L754.424 60.6366L739.233 30.2803L738.339 28.4932L737.444 30.2803L722.254 60.6366L688.261 65.5091L686.233 65.7998L687.71 67.2198L712.295 90.8598L706.487 124.222L706.141 126.21L707.932 125.281L738.339 109.519L768.745 125.265L770.536 126.193L770.19 124.206Z" fill="#FFD60A" stroke="#FFD60A" stroke-width="2"/>
<path d="M146.731 56.8955L105.872 50.9498L87.607 13.8734C87.1082 12.8583 86.2874 12.0365 85.2736 11.537C82.731 10.2802 79.6412 11.3276 78.3699 13.8734L60.1048 50.9498L19.2457 56.8955C18.1193 57.0567 17.0893 57.5884 16.3008 58.3941C15.3475 59.3751 14.8222 60.695 14.8403 62.0637C14.8584 63.4324 15.4184 64.7379 16.3974 65.6933L45.9594 94.5519L38.9752 135.302C38.8115 136.25 38.9162 137.225 39.2777 138.116C39.6391 139.008 40.2427 139.78 41.0201 140.345C41.7975 140.91 42.7175 141.246 43.6759 141.315C44.6342 141.383 45.5926 141.181 46.4422 140.732L82.9885 121.493L119.535 140.732C120.532 141.264 121.691 141.441 122.802 141.248C125.602 140.764 127.484 138.106 127.002 135.302L120.017 94.5519L149.58 65.6933C150.384 64.9038 150.915 63.8725 151.076 62.7446C151.511 59.9248 149.547 57.3145 146.731 56.8955ZM107.578 90.4914L113.387 124.377L82.9885 108.393L52.5896 124.393L58.399 90.5075L33.8095 66.499L67.7971 61.5522L82.9885 30.7278L98.1799 61.5522L132.167 66.499L107.578 90.4914Z" fill="#FFD60A"/>
<path d="M107.578 90.4914L113.387 124.377L82.9885 108.393L52.5896 124.393L58.399 90.5075L33.8095 66.499L67.7971 61.5522L82.9885 30.7278L98.1799 61.5522L132.167 66.499L107.578 90.4914Z" fill="#FFD60A"/>
<path d="M309.271 56.8955L269.041 50.9498L251.057 13.8734C250.566 12.8583 249.758 12.0365 248.759 11.537C246.256 10.2802 243.214 11.3276 241.962 13.8734L223.978 50.9498L183.747 56.8955C182.638 57.0567 181.624 57.5884 180.848 58.3941C179.909 59.3751 179.392 60.695 179.41 62.0637C179.427 63.4324 179.979 64.7379 180.943 65.6933L210.05 94.5519L203.173 135.302C203.012 136.25 203.115 137.225 203.471 138.116C203.827 139.008 204.421 139.78 205.187 140.345C205.952 140.91 206.858 141.246 207.802 141.315C208.745 141.383 209.689 141.181 210.525 140.732L246.509 121.493L282.493 140.732C283.476 141.264 284.617 141.441 285.71 141.248C288.467 140.764 290.321 138.106 289.845 135.302L282.969 94.5519L312.076 65.6933C312.868 64.9038 313.391 63.8725 313.55 62.7446C313.977 59.9248 312.044 57.3145 309.271 56.8955V56.8955ZM270.721 90.4914L276.441 124.377L246.509 108.393L216.578 124.393L222.298 90.5075L198.087 66.499L231.552 61.5522L246.509 30.7278L261.467 61.5522L294.932 66.499L270.721 90.4914Z" fill="#FFD60A"/>
<path d="M473.772 56.8955L432.913 50.9498L414.648 13.8734C414.149 12.8583 413.328 12.0365 412.315 11.537C409.772 10.2802 406.682 11.3276 405.411 13.8734L387.146 50.9498L346.287 56.8955C345.16 57.0567 344.13 57.5884 343.342 58.3941C342.389 59.3751 341.863 60.695 341.881 62.0637C341.899 63.4324 342.459 64.7379 343.438 65.6933L373 94.5519L366.016 135.302C365.852 136.25 365.957 137.225 366.319 138.116C366.68 139.008 367.284 139.78 368.061 140.345C368.839 140.91 369.759 141.246 370.717 141.315C371.675 141.383 372.634 141.181 373.483 140.732L410.029 121.493L446.576 140.732C447.573 141.264 448.732 141.441 449.843 141.248C452.643 140.764 454.525 138.106 454.043 135.302L447.059 94.5519L476.621 65.6933C477.425 64.9038 477.956 63.8725 478.117 62.7446C478.552 59.9248 476.588 57.3145 473.772 56.8955V56.8955ZM434.619 90.4914L440.428 124.377L410.029 108.393L379.631 124.393L385.44 90.5075L360.851 66.499L394.838 61.5522L410.029 30.7278L425.221 61.5522L459.208 66.499L434.619 90.4914Z" fill="#FFD60A"/>
<path d="M636.312 56.8955L596.082 50.9498L578.098 13.8734C577.607 12.8583 576.799 12.0365 575.8 11.537C573.297 10.2802 570.255 11.3276 569.003 13.8734L551.019 50.9498L510.788 56.8955C509.679 57.0567 508.665 57.5884 507.889 58.3941C506.95 59.3751 506.433 60.695 506.451 62.0637C506.468 63.4324 507.02 64.7379 507.984 65.6933L537.091 94.5519L530.214 135.302C530.053 136.25 530.156 137.225 530.512 138.116C530.868 139.008 531.462 139.78 532.228 140.345C532.993 140.91 533.899 141.246 534.843 141.315C535.786 141.383 536.73 141.181 537.566 140.732L573.55 121.493L609.534 140.732C610.517 141.264 611.658 141.441 612.751 141.248C615.508 140.764 617.362 138.106 616.886 135.302L610.01 94.5519L639.117 65.6933C639.909 64.9038 640.432 63.8725 640.591 62.7446C641.018 59.9248 639.085 57.3145 636.312 56.8955V56.8955ZM597.762 90.4914L603.482 124.377L573.55 108.393L543.619 124.393L549.339 90.5075L525.128 66.499L558.593 61.5522L573.55 30.7278L588.508 61.5522L621.973 66.499L597.762 90.4914Z" fill="#FFD60A"/>
<path d="M760.68 51.3972L760.914 51.8654L761.432 51.9397L802.917 57.885C802.917 57.885 802.918 57.885 802.918 57.8851C805.251 58.2273 806.837 60.3441 806.486 62.59L806.484 62.6012C806.353 63.504 805.921 64.3345 805.259 64.9742L775.244 93.8311L774.861 94.1996L774.952 94.7234L782.044 135.474L782.044 135.474C782.436 137.717 780.908 139.869 778.597 140.262L778.595 140.262C777.679 140.419 776.726 140.274 775.912 139.847L775.907 139.844L738.799 120.605L738.339 120.367L737.878 120.605L700.77 139.844L700.768 139.845C700.07 140.209 699.281 140.373 698.491 140.317C697.702 140.262 696.945 139.989 696.307 139.532C695.669 139.075 695.175 138.452 694.88 137.736C694.585 137.019 694.5 136.236 694.633 135.475L694.634 135.474L701.725 94.7234L701.816 94.1996L701.433 93.8311L671.416 64.9724L671.416 64.9724C670.613 64.2007 670.157 63.1494 670.142 62.0503C670.127 60.9519 670.555 59.8899 671.335 59.098C671.984 58.4457 672.83 58.016 673.755 57.8858L673.757 57.8854L715.245 51.9397L715.763 51.8654L715.997 51.3972L734.541 14.3257C734.541 14.325 734.542 14.3243 734.542 14.3236C735.585 12.2701 738.127 11.4167 740.221 12.4362L740.222 12.4367C741.055 12.8408 741.726 13.5041 742.133 14.3199L742.134 14.3208L760.68 51.3972ZM770.19 124.206L764.383 90.8439L788.967 67.22L790.445 65.7999L788.416 65.5091L754.424 60.6366L739.233 30.2803L738.339 28.4932L737.444 30.2803L722.254 60.6366L688.261 65.5091L686.233 65.7998L687.71 67.2198L712.295 90.8598L706.487 124.222L706.141 126.21L707.932 125.281L738.339 109.519L768.745 125.265L770.536 126.193L770.19 124.206Z" fill="#FFD60A" stroke="#FFD60A" stroke-width="2"/>
<path d="M146.731 56.8955L105.872 50.9498L87.607 13.8734C87.1082 12.8583 86.2874 12.0365 85.2736 11.537C82.731 10.2802 79.6412 11.3276 78.3699 13.8734L60.1048 50.9498L19.2457 56.8955C18.1193 57.0567 17.0893 57.5884 16.3008 58.3941C15.3475 59.3751 14.8222 60.695 14.8403 62.0637C14.8584 63.4324 15.4184 64.7379 16.3974 65.6933L45.9594 94.5519L38.9752 135.302C38.8115 136.25 38.9162 137.225 39.2777 138.116C39.6391 139.008 40.2427 139.78 41.0201 140.345C41.7975 140.91 42.7175 141.246 43.6759 141.315C44.6342 141.383 45.5926 141.181 46.4422 140.732L82.9885 121.493L119.535 140.732C120.532 141.264 121.691 141.441 122.802 141.248C125.602 140.764 127.484 138.106 127.002 135.302L120.017 94.5519L149.58 65.6933C150.384 64.9038 150.915 63.8725 151.076 62.7446C151.511 59.9248 149.547 57.3145 146.731 56.8955ZM107.578 90.4914L113.387 124.377L82.9885 108.393L52.5896 124.393L58.399 90.5075L33.8095 66.499L67.7971 61.5522L82.9885 30.7278L98.1799 61.5522L132.167 66.499L107.578 90.4914Z" fill="#FFD60A"/>
<path d="M107.578 90.4914L113.387 124.377L82.9885 108.393L52.5896 124.393L58.399 90.5075L33.8095 66.499L67.7971 61.5522L82.9885 30.7278L98.1799 61.5522L132.167 66.499L107.578 90.4914Z" fill="#FFD60A"/>
<path d="M0.594727 0.2H165.383V-0.2H0.594727V0.2Z" fill="black" mask="url(#path-11-inside-1_18_1792)"/>
<path d="M309.271 56.8955L269.041 50.9498L251.057 13.8734C250.566 12.8583 249.758 12.0365 248.759 11.537C246.256 10.2802 243.214 11.3276 241.962 13.8734L223.978 50.9498L183.747 56.8955C182.638 57.0567 181.624 57.5884 180.848 58.3941C179.909 59.3751 179.392 60.695 179.41 62.0637C179.427 63.4324 179.979 64.7379 180.943 65.6933L210.05 94.5519L203.173 135.302C203.012 136.25 203.115 137.225 203.471 138.116C203.827 139.008 204.421 139.78 205.187 140.345C205.952 140.91 206.858 141.246 207.802 141.315C208.745 141.383 209.689 141.181 210.525 140.732L246.509 121.493L282.493 140.732C283.476 141.264 284.617 141.441 285.71 141.248C288.467 140.764 290.321 138.106 289.845 135.302L282.969 94.5519L312.076 65.6933C312.868 64.9038 313.391 63.8725 313.55 62.7446C313.977 59.9248 312.044 57.3145 309.271 56.8955V56.8955ZM270.721 90.4914L276.441 124.377L246.509 108.393L216.578 124.393L222.298 90.5075L198.087 66.499L231.552 61.5522L246.509 30.7278L261.467 61.5522L294.932 66.499L270.721 90.4914Z" fill="#FFD60A"/>
<path d="M165.383 0.2H327.636V-0.2H165.383V0.2Z" fill="black" mask="url(#path-14-inside-2_18_1792)"/>
<path d="M473.772 56.8955L432.913 50.9498L414.648 13.8734C414.149 12.8583 413.328 12.0365 412.315 11.537C409.772 10.2802 406.682 11.3276 405.411 13.8734L387.146 50.9498L346.287 56.8955C345.16 57.0567 344.13 57.5884 343.342 58.3941C342.389 59.3751 341.863 60.695 341.881 62.0637C341.899 63.4324 342.459 64.7379 343.438 65.6933L373 94.5519L366.016 135.302C365.852 136.25 365.957 137.225 366.319 138.116C366.68 139.008 367.284 139.78 368.061 140.345C368.839 140.91 369.759 141.246 370.717 141.315C371.675 141.383 372.634 141.181 373.483 140.732L410.029 121.493L446.576 140.732C447.573 141.264 448.732 141.441 449.843 141.248C452.643 140.764 454.525 138.106 454.043 135.302L447.059 94.5519L476.621 65.6933C477.425 64.9038 477.956 63.8725 478.117 62.7446C478.552 59.9248 476.588 57.3145 473.772 56.8955V56.8955ZM434.619 90.4914L440.428 124.377L410.029 108.393L379.631 124.393L385.44 90.5075L360.851 66.499L394.838 61.5522L410.029 30.7278L425.221 61.5522L459.208 66.499L434.619 90.4914Z" fill="#FFD60A"/>
<path d="M327.636 0.2H492.424V-0.2H327.636V0.2Z" fill="black" mask="url(#path-17-inside-3_18_1792)"/>
<path d="M636.312 56.8955L596.082 50.9498L578.098 13.8734C577.607 12.8583 576.799 12.0365 575.8 11.537C573.297 10.2802 570.255 11.3276 569.003 13.8734L551.019 50.9498L510.788 56.8955C509.679 57.0567 508.665 57.5884 507.889 58.3941C506.95 59.3751 506.433 60.695 506.451 62.0637C506.468 63.4324 507.02 64.7379 507.984 65.6933L537.091 94.5519L530.214 135.302C530.053 136.25 530.156 137.225 530.512 138.116C530.868 139.008 531.462 139.78 532.228 140.345C532.993 140.91 533.899 141.246 534.843 141.315C535.786 141.383 536.73 141.181 537.566 140.732L573.55 121.493L609.534 140.732C610.517 141.264 611.658 141.441 612.751 141.248C615.508 140.764 617.362 138.106 616.886 135.302L610.01 94.5519L639.117 65.6933C639.909 64.9038 640.432 63.8725 640.591 62.7446C641.018 59.9248 639.085 57.3145 636.312 56.8955V56.8955ZM597.762 90.4914L603.482 124.377L573.55 108.393L543.619 124.393L549.339 90.5075L525.128 66.499L558.593 61.5522L573.55 30.7278L588.508 61.5522L621.973 66.499L597.762 90.4914Z" fill="#FFD60A"/>
<path d="M492.424 0.2H654.677V-0.2H492.424V0.2Z" fill="black" mask="url(#path-20-inside-4_18_1792)"/>
<path d="M760.68 51.3972L760.914 51.8654L761.432 51.9397L802.917 57.885C802.917 57.885 802.918 57.885 802.918 57.8851C805.251 58.2273 806.837 60.3441 806.486 62.59L806.484 62.6012C806.353 63.504 805.921 64.3345 805.259 64.9742L775.244 93.8311L774.861 94.1996L774.952 94.7234L782.044 135.474L782.044 135.474C782.436 137.717 780.908 139.869 778.597 140.262L778.595 140.262C777.679 140.419 776.726 140.274 775.912 139.847L775.907 139.844L738.799 120.605L738.339 120.367L737.878 120.605L700.77 139.844L700.768 139.845C700.07 140.209 699.281 140.373 698.491 140.317C697.702 140.262 696.945 139.989 696.307 139.532C695.669 139.075 695.175 138.452 694.88 137.736C694.585 137.019 694.5 136.236 694.633 135.475L694.634 135.474L701.725 94.7234L701.816 94.1996L701.433 93.8311L671.416 64.9724L671.416 64.9724C670.613 64.2007 670.157 63.1494 670.142 62.0503C670.127 60.9519 670.555 59.8899 671.335 59.098C671.984 58.4457 672.83 58.016 673.755 57.8858L673.757 57.8854L715.245 51.9397L715.763 51.8654L715.997 51.3972L734.541 14.3257C734.541 14.325 734.542 14.3243 734.542 14.3236C735.585 12.2701 738.127 11.4167 740.221 12.4362L740.222 12.4367C741.055 12.8408 741.726 13.5041 742.133 14.3199L742.134 14.3208L760.68 51.3972ZM770.19 124.206L764.383 90.8439L788.967 67.22L790.445 65.7999L788.416 65.5091L754.424 60.6366L739.233 30.2803L738.339 28.4932L737.444 30.2803L722.254 60.6366L688.261 65.5091L686.233 65.7998L687.71 67.2198L712.295 90.8598L706.487 124.222L706.141 126.21L707.932 125.281L738.339 109.519L768.745 125.265L770.536 126.193L770.19 124.206Z" fill="#FFD60A" stroke="#FFD60A" stroke-width="2"/>
<path d="M654.677 0.2H822V-0.2H654.677V0.2Z" fill="black" mask="url(#path-23-inside-5_18_1792)"/>
<path d="M308.984 56.8957L268.125 50.9499L249.86 13.8736C249.361 12.8584 248.54 12.0367 247.527 11.5372C244.984 10.2803 241.894 11.3277 240.623 13.8736L222.358 50.9499L181.499 56.8957C180.372 57.0568 179.342 57.5885 178.554 58.3942C177.6 59.3752 177.075 60.6951 177.093 62.0638C177.111 63.4325 177.671 64.738 178.65 65.6934L208.212 94.5521L201.228 135.302C201.064 136.25 201.169 137.225 201.531 138.116C201.892 139.008 202.496 139.78 203.273 140.345C204.05 140.911 204.97 141.246 205.929 141.315C206.887 141.383 207.846 141.181 208.695 140.732L245.241 121.493L281.788 140.732C282.785 141.264 283.944 141.441 285.054 141.248C287.855 140.765 289.737 138.106 289.255 135.302L282.27 94.5521L311.832 65.6934C312.637 64.9039 313.168 63.8726 313.329 62.7447C313.764 59.9249 311.8 57.3146 308.984 56.8957ZM269.831 90.4915L275.64 124.377L245.241 108.393L214.842 124.394L220.652 90.5077L196.062 66.4991L230.05 61.5524L245.241 30.7279L260.433 61.5524L294.42 66.4991L269.831 90.4915Z" fill="#FFD60A"/>
<path d="M269.831 90.4915L275.64 124.377L245.241 108.393L214.842 124.394L220.652 90.5077L196.062 66.4991L230.05 61.5524L245.241 30.7279L260.433 61.5524L294.42 66.4991L269.831 90.4915Z" fill="#FFD60A"/>
<path d="M162.848 0.200122H327.636V-0.199878H162.848V0.200122Z" fill="black" mask="url(#path-26-inside-6_18_1792)"/>
<path d="M144.483 56.8958L104.253 50.95L86.2688 13.8737C85.7776 12.8586 84.9695 12.0368 83.9713 11.5373C81.4677 10.2805 78.4255 11.3278 77.1737 13.8737L59.1897 50.95L18.9592 56.8958C17.8501 57.0569 16.836 57.5886 16.0596 58.3943C15.1209 59.3754 14.6037 60.6953 14.6215 62.0639C14.6394 63.4326 15.1908 64.7381 16.1546 65.6936L45.2619 94.5522L38.3852 135.302C38.2239 136.25 38.3271 137.225 38.6829 138.117C39.0388 139.008 39.6332 139.78 40.3986 140.345C41.164 140.911 42.0699 141.247 43.0135 141.315C43.9571 141.383 44.9007 141.182 45.7373 140.732L81.7213 121.493L117.705 140.732C118.688 141.264 119.829 141.441 120.922 141.248C123.679 140.765 125.533 138.106 125.057 135.302L118.181 94.5522L147.288 65.6936C148.08 64.904 148.603 63.8728 148.761 62.7448C149.189 59.925 147.256 57.3147 144.483 56.8958V56.8958ZM105.932 90.4917L111.652 124.378L81.7213 108.393L51.7901 124.394L57.5101 90.5078L33.2989 66.4992L66.7636 61.5525L81.7213 30.728L96.679 61.5525L130.144 66.4992L105.932 90.4917Z" fill="#FFD60A"/>
<path d="M0.594727 0.200244H162.848V-0.199756H0.594727V0.200244Z" fill="black" mask="url(#path-29-inside-7_18_1792)"/>
<path d="M473.772 56.8957L432.913 50.9499L414.648 13.8736C414.149 12.8584 413.328 12.0367 412.315 11.5372C409.772 10.2803 406.682 11.3277 405.411 13.8736L387.146 50.9499L346.287 56.8957C345.16 57.0568 344.13 57.5885 343.342 58.3942C342.389 59.3752 341.863 60.6951 341.881 62.0638C341.899 63.4325 342.459 64.738 343.438 65.6934L373 94.5521L366.016 135.302C365.852 136.25 365.957 137.225 366.319 138.116C366.68 139.008 367.284 139.78 368.061 140.345C368.839 140.911 369.759 141.246 370.717 141.315C371.675 141.383 372.634 141.181 373.483 140.732L410.029 121.493L446.576 140.732C447.573 141.264 448.732 141.441 449.843 141.248C452.643 140.765 454.525 138.106 454.043 135.302L447.059 94.5521L476.621 65.6934C477.425 64.9039 477.956 63.8726 478.117 62.7447C478.552 59.9249 476.588 57.3146 473.772 56.8957V56.8957ZM434.619 90.4915L440.428 124.377L410.029 108.393L379.631 124.394L385.44 90.5077L360.851 66.4991L394.838 61.5524L410.029 30.7279L425.221 61.5524L459.208 66.4991L434.619 90.4915Z" fill="#FFD60A"/>
<path d="M327.636 0.200122H492.424V-0.199878H327.636V0.200122Z" fill="black" mask="url(#path-32-inside-8_18_1792)"/>
<path d="M636.312 56.8957L596.082 50.9499L578.098 13.8736C577.607 12.8584 576.799 12.0367 575.8 11.5372C573.297 10.2803 570.255 11.3277 569.003 13.8736L551.019 50.9499L510.788 56.8957C509.679 57.0568 508.665 57.5885 507.889 58.3942C506.95 59.3752 506.433 60.6951 506.451 62.0638C506.468 63.4325 507.02 64.738 507.984 65.6934L537.091 94.5521L530.214 135.302C530.053 136.25 530.156 137.225 530.512 138.116C530.868 139.008 531.462 139.78 532.228 140.345C532.993 140.911 533.899 141.246 534.843 141.315C535.786 141.383 536.73 141.181 537.566 140.732L573.55 121.493L609.534 140.732C610.517 141.264 611.658 141.441 612.751 141.248C615.508 140.765 617.362 138.106 616.886 135.302L610.01 94.5521L639.117 65.6934C639.909 64.9039 640.432 63.8726 640.591 62.7447C641.018 59.9249 639.085 57.3146 636.312 56.8957V56.8957ZM597.762 90.4915L603.482 124.377L573.55 108.393L543.619 124.394L549.339 90.5077L525.128 66.4991L558.593 61.5524L573.55 30.7279L588.508 61.5524L621.973 66.4991L597.762 90.4915Z" fill="#FFD60A"/>
<path d="M492.424 0.200122H654.677V-0.199878H492.424V0.200122Z" fill="black" mask="url(#path-35-inside-9_18_1792)"/>
<path d="M760.68 51.3973L760.914 51.8655L761.432 51.9398L802.917 57.8851C802.917 57.8851 802.918 57.8852 802.918 57.8852C805.251 58.2275 806.837 60.3442 806.486 62.5901L806.484 62.6013C806.353 63.5042 805.921 64.3346 805.259 64.9743L775.244 93.8312L774.861 94.1997L774.952 94.7235L782.044 135.474L782.044 135.474C782.436 137.718 780.908 139.869 778.597 140.262L778.595 140.262C777.679 140.419 776.726 140.274 775.912 139.847L775.907 139.845L738.799 120.605L738.339 120.367L737.878 120.605L700.77 139.845L700.768 139.845C700.07 140.209 699.281 140.373 698.491 140.317C697.702 140.262 696.945 139.989 696.307 139.532C695.669 139.075 695.175 138.452 694.88 137.736C694.585 137.019 694.5 136.236 694.633 135.475L694.634 135.474L701.725 94.7235L701.816 94.1997L701.433 93.8312L671.416 64.9726L671.416 64.9725C670.613 64.2008 670.157 63.1495 670.142 62.0504C670.127 60.952 670.555 59.89 671.335 59.0981C671.984 58.4458 672.83 58.0162 673.755 57.8859L673.757 57.8855L715.245 51.9398L715.763 51.8655L715.997 51.3973L734.541 14.3258C734.541 14.3251 734.542 14.3244 734.542 14.3238C735.585 12.2703 738.127 11.4168 740.221 12.4363L740.222 12.4368C741.055 12.8409 741.726 13.5043 742.133 14.3201L742.134 14.3209L760.68 51.3973ZM770.19 124.206L764.383 90.8441L788.967 67.2201L790.445 65.8L788.416 65.5092L754.424 60.6367L739.233 30.2804L738.339 28.4933L737.444 30.2804L722.254 60.6367L688.261 65.5092L686.233 65.7999L687.71 67.2199L712.295 90.86L706.487 124.222L706.141 126.21L707.932 125.281L738.339 109.52L768.745 125.265L770.536 126.193L770.19 124.206Z" fill="#FFD60A" stroke="#FFD60A" stroke-width="2"/>
<path d="M654.677 0.200122H822V-0.199878H654.677V0.200122Z" fill="black" mask="url(#path-38-inside-10_18_1792)"/>
</svg>
