<svg width="495" height="165" viewBox="0 0 495 165" fill="none" xmlns="http://www.w3.org/2000/svg">
<path d="M308.984 56.897L268.125 50.9512L249.86 13.8749C249.361 12.8598 248.54 12.038 247.527 11.5385C244.984 10.2817 241.894 11.329 240.623 13.8749L222.358 50.9512L181.499 56.897C180.372 57.0581 179.342 57.5899 178.554 58.3955C177.6 59.3766 177.075 60.6965 177.093 62.0652C177.111 63.4338 177.671 64.7393 178.65 65.6948L208.212 94.5534L201.228 135.304C201.064 136.251 201.169 137.226 201.531 138.118C201.892 139.009 202.496 139.781 203.273 140.347C204.05 140.912 204.97 141.248 205.929 141.316C206.887 141.385 207.846 141.183 208.695 140.734L245.241 121.495L281.788 140.734C282.785 141.265 283.944 141.443 285.054 141.249C287.855 140.766 289.737 138.107 289.255 135.304L282.27 94.5534L311.832 65.6948C312.637 64.9052 313.168 63.874 313.329 62.7461C313.764 59.9263 311.8 57.3159 308.984 56.897ZM269.831 90.4929L275.64 124.379L245.241 108.395L214.842 124.395L220.652 90.509L196.062 66.5004L230.05 61.5537L245.241 30.7293L260.433 61.5537L294.42 66.5004L269.831 90.4929Z" fill="#FFD60A"/>
<path d="M269.831 90.4929L275.64 124.379L245.241 108.395L214.842 124.395L220.652 90.509L196.062 66.5004L230.05 61.5537L245.241 30.7293L260.433 61.5537L294.42 66.5004L269.831 90.4929Z" fill="#FFD60A"/>
<path d="M162.848 0.201465H327.636V-0.198535H162.848V0.201465Z" fill="black" mask="url(#path-1-inside-1_18_1847)"/>
<path d="M144.483 56.897L104.253 50.9513L86.2688 13.8749C85.7776 12.8598 84.9695 12.038 83.9713 11.5385C81.4677 10.2817 78.4255 11.329 77.1737 13.8749L59.1897 50.9513L18.9592 56.897C17.8501 57.0581 16.836 57.5899 16.0596 58.3955C15.1209 59.3766 14.6037 60.6965 14.6215 62.0652C14.6394 63.4338 15.1908 64.7393 16.1546 65.6948L45.2619 94.5534L38.3852 135.304C38.2239 136.251 38.3271 137.226 38.6829 138.118C39.0388 139.009 39.6332 139.781 40.3986 140.347C41.164 140.912 42.0699 141.248 43.0135 141.316C43.9571 141.385 44.9007 141.183 45.7373 140.734L81.7213 121.495L117.705 140.734C118.688 141.265 119.829 141.443 120.922 141.249C123.679 140.766 125.533 138.107 125.057 135.304L118.181 94.5534L147.288 65.6948C148.08 64.9052 148.603 63.874 148.761 62.7461C149.189 59.9263 147.256 57.3159 144.483 56.897V56.897ZM105.932 90.4929L111.652 124.379L81.7213 108.395L51.7901 124.395L57.5101 90.509L33.2989 66.5004L66.7636 61.5537L81.7213 30.7293L96.679 61.5537L130.144 66.5004L105.932 90.4929Z" fill="#FFD60A"/>
<path d="M0.594727 0.201465H162.848V-0.198535H0.594727V0.201465Z" fill="black" mask="url(#path-4-inside-2_18_1847)"/>
<path d="M433.639 51.3986L433.873 51.8669L434.391 51.9411L475.876 57.8864C475.876 57.8865 475.877 57.8865 475.877 57.8865C478.21 58.2288 479.796 60.3456 479.445 62.5915L479.443 62.6027C479.312 63.5055 478.88 64.3359 478.218 64.9757L448.203 93.8325L447.82 94.201L447.911 94.7249L455.003 135.475L455.003 135.476C455.395 137.719 453.867 139.87 451.556 140.263L451.554 140.264C450.638 140.421 449.685 140.275 448.871 139.848L448.866 139.846L411.758 120.607L411.298 120.368L410.837 120.607L373.729 139.846L373.727 139.847C373.029 140.21 372.24 140.374 371.45 140.319C370.661 140.263 369.904 139.991 369.266 139.534C368.628 139.077 368.134 138.454 367.839 137.737C367.544 137.02 367.459 136.237 367.592 135.476L367.592 135.475L374.684 94.7249L374.775 94.201L374.392 93.8325L344.375 64.9739L344.375 64.9738C343.572 64.2022 343.116 63.1508 343.101 62.0517C343.086 60.9534 343.514 59.8914 344.294 59.0994C344.943 58.4472 345.789 58.0175 346.714 57.8872L346.716 57.8869L388.204 51.9411L388.722 51.8669L388.956 51.3986L407.5 14.3271C407.5 14.3265 407.501 14.3258 407.501 14.3251C408.544 12.2716 411.086 11.4182 413.18 12.4376L413.181 12.4382C414.014 12.8422 414.685 13.5056 415.092 14.3214L415.093 14.3223L433.639 51.3986ZM443.149 124.207L437.342 90.8454L461.926 67.2215L463.404 65.8014L461.375 65.5105L427.383 60.6381L412.192 30.2817L411.298 28.4947L410.403 30.2817L395.212 60.6381L361.22 65.5105L359.192 65.8012L360.669 67.2212L385.254 90.8613L379.446 124.223L379.1 126.211L380.891 125.283L411.298 109.521L441.704 125.267L443.495 126.194L443.149 124.207Z" fill="#FFD60A" stroke="#FFD60A" stroke-width="2"/>
<path d="M327.636 0.201465H494.959V-0.198535H327.636V0.201465Z" fill="black" mask="url(#path-7-inside-3_18_1847)"/>
<path d="M308.984 56.8955L268.125 50.9498L249.86 13.8734C249.361 12.8583 248.54 12.0365 247.527 11.537C244.984 10.2802 241.894 11.3276 240.623 13.8734L222.358 50.9498L181.499 56.8955C180.372 57.0567 179.342 57.5884 178.554 58.3941C177.6 59.3751 177.075 60.695 177.093 62.0637C177.111 63.4324 177.671 64.7379 178.65 65.6933L208.212 94.5519L201.228 135.302C201.064 136.25 201.169 137.225 201.531 138.116C201.892 139.008 202.496 139.78 203.273 140.345C204.05 140.91 204.97 141.246 205.929 141.315C206.887 141.383 207.846 141.181 208.695 140.732L245.241 121.493L281.788 140.732C282.785 141.264 283.944 141.441 285.054 141.248C287.855 140.764 289.737 138.106 289.255 135.302L282.27 94.5519L311.832 65.6933C312.637 64.9038 313.168 63.8725 313.329 62.7446C313.764 59.9248 311.8 57.3145 308.984 56.8955ZM269.831 90.4914L275.64 124.377L245.241 108.393L214.842 124.393L220.652 90.5075L196.062 66.499L230.05 61.5522L245.241 30.7278L260.433 61.5522L294.42 66.499L269.831 90.4914Z" fill="#FFD60A"/>
<path d="M269.831 90.4914L275.64 124.377L245.241 108.393L214.842 124.393L220.652 90.5075L196.062 66.499L230.05 61.5522L245.241 30.7278L260.433 61.5522L294.42 66.499L269.831 90.4914Z" fill="#FFD60A"/>
<path d="M162.848 0.2H327.636V-0.2H162.848V0.2Z" fill="black" mask="url(#path-10-inside-4_18_1847)"/>
<path d="M144.483 56.8955L104.253 50.9498L86.2688 13.8734C85.7776 12.8583 84.9695 12.0365 83.9713 11.537C81.4677 10.2802 78.4255 11.3276 77.1737 13.8734L59.1897 50.9498L18.9592 56.8955C17.8501 57.0567 16.836 57.5884 16.0596 58.3941C15.1209 59.3751 14.6037 60.695 14.6215 62.0637C14.6394 63.4324 15.1908 64.7379 16.1546 65.6933L45.2619 94.5519L38.3852 135.302C38.2239 136.25 38.3271 137.225 38.6829 138.116C39.0388 139.008 39.6332 139.78 40.3986 140.345C41.164 140.91 42.0699 141.246 43.0135 141.315C43.9571 141.383 44.9007 141.181 45.7373 140.732L81.7213 121.493L117.705 140.732C118.688 141.264 119.829 141.441 120.922 141.248C123.679 140.764 125.533 138.106 125.057 135.302L118.181 94.5519L147.288 65.6933C148.08 64.9038 148.603 63.8725 148.761 62.7446C149.189 59.9248 147.256 57.3145 144.483 56.8955V56.8955ZM105.932 90.4914L111.652 124.377L81.7213 108.393L51.7901 124.393L57.5101 90.5075L33.2989 66.499L66.7636 61.5522L81.7213 30.7278L96.679 61.5522L130.144 66.499L105.932 90.4914Z" fill="#FFD60A"/>
<path d="M0.594727 0.2H162.848V-0.2H0.594727V0.2Z" fill="black" mask="url(#path-13-inside-5_18_1847)"/>
<path d="M144.483 56.8955L104.253 50.9498L86.2688 13.8734C85.7776 12.8583 84.9695 12.0365 83.9713 11.537C81.4677 10.2802 78.4255 11.3276 77.1737 13.8734L59.1897 50.9498L18.9592 56.8955C17.8501 57.0567 16.836 57.5884 16.0596 58.3941C15.1209 59.3751 14.6037 60.695 14.6215 62.0637C14.6394 63.4324 15.1908 64.7379 16.1546 65.6933L45.2619 94.5519L38.3852 135.302C38.2239 136.25 38.3271 137.225 38.6829 138.116C39.0388 139.008 39.6332 139.78 40.3986 140.345C41.164 140.91 42.0699 141.246 43.0135 141.315C43.9571 141.383 44.9007 141.181 45.7373 140.732L81.7213 121.493L117.705 140.732C118.688 141.264 119.829 141.441 120.922 141.248C123.679 140.764 125.533 138.106 125.057 135.302L118.181 94.5519L147.288 65.6933C148.08 64.9038 148.603 63.8725 148.761 62.7446C149.189 59.9248 147.256 57.3145 144.483 56.8955V56.8955ZM105.932 90.4914L111.652 124.377L81.7213 108.393L51.7901 124.393L57.5101 90.5075L33.2989 66.499L66.7636 61.5522L81.7213 30.7278L96.679 61.5522L130.144 66.499L105.932 90.4914Z" fill="#FFD60A"/>
<path d="M0.594727 0.2H162.848V-0.2H0.594727V0.2Z" fill="black" mask="url(#path-16-inside-6_18_1847)"/>
<path d="M433.639 51.3972L433.873 51.8654L434.391 51.9397L475.876 57.885C475.876 57.885 475.877 57.885 475.877 57.8851C478.21 58.2273 479.796 60.3441 479.445 62.59L479.443 62.6012C479.312 63.504 478.88 64.3345 478.218 64.9742L448.203 93.8311L447.82 94.1996L447.911 94.7234L455.003 135.474L455.003 135.474C455.395 137.717 453.867 139.869 451.556 140.262L451.554 140.262C450.638 140.419 449.685 140.274 448.871 139.847L448.866 139.844L411.758 120.605L411.298 120.367L410.837 120.605L373.729 139.844L373.727 139.845C373.029 140.209 372.24 140.373 371.45 140.317C370.661 140.262 369.904 139.989 369.266 139.532C368.628 139.075 368.134 138.452 367.839 137.736C367.544 137.019 367.459 136.236 367.592 135.475L367.592 135.474L374.684 94.7234L374.775 94.1996L374.392 93.8311L344.375 64.9724L344.375 64.9724C343.572 64.2007 343.116 63.1494 343.101 62.0503C343.086 60.9519 343.514 59.8899 344.294 59.098C344.943 58.4457 345.789 58.016 346.714 57.8858L346.716 57.8854L388.204 51.9397L388.722 51.8654L388.956 51.3972L407.5 14.3257C407.5 14.325 407.501 14.3243 407.501 14.3236C408.544 12.2701 411.086 11.4167 413.18 12.4362L413.181 12.4367C414.014 12.8408 414.685 13.5041 415.092 14.3199L415.093 14.3208L433.639 51.3972ZM443.149 124.206L437.342 90.8439L461.926 67.22L463.404 65.7999L461.375 65.5091L427.383 60.6366L412.192 30.2803L411.298 28.4932L410.403 30.2803L395.212 60.6366L361.22 65.5091L359.192 65.7998L360.669 67.2198L385.254 90.8598L379.446 124.222L379.1 126.21L380.891 125.281L411.298 109.519L441.704 125.265L443.495 126.193L443.149 124.206Z" fill="#FFD60A" stroke="#FFD60A" stroke-width="2"/>
<path d="M327.636 0.2H494.959V-0.2H327.636V0.2Z" fill="black" mask="url(#path-19-inside-7_18_1847)"/>
</svg>
