<svg width="837" height="180" viewBox="0 0 837 180" fill="none" xmlns="http://www.w3.org/2000/svg">
<path d="M149.4 62.0684L107.795 55.5821L89.1966 15.1348C88.6886 14.0274 87.8529 13.1309 86.8206 12.586C84.2315 11.2149 81.0853 12.3575 79.7908 15.1348L61.1921 55.5821L19.5869 62.0684C18.4399 62.2442 17.3912 62.8243 16.5882 63.7032C15.6175 64.7735 15.0826 66.2134 15.101 67.7065C15.1195 69.1996 15.6897 70.6238 16.6865 71.6661L46.7885 103.148L39.6767 147.604C39.51 148.638 39.6166 149.701 39.9847 150.674C40.3527 151.646 40.9674 152.488 41.7589 153.105C42.5505 153.722 43.4874 154.088 44.4632 154.163C45.4391 154.238 46.4149 154.017 47.28 153.527L84.4937 132.539L121.707 153.527C122.723 154.107 123.903 154.301 125.034 154.09C127.885 153.563 129.802 150.662 129.311 147.604L122.199 103.148L152.301 71.6661C153.12 70.8048 153.661 69.6797 153.825 68.4493C154.267 65.3731 152.268 62.5255 149.4 62.0684ZM109.532 98.7188L115.448 135.686L84.4937 118.248L53.5397 135.703L59.4552 98.7364L34.4167 72.545L69.0249 67.1485L84.4937 33.5215L99.9625 67.1485L134.571 72.545L109.532 98.7188Z" fill="#FFD60A"/>
<path d="M109.532 98.7188L115.448 135.686L84.4937 118.248L53.5397 135.703L59.4552 98.7364L34.4167 72.545L69.0249 67.1485L84.4937 33.5215L99.9625 67.1485L134.571 72.545L109.532 98.7188Z" fill="#FFD60A"/>
<path d="M314.909 62.0684L273.943 55.5821L255.631 15.1348C255.131 14.0274 254.308 13.1309 253.291 12.586C250.742 11.2149 247.644 12.3575 246.37 15.1348L228.057 55.5821L187.092 62.0684C185.963 62.2442 184.93 62.8243 184.14 63.7032C183.184 64.7735 182.657 66.2134 182.675 67.7065C182.693 69.1996 183.255 70.6238 184.236 71.6661L213.875 103.149L206.873 147.604C206.709 148.638 206.814 149.701 207.176 150.674C207.538 151.646 208.144 152.488 208.923 153.105C209.702 153.722 210.625 154.088 211.586 154.163C212.547 154.238 213.507 154.017 214.359 153.527L251 132.539L287.641 153.527C288.642 154.107 289.803 154.301 290.917 154.09C293.724 153.563 295.612 150.662 295.128 147.604L288.125 103.149L317.764 71.6661C318.571 70.8048 319.103 69.6798 319.265 68.4493C319.7 65.3731 317.732 62.5255 314.909 62.0684V62.0684ZM275.654 98.7188L281.478 135.686L251 118.248L220.523 135.703L226.347 98.7364L201.694 72.545L235.769 67.1485L251 33.5215L266.231 67.1485L300.307 72.545L275.654 98.7188Z" fill="#FFD60A"/>
<path d="M482.414 62.0684L440.809 55.5821L422.21 15.1348C421.702 14.0274 420.867 13.1309 419.834 12.586C417.245 11.2149 414.099 12.3575 412.804 15.1348L394.206 55.5821L352.601 62.0684C351.454 62.2442 350.405 62.8243 349.602 63.7032C348.631 64.7735 348.096 66.2134 348.115 67.7065C348.133 69.1996 348.703 70.6238 349.7 71.6661L379.802 103.149L372.69 147.604C372.524 148.638 372.63 149.701 372.998 150.674C373.366 151.646 373.981 152.488 374.773 153.105C375.564 153.722 376.501 154.088 377.477 154.163C378.453 154.238 379.429 154.017 380.294 153.527L417.507 132.539L454.721 153.527C455.737 154.107 456.917 154.301 458.047 154.09C460.899 153.563 462.816 150.662 462.324 147.604L455.213 103.149L485.315 71.6661C486.134 70.8048 486.675 69.6798 486.838 68.4493C487.281 65.3731 485.282 62.5255 482.414 62.0684V62.0684ZM442.546 98.7188L448.461 135.686L417.507 118.248L386.553 135.703L392.469 98.7364L367.43 72.545L402.039 67.1485L417.507 33.5215L432.976 67.1485L467.584 72.545L442.546 98.7188Z" fill="#FFD60A"/>
<path d="M482.533 62.0684L440.928 55.5821L422.329 15.1348C421.821 14.0274 420.986 13.1309 419.953 12.586C417.364 11.2149 414.218 12.3575 412.924 15.1348L394.325 55.5821L352.72 62.0684C351.573 62.2442 350.524 62.8243 349.721 63.7032C348.75 64.7735 348.215 66.2134 348.234 67.7065C348.252 69.1996 348.823 70.6238 349.819 71.6661L379.921 103.148L372.81 147.604C372.643 148.638 372.749 149.701 373.117 150.674C373.486 151.646 374.1 152.488 374.892 153.105C375.683 153.722 376.62 154.088 377.596 154.163C378.572 154.238 379.548 154.017 380.413 153.527L417.626 132.539L454.84 153.527C455.856 154.107 457.036 154.301 458.167 154.09C461.018 153.563 462.935 150.662 462.443 147.604L455.332 103.148L485.434 71.6661C486.253 70.8048 486.794 69.6797 486.958 68.4493C487.4 65.3731 485.401 62.5255 482.533 62.0684ZM442.665 98.7188L448.581 135.686L417.626 118.248L386.672 135.703L392.588 98.7364L367.549 72.545L402.158 67.1485L417.626 33.5215L433.095 67.1485L467.704 72.545L442.665 98.7188Z" fill="#FFD60A"/>
<path d="M442.665 98.7188L448.581 135.686L417.626 118.248L386.672 135.703L392.588 98.7364L367.549 72.545L402.158 67.1485L417.626 33.5215L433.095 67.1485L467.704 72.545L442.665 98.7188Z" fill="#FFD60A"/>
<path d="M647.921 62.0684L606.956 55.5821L588.644 15.1348C588.143 14.0274 587.321 13.1309 586.304 12.586C583.755 11.2149 580.657 12.3575 579.382 15.1348L561.07 55.5821L520.105 62.0684C518.975 62.2442 517.943 62.8243 517.152 63.7032C516.196 64.7735 515.67 66.2134 515.688 67.7065C515.706 69.1996 516.268 70.6238 517.249 71.6661L546.888 103.149L539.886 147.604C539.721 148.638 539.826 149.701 540.189 150.674C540.551 151.646 541.156 152.488 541.936 153.105C542.715 153.722 543.638 154.088 544.598 154.163C545.559 154.238 546.52 154.017 547.372 153.527L584.013 132.539L620.654 153.527C621.654 154.107 622.816 154.301 623.929 154.09C626.737 153.563 628.625 150.662 628.14 147.604L621.138 103.149L650.777 71.6661C651.584 70.8048 652.116 69.6798 652.277 68.4493C652.713 65.3731 650.745 62.5255 647.921 62.0684V62.0684ZM608.666 98.7188L614.491 135.686L584.013 118.248L553.535 135.703L559.36 98.7364L534.706 72.545L568.782 67.1485L584.013 33.5215L599.244 67.1485L633.32 72.545L608.666 98.7188Z" fill="#FFD60A"/>
<path d="M774.564 56.0052L774.79 56.4894L775.319 56.5705L817.561 63.0563C817.561 63.0564 817.562 63.0565 817.562 63.0566C819.895 63.4236 821.594 65.7344 821.218 68.3048L821.217 68.3153C821.079 69.3366 820.624 70.2646 819.941 70.9714L789.378 102.452L789.028 102.813L789.109 103.309L796.33 147.764L796.33 147.765C796.749 150.33 795.11 152.684 792.795 153.106L792.793 153.106C791.873 153.275 790.913 153.12 790.087 152.656L790.082 152.653L752.296 131.665L751.81 131.395L751.325 131.665L713.539 152.653L713.537 152.654C712.828 153.05 712.032 153.225 711.239 153.166C710.446 153.106 709.68 152.813 709.027 152.312C708.374 151.81 707.86 151.12 707.55 150.315C707.24 149.509 707.15 148.625 707.291 147.765L707.291 147.764L714.512 103.309L714.593 102.813L714.242 102.452L683.677 70.9695L683.677 70.9694C682.849 70.1162 682.366 68.9392 682.35 67.6939C682.334 66.4493 682.788 65.2589 683.594 64.382C684.263 63.6616 685.125 63.1975 686.054 63.0572L686.057 63.0568L728.302 56.5705L728.83 56.4894L729.056 56.0052L747.939 15.5626C747.939 15.5619 747.94 15.5613 747.94 15.5606C749.028 13.2641 751.618 12.3811 753.711 13.4727L753.712 13.4733C754.557 13.9128 755.253 14.6422 755.679 15.557L755.679 15.5579L774.564 56.0052ZM782.755 136.56L784.558 137.56L784.228 135.525L778.302 99.0548L803.375 73.2417L804.726 71.8509L802.81 71.5566L768.197 66.2412L752.716 33.0983L751.81 31.1586L750.904 33.0983L735.424 66.2412L700.811 71.5566L698.895 71.8508L700.245 73.2415L725.319 99.0722L719.393 135.543L719.062 137.579L720.866 136.577L751.811 119.392L782.755 136.56Z" fill="#FFD60A" stroke="#FFD60A" stroke-width="2"/>
</svg>
