<svg width="784" height="172" viewBox="0 0 784 172" fill="none" xmlns="http://www.w3.org/2000/svg">
<path d="M139.381 59.1786L100.411 53.0274L82.9899 14.6697C82.5141 13.6195 81.7313 12.7694 80.7644 12.2526C78.3393 10.9523 75.3923 12.0359 74.1798 14.6697L56.7592 53.0274L17.7891 59.1786C16.7147 59.3453 15.7324 59.8954 14.9803 60.7289C14.0711 61.7439 13.5701 63.1094 13.5873 64.5253C13.6046 65.9413 14.1388 67.2919 15.0724 68.2804L43.2678 98.1363L36.6065 140.295C36.4503 141.275 36.5502 142.284 36.8949 143.206C37.2396 144.128 37.8154 144.927 38.5568 145.512C39.2982 146.097 40.1757 146.444 41.0898 146.515C42.0038 146.586 42.9179 146.377 43.7282 145.912L78.5848 126.009L113.441 145.912C114.393 146.463 115.498 146.646 116.557 146.446C119.228 145.946 121.024 143.195 120.563 140.295L113.902 98.1363L142.097 68.2804C142.865 67.4636 143.371 66.3967 143.525 65.2298C143.939 62.3125 142.067 59.612 139.381 59.1786ZM102.037 93.9355L107.578 128.992L78.5848 112.456L49.5914 129.009L55.1322 93.9522L31.6796 69.1139L64.0958 63.9962L78.5848 32.1065L93.0739 63.9962L125.49 69.1139L102.037 93.9355Z" fill="#FFD60A"/>
<path d="M102.037 93.9355L107.578 128.992L78.5848 112.456L49.5914 129.009L55.1322 93.9522L31.6796 69.1139L64.0958 63.9962L78.5848 32.1065L93.0739 63.9962L125.49 69.1139L102.037 93.9355Z" fill="#FFD60A"/>
<path d="M294.406 59.1786L256.036 53.0274L238.883 14.6697C238.415 13.6195 237.644 12.7694 236.692 12.2526C234.304 10.9523 231.402 12.0359 230.209 14.6697L213.056 53.0274L174.685 59.1786C173.628 59.3453 172.66 59.8954 171.92 60.7289C171.025 61.7439 170.531 63.1094 170.548 64.5253C170.565 65.9413 171.091 67.2919 172.011 68.2804L199.772 98.1363L193.213 140.295C193.059 141.275 193.158 142.284 193.497 143.206C193.837 144.128 194.404 144.927 195.134 145.512C195.864 146.097 196.728 146.444 197.628 146.515C198.528 146.586 199.428 146.377 200.225 145.912L234.546 126.009L268.866 145.912C269.803 146.463 270.891 146.646 271.934 146.446C274.564 145.946 276.332 143.195 275.878 140.295L269.32 98.1363L297.081 68.2804C297.837 67.4636 298.335 66.3967 298.487 65.2298C298.895 62.3125 297.051 59.612 294.406 59.1786V59.1786ZM257.638 93.9355L263.093 128.992L234.546 112.456L205.998 129.009L211.454 93.9522L188.362 69.1139L220.28 63.9962L234.546 32.1065L248.812 63.9962L280.729 69.1139L257.638 93.9355Z" fill="#FFD60A"/>
<path d="M451.301 59.1786L412.331 53.0274L394.911 14.6697C394.435 13.6195 393.652 12.7694 392.685 12.2526C390.26 10.9523 387.313 12.0359 386.101 14.6697L368.68 53.0274L329.71 59.1786C328.636 59.3453 327.653 59.8954 326.901 60.7289C325.992 61.7439 325.491 63.1094 325.508 64.5253C325.526 65.9413 326.06 67.2919 326.993 68.2804L355.189 98.1363L348.527 140.295C348.371 141.275 348.471 142.284 348.816 143.206C349.161 144.128 349.736 144.927 350.478 145.512C351.219 146.097 352.097 146.444 353.011 146.515C353.925 146.586 354.839 146.377 355.649 145.912L390.506 126.009L425.362 145.912C426.314 146.463 427.419 146.646 428.478 146.446C431.149 145.946 432.945 143.195 432.484 140.295L425.823 98.1363L454.018 68.2804C454.786 67.4636 455.292 66.3967 455.446 65.2298C455.86 62.3125 453.987 59.612 451.301 59.1786V59.1786ZM413.958 93.9355L419.499 128.992L390.506 112.456L361.512 129.009L367.053 93.9522L343.6 69.1139L376.017 63.9962L390.506 32.1065L404.995 63.9962L437.411 69.1139L413.958 93.9355Z" fill="#FFD60A"/>
<path d="M606.327 59.1786L567.957 53.0274L550.804 14.6697C550.336 13.6195 549.565 12.7694 548.613 12.2526C546.225 10.9523 543.323 12.0359 542.129 14.6697L524.977 53.0274L486.606 59.1786C485.548 59.3453 484.581 59.8954 483.841 60.7289C482.945 61.7439 482.452 63.1094 482.469 64.5253C482.486 65.9413 483.012 67.2919 483.931 68.2804L511.693 98.1363L505.134 140.295C504.98 141.275 505.079 142.284 505.418 143.206C505.758 144.128 506.324 144.927 507.054 145.512C507.785 146.097 508.649 146.444 509.549 146.515C510.448 146.586 511.348 146.377 512.146 145.912L546.467 126.009L580.787 145.912C581.724 146.463 582.812 146.646 583.855 146.446C586.484 145.946 588.253 143.195 587.799 140.295L581.24 98.1363L609.002 68.2804C609.758 67.4636 610.256 66.3967 610.407 65.2298C610.816 62.3125 608.972 59.612 606.327 59.1786V59.1786ZM569.559 93.9355L575.014 128.992L546.467 112.456L517.919 129.009L523.375 93.9522L500.283 69.1139L532.201 63.9962L546.467 32.1065L560.733 63.9962L592.65 69.1139L569.559 93.9355Z" fill="#FFD60A"/>
<path d="M724.889 53.4461L725.114 53.9331L725.643 54.0155L765.21 60.1662C765.21 60.1663 765.211 60.1664 765.212 60.1665C767.351 60.5077 768.934 62.6636 768.585 65.087L768.583 65.0974C768.455 66.0579 768.033 66.9286 767.402 67.5901L738.774 97.4442L738.43 97.8034L738.509 98.2947L745.272 140.453L745.273 140.454C745.663 142.873 744.134 145.071 742.011 145.462L742.009 145.463C741.165 145.62 740.283 145.476 739.523 145.043L739.519 145.041L704.126 125.137L703.636 124.861L703.145 125.137L667.753 145.041L667.751 145.042C667.098 145.411 666.367 145.574 665.64 145.518C664.912 145.463 664.207 145.19 663.605 144.722C663.003 144.254 662.526 143.608 662.239 142.851C661.952 142.094 661.868 141.263 661.999 140.454L661.999 140.453L668.763 98.2947L668.841 97.8034L668.497 97.4442L639.868 67.5883L639.868 67.5882C639.102 66.7896 638.653 65.6848 638.638 64.513C638.624 63.3418 639.045 62.2242 639.791 61.4031C640.409 60.7288 641.203 60.2974 642.056 60.1671L642.058 60.1667L681.628 54.0155L682.158 53.9331L682.382 53.4461L700.069 15.0932C700.069 15.0924 700.069 15.0917 700.07 15.0909C701.079 12.9353 703.464 12.1245 705.382 13.1369L705.383 13.1375C706.161 13.5471 706.805 14.2286 707.2 15.0877L707.2 15.0885L724.889 53.4461ZM734.062 128.834L728.515 94.2686L751.984 69.8062L753.313 68.4207L751.416 68.1258L719.031 63.0905L704.544 31.6876L703.636 29.7194L702.728 31.6876L688.24 63.0905L655.855 68.1258L653.959 68.4206L655.287 69.806L678.756 94.285L673.209 128.851L672.88 130.896L674.686 129.881L703.636 113.603L732.585 129.864L734.391 130.878L734.062 128.834Z" fill="#FFD60A" stroke="#FFD60A" stroke-width="2"/>
</svg>
