<svg width="822" height="165" viewBox="0 0 822 165" fill="none" xmlns="http://www.w3.org/2000/svg">
<path d="M146.731 56.8959L105.872 50.9501L87.607 13.8735C87.1082 12.8583 86.2874 12.0366 85.2736 11.537C82.731 10.2802 79.6412 11.3276 78.3699 13.8735L60.1048 50.9501L19.2457 56.8959C18.1193 57.0571 17.0893 57.5888 16.3008 58.3945C15.3475 59.3755 14.8222 60.6955 14.8403 62.0641C14.8584 63.4328 15.4184 64.7383 16.3974 65.6938L45.9594 94.5527L38.9752 135.303C38.8115 136.251 38.9162 137.226 39.2777 138.117C39.6391 139.009 40.2427 139.781 41.0201 140.346C41.7975 140.912 42.7175 141.247 43.6759 141.316C44.6342 141.384 45.5926 141.183 46.4422 140.733L82.9885 121.494L119.535 140.733C120.532 141.265 121.691 141.442 122.802 141.249C125.602 140.766 127.484 138.107 127.002 135.303L120.017 94.5527L149.58 65.6938C150.384 64.9042 150.915 63.873 151.076 62.745C151.511 59.9252 149.547 57.3149 146.731 56.8959ZM107.578 90.4921L113.387 124.378L82.9885 108.394L52.5896 124.394L58.399 90.5082L33.8095 66.4994L67.7971 61.5527L82.9885 30.728L98.1799 61.5527L132.167 66.4994L107.578 90.4921Z" fill="#FFD60A"/>
<path d="M107.578 90.4921L113.387 124.378L82.9885 108.394L52.5896 124.394L58.399 90.5082L33.8095 66.4994L67.7971 61.5527L82.9885 30.728L98.1799 61.5527L132.167 66.4994L107.578 90.4921Z" fill="#FFD60A"/>
<path d="M309.271 56.8959L269.041 50.9501L251.057 13.8735C250.566 12.8583 249.758 12.0366 248.759 11.537C246.256 10.2802 243.214 11.3276 241.962 13.8735L223.978 50.9501L183.747 56.8959C182.638 57.0571 181.624 57.5888 180.848 58.3945C179.909 59.3756 179.392 60.6955 179.41 62.0641C179.427 63.4328 179.979 64.7383 180.943 65.6938L210.05 94.5527L203.173 135.303C203.012 136.251 203.115 137.226 203.471 138.117C203.827 139.009 204.421 139.781 205.187 140.346C205.952 140.912 206.858 141.247 207.802 141.316C208.745 141.384 209.689 141.183 210.525 140.733L246.509 121.494L282.493 140.733C283.476 141.265 284.617 141.442 285.71 141.249C288.467 140.766 290.321 138.107 289.845 135.303L282.969 94.5527L312.076 65.6938C312.868 64.9042 313.391 63.873 313.55 62.7451C313.977 59.9252 312.044 57.3149 309.271 56.8959V56.8959ZM270.721 90.4921L276.441 124.378L246.509 108.394L216.578 124.394L222.298 90.5082L198.087 66.4995L231.552 61.5527L246.509 30.728L261.467 61.5527L294.932 66.4995L270.721 90.4921Z" fill="#FFD60A"/>
<path d="M473.772 56.8959L432.913 50.9501L414.648 13.8735C414.149 12.8583 413.328 12.0366 412.315 11.537C409.772 10.2802 406.682 11.3276 405.411 13.8735L387.146 50.9501L346.287 56.8959C345.16 57.0571 344.13 57.5888 343.342 58.3945C342.389 59.3756 341.863 60.6955 341.881 62.0641C341.899 63.4328 342.459 64.7383 343.438 65.6938L373 94.5527L366.016 135.303C365.852 136.251 365.957 137.226 366.319 138.117C366.68 139.009 367.284 139.781 368.061 140.346C368.839 140.912 369.759 141.247 370.717 141.316C371.675 141.384 372.634 141.183 373.483 140.733L410.029 121.494L446.576 140.733C447.573 141.265 448.732 141.442 449.843 141.249C452.643 140.766 454.525 138.107 454.043 135.303L447.059 94.5527L476.621 65.6938C477.425 64.9042 477.956 63.873 478.117 62.7451C478.552 59.9252 476.588 57.3149 473.772 56.8959V56.8959ZM434.619 90.4921L440.428 124.378L410.029 108.394L379.631 124.394L385.44 90.5082L360.851 66.4995L394.838 61.5527L410.029 30.728L425.221 61.5527L459.208 66.4995L434.619 90.4921Z" fill="#FFD60A"/>
<path d="M636.311 56.8959L596.081 50.9501L578.097 13.8735C577.606 12.8583 576.798 12.0366 575.799 11.537C573.296 10.2802 570.254 11.3276 569.002 13.8735L551.018 50.9501L510.787 56.8959C509.678 57.0571 508.664 57.5888 507.888 58.3945C506.949 59.3756 506.432 60.6955 506.45 62.0641C506.467 63.4328 507.019 64.7383 507.983 65.6938L537.09 94.5527L530.213 135.303C530.052 136.251 530.155 137.226 530.511 138.117C530.867 139.009 531.461 139.781 532.227 140.346C532.992 140.912 533.898 141.247 534.842 141.316C535.785 141.384 536.729 141.183 537.565 140.733L573.549 121.494L609.533 140.733C610.516 141.265 611.657 141.442 612.75 141.249C615.507 140.766 617.361 138.107 616.885 135.303L610.009 94.5527L639.116 65.6938C639.908 64.9042 640.431 63.873 640.59 62.7451C641.017 59.9252 639.084 57.3149 636.311 56.8959V56.8959ZM597.761 90.4921L603.481 124.378L573.549 108.394L543.618 124.394L549.338 90.5082L525.127 66.4995L558.592 61.5527L573.549 30.728L588.507 61.5527L621.972 66.4995L597.761 90.4921Z" fill="#FFD60A"/>
<path d="M760.68 51.3975L760.914 51.8657L761.432 51.94L802.917 57.8854C802.918 57.8855 802.918 57.8856 802.919 57.8856C805.252 58.2284 806.837 60.3449 806.486 62.5905L806.484 62.6017C806.353 63.5045 805.921 64.335 805.259 64.9747L775.244 93.8318L774.861 94.2003L774.952 94.7241L782.044 135.475L782.044 135.475C782.436 137.719 780.908 139.87 778.597 140.263L778.595 140.263C777.679 140.42 776.726 140.275 775.912 139.848L775.907 139.846L738.799 120.606L738.339 120.368L737.878 120.606L700.77 139.846L700.768 139.846C700.07 140.21 699.281 140.374 698.491 140.318C697.702 140.263 696.945 139.99 696.307 139.533C695.669 139.076 695.175 138.453 694.88 137.737C694.585 137.02 694.5 136.237 694.633 135.476L694.634 135.475L701.725 94.7241L701.816 94.2003L701.433 93.8318L671.416 64.9729L671.416 64.9729C670.613 64.2012 670.157 63.1498 670.142 62.0507C670.127 60.9521 670.555 59.8899 671.336 59.0979C671.984 58.4459 672.83 58.0164 673.755 57.8862L673.757 57.8858L715.245 51.94L715.763 51.8657L715.997 51.3975L734.541 14.3257C734.541 14.325 734.542 14.3243 734.542 14.3237C735.585 12.2701 738.127 11.4167 740.221 12.4362L740.222 12.4367C741.055 12.8408 741.726 13.5041 742.133 14.32L742.134 14.3208L760.68 51.3975ZM768.745 125.266L770.536 126.194L770.19 124.207L764.383 90.8446L788.967 67.2205L790.445 65.8004L788.416 65.5096L754.424 60.6371L739.233 30.2805L738.339 28.4934L737.444 30.2805L722.254 60.6371L688.261 65.5096L686.233 65.8003L687.71 67.2203L712.295 90.8605L706.487 124.223L706.141 126.211L707.932 125.282L738.339 109.52L768.745 125.266Z" fill="#FFD60A" stroke="#FFD60A" stroke-width="2"/>
</svg>
