<svg width="787" height="192" viewBox="0 0 787 192" fill="none" xmlns="http://www.w3.org/2000/svg">
<path d="M139.915 65.8675L100.796 58.9841L83.308 16.0612C82.8304 14.8859 82.0446 13.9346 81.0739 13.3563C78.6396 11.9013 75.6813 13.1138 74.4641 16.0612L56.9766 58.9841L17.857 65.8675C16.7785 66.054 15.7924 66.6696 15.0374 67.6023C14.1247 68.7381 13.6218 70.2661 13.6391 71.8506C13.6564 73.4351 14.1926 74.9465 15.1299 76.0526L43.4334 109.462L36.7466 156.638C36.5898 157.736 36.6901 158.864 37.0361 159.896C37.3822 160.928 37.9601 161.822 38.7044 162.476C39.4487 163.131 40.3296 163.52 41.2471 163.599C42.1647 163.678 43.0822 163.445 43.8957 162.925L78.8861 140.652L113.876 162.925C114.832 163.54 115.941 163.745 117.004 163.521C119.685 162.962 121.488 159.884 121.026 156.638L114.339 109.462L142.642 76.0526C143.413 75.1386 143.921 73.9447 144.075 72.6389C144.491 69.3745 142.611 66.3525 139.915 65.8675ZM102.429 104.761L107.991 143.991L78.8861 125.486L49.7813 144.009L55.3434 104.78L31.8008 76.9853L64.3414 71.2585L78.8861 35.5733L93.4308 71.2585L125.971 76.9853L102.429 104.761Z" fill="#FFD60A"/>
<path d="M102.429 104.761L107.991 143.991L78.8861 125.486L49.7813 144.009L55.3434 104.78L31.8008 76.9853L64.3414 71.2585L78.8861 35.5733L93.4308 71.2585L125.971 76.9853L102.429 104.761Z" fill="#FFD60A"/>
<path d="M295.536 65.8675L257.018 58.9842L239.8 16.0612C239.329 14.8859 238.556 13.9346 237.6 13.3563C235.203 11.9013 232.29 13.1138 231.092 16.0612L213.873 58.9842L175.356 65.8675C174.294 66.054 173.323 66.6696 172.579 67.6023C171.681 68.7381 171.186 70.2661 171.203 71.8506C171.22 73.4351 171.748 74.9465 172.67 76.0526L200.539 109.462L193.955 156.638C193.8 157.736 193.899 158.864 194.24 159.896C194.58 160.928 195.149 161.822 195.882 162.476C196.615 163.131 197.482 163.52 198.386 163.599C199.289 163.678 200.193 163.445 200.994 162.925L235.446 140.652L269.898 162.925C270.838 163.54 271.931 163.745 272.977 163.521C275.617 162.962 277.392 159.884 276.937 156.638L270.353 109.462L298.221 76.0526C298.98 75.1386 299.48 73.9447 299.632 72.6389C300.042 69.3745 298.191 66.3525 295.536 65.8675V65.8675ZM258.626 104.761L264.103 143.991L235.446 125.486L206.789 144.009L212.265 104.78L189.085 76.9853L221.125 71.2585L235.446 35.5733L249.767 71.2585L281.807 76.9853L258.626 104.761Z" fill="#FFD60A"/>
<path d="M453.033 65.8675L413.914 58.9842L396.426 16.0612C395.949 14.8859 395.163 13.9346 394.192 13.3563C391.758 11.9013 388.799 13.1138 387.582 16.0612L370.095 58.9842L330.975 65.8675C329.897 66.054 328.911 66.6696 328.156 67.6023C327.243 68.7381 326.74 70.2661 326.757 71.8506C326.775 73.4351 327.311 74.9465 328.248 76.0526L356.552 109.462L349.865 156.638C349.708 157.736 349.808 158.864 350.154 159.896C350.5 160.928 351.078 161.822 351.823 162.476C352.567 163.131 353.448 163.52 354.365 163.599C355.283 163.678 356.2 163.445 357.014 162.925L392.004 140.652L426.995 162.925C427.95 163.54 429.059 163.745 430.122 163.521C432.803 162.962 434.606 159.884 434.144 156.638L427.457 109.462L455.76 76.0526C456.531 75.1386 457.039 73.9447 457.193 72.6389C457.609 69.3745 455.73 66.3525 453.033 65.8675V65.8675ZM415.547 104.761L421.109 143.991L392.004 125.486L362.899 144.009L368.462 104.78L344.919 76.9853L377.46 71.2585L392.004 35.5733L406.549 71.2585L439.09 76.9853L415.547 104.761Z" fill="#FFD60A"/>
<path d="M608.653 65.8675L570.135 58.9842L552.917 16.0612C552.447 14.8859 551.673 13.9346 550.717 13.3563C548.32 11.9013 545.407 13.1138 544.209 16.0612L526.991 58.9842L488.473 65.8675C487.411 66.054 486.44 66.6696 485.697 67.6023C484.798 68.7381 484.303 70.2661 484.32 71.8506C484.337 73.4351 484.865 74.9465 485.788 76.0526L513.656 109.462L507.072 156.638C506.917 157.736 507.016 158.864 507.357 159.896C507.698 160.928 508.267 161.822 508.999 162.476C509.732 163.131 510.6 163.52 511.503 163.599C512.406 163.678 513.31 163.445 514.111 162.925L548.563 140.652L583.015 162.925C583.956 163.54 585.048 163.745 586.095 163.521C588.734 162.962 590.509 159.884 590.054 156.638L583.47 109.462L611.338 76.0526C612.097 75.1386 612.597 73.9447 612.749 72.6389C613.159 69.3745 611.308 66.3525 608.653 65.8675V65.8675ZM571.743 104.761L577.22 143.991L548.563 125.486L519.906 144.009L525.382 104.78L502.202 76.9853L534.242 71.2585L548.563 35.5733L562.884 71.2585L594.924 76.9853L571.743 104.761Z" fill="#FFD60A"/>
<path d="M727.869 59.8754L727.659 59.3664L709.902 16.4434L709.902 16.4426C709.49 15.4452 708.828 14.6743 708.052 14.2188L708.05 14.2181C706.207 13.133 703.822 13.9389 702.769 16.4459C702.769 16.4465 702.769 16.4472 702.768 16.4479L685.014 59.3664L684.803 59.8754L684.26 59.9695L644.539 66.8528L644.536 66.8533C643.707 66.9946 642.912 67.4666 642.279 68.236C641.513 69.175 641.07 70.4695 641.085 71.8395C641.101 73.2103 641.573 74.4887 642.357 75.4004L642.357 75.4005L671.096 108.81L671.393 109.155L671.328 109.604L664.538 156.781L664.538 156.782C664.401 157.725 664.49 158.694 664.789 159.574C665.089 160.454 665.581 161.192 666.191 161.72C666.799 162.247 667.497 162.543 668.203 162.603C668.908 162.663 669.624 162.488 670.275 162.078L670.276 162.077L705.805 139.804L706.336 139.471L706.867 139.804L742.396 162.077L742.401 162.08C743.156 162.56 744.018 162.712 744.838 162.542L744.839 162.542C746.911 162.116 748.549 159.647 748.134 156.781L748.134 156.781L741.344 109.604L741.28 109.155L741.576 108.81L770.313 75.4024L727.869 59.8754ZM727.869 59.8754L728.412 59.9695M727.869 59.8754L728.412 59.9695M728.412 59.9695L768.13 66.8522M728.412 59.9695L768.13 66.8522M710.826 16.0612C710.341 14.8859 709.543 13.9346 708.558 13.3563L710.826 16.0612ZM710.826 16.0612L728.583 58.9841L710.826 16.0612ZM768.13 66.8522C768.13 66.8523 768.131 66.8524 768.132 66.8525C770.214 67.2228 771.908 69.6366 771.536 72.5106L771.535 72.52C771.401 73.6416 770.96 74.6465 770.315 75.4005L768.13 66.8522ZM735.358 144.838L737.186 145.983L736.878 143.848L731.296 105.069L754.904 77.6376L756.054 76.3011L754.317 76L721.818 70.3673L707.26 35.1909L706.336 32.9582L705.412 35.1909L690.854 70.3673L658.356 76L656.619 76.301L657.768 77.6374L681.377 105.087L675.794 143.867L675.486 146.003L677.315 144.857L706.336 126.666L735.358 144.838Z" fill="#FFD60A" stroke="#FFD60A" stroke-width="2"/>
</svg>
