<svg width="836" height="167" viewBox="0 0 836 167" fill="none" xmlns="http://www.w3.org/2000/svg">
<path d="M149.202 57.9101L107.645 51.9368L89.0682 14.6886C88.5608 13.6688 87.7261 12.8432 86.6949 12.3414C84.1089 11.0787 80.9663 12.1309 79.6733 14.6886L61.0964 51.9368L19.5397 57.9101C18.394 58.072 17.3465 58.6061 16.5445 59.4155C15.5749 60.4012 15.0406 61.7272 15.0591 63.1022C15.0775 64.4772 15.6471 65.7887 16.6427 66.7486L46.7095 95.741L39.6061 136.68C39.4395 137.632 39.5461 138.612 39.9137 139.507C40.2813 140.403 40.8952 141.178 41.6859 141.746C42.4765 142.314 43.4123 142.652 44.387 142.721C45.3617 142.789 46.3364 142.587 47.2005 142.135L84.3708 122.807L121.541 142.135C122.556 142.669 123.734 142.848 124.864 142.653C127.711 142.168 129.626 139.497 129.135 136.68L122.032 95.741L152.099 66.7486C152.917 65.9554 153.457 64.9194 153.621 63.7862C154.063 60.9534 152.066 58.331 149.202 57.9101ZM109.38 91.6617L115.289 125.705L84.3708 109.646L53.4528 125.721L59.3615 91.6778L34.3522 67.558L68.92 62.5884L84.3708 31.6211L99.8215 62.5884L134.389 67.558L109.38 91.6617Z" fill="#FFD60A"/>
<path d="M109.38 91.6617L115.289 125.705L84.3708 109.646L53.4528 125.721L59.3615 91.6778L34.3522 67.558L68.92 62.5884L84.3708 31.6211L99.8215 62.5884L134.389 67.558L109.38 91.6617Z" fill="#FFD60A"/>
<path d="M314.517 57.9101L273.6 51.9368L255.308 14.6886C254.809 13.6688 253.987 12.8432 252.972 12.3414C250.425 11.0787 247.331 12.1309 246.058 14.6886L227.767 51.9368L186.85 57.9101C185.722 58.072 184.69 58.6062 183.901 59.4155C182.946 60.4012 182.42 61.7272 182.438 63.1022C182.456 64.4772 183.017 65.7887 183.997 66.7486L213.601 95.741L206.607 136.68C206.443 137.632 206.548 138.612 206.91 139.507C207.272 140.403 207.877 141.178 208.655 141.746C209.434 142.314 210.355 142.652 211.315 142.721C212.274 142.789 213.234 142.587 214.085 142.135L250.683 122.807L287.282 142.135C288.281 142.669 289.441 142.848 290.553 142.653C293.357 142.168 295.243 139.497 294.759 136.68L287.765 95.741L317.369 66.7486C318.175 65.9554 318.707 64.9194 318.868 63.7862C319.303 60.9534 317.337 58.331 314.517 57.9101V57.9101ZM275.308 91.6617L281.126 125.705L250.683 109.646L220.241 125.721L226.059 91.6779L201.434 67.558L235.47 62.5884L250.683 31.6211L265.896 62.5884L299.932 67.558L275.308 91.6617Z" fill="#FFD60A"/>
<path d="M481.827 57.9101L440.27 51.9368L421.693 14.6886C421.186 13.6688 420.351 12.8432 419.32 12.3414C416.734 11.0787 413.591 12.1309 412.298 14.6886L393.721 51.9368L352.165 57.9101C351.019 58.072 349.971 58.6062 349.169 59.4155C348.2 60.4012 347.666 61.7272 347.684 63.1022C347.702 64.4772 348.272 65.7887 349.268 66.7486L379.335 95.741L372.231 136.68C372.065 137.632 372.171 138.612 372.539 139.507C372.906 140.403 373.52 141.178 374.311 141.746C375.102 142.314 376.037 142.652 377.012 142.721C377.987 142.789 378.961 142.587 379.826 142.135L416.996 122.807L454.166 142.135C455.181 142.669 456.359 142.848 457.489 142.653C460.336 142.168 462.251 139.497 461.76 136.68L454.657 95.741L484.724 66.7486C485.542 65.9554 486.082 64.9194 486.246 63.7862C486.688 60.9534 484.691 58.331 481.827 57.9101V57.9101ZM442.005 91.6617L447.914 125.705L416.996 109.646L386.078 125.721L391.986 91.6779L366.977 67.558L401.545 62.5884L416.996 31.6211L432.447 62.5884L467.014 67.558L442.005 91.6617Z" fill="#FFD60A"/>
<path d="M647.142 57.9101L606.225 51.9368L587.933 14.6886C587.434 13.6688 586.612 12.8432 585.597 12.3414C583.05 11.0787 579.956 12.1309 578.683 14.6886L560.392 51.9368L519.475 57.9101C518.347 58.072 517.315 58.6062 516.526 59.4155C515.571 60.4012 515.045 61.7272 515.063 63.1022C515.081 64.4772 515.642 65.7887 516.622 66.7486L546.226 95.741L539.232 136.68C539.068 137.632 539.173 138.612 539.535 139.507C539.897 140.403 540.502 141.178 541.28 141.746C542.059 142.314 542.98 142.652 543.94 142.721C544.899 142.789 545.859 142.587 546.71 142.135L583.308 122.807L619.907 142.135C620.906 142.669 622.066 142.848 623.178 142.653C625.982 142.168 627.868 139.497 627.384 136.68L620.39 95.741L649.994 66.7486C650.8 65.9554 651.332 64.9194 651.493 63.7862C651.928 60.9534 649.962 58.331 647.142 57.9101V57.9101ZM607.933 91.6617L613.751 125.705L583.308 109.646L552.866 125.721L558.684 91.6779L534.059 67.558L568.095 62.5884L583.308 31.6211L598.521 62.5884L632.557 67.558L607.933 91.6617Z" fill="#FFD60A"/>
<path d="M789.15 95.741L796.363 136.68C796.862 139.497 794.917 142.168 792.026 142.653C790.879 142.848 789.682 142.669 788.652 142.135L750.91 122.807L713.168 142.135C712.29 142.587 711.301 142.789 710.311 142.721C709.321 142.652 708.371 142.314 707.568 141.746C706.765 141.178 706.142 140.403 705.769 139.507C705.395 138.612 705.287 137.632 705.456 136.68L712.669 95.741L682.14 66.7486C681.129 65.7887 680.55 64.4772 680.532 63.1022C680.513 61.7272 681.056 60.4012 682.04 59.4155C682.854 58.6062 683.918 58.072 685.081 57.9101L789.15 95.741ZM789.15 95.741L819.68 66.7486L789.15 95.741ZM773.65 52.3886L773.886 52.8538L774.402 52.9269L816.595 58.8998C816.595 58.8998 816.596 58.8999 816.596 58.8999C818.988 59.2465 820.594 61.3832 820.238 63.6298L820.236 63.6411C820.103 64.5463 819.664 65.3809 818.989 66.0253L788.462 95.0159L788.072 95.3857L788.166 95.9145L795.378 136.853L795.378 136.854C795.776 139.098 794.23 141.269 791.86 141.667L791.858 141.667C790.92 141.826 789.945 141.679 789.112 141.247L789.108 141.245L751.366 121.917L750.91 121.684L750.454 121.917L712.712 141.245L712.71 141.246C711.996 141.613 711.189 141.779 710.38 141.723C709.572 141.667 708.798 141.391 708.146 140.93C707.494 140.469 706.992 139.842 706.692 139.122C706.392 138.403 706.305 137.618 706.441 136.855L706.441 136.853L713.654 95.9145L713.747 95.3857L713.358 95.0159L682.828 66.0235L682.828 66.0234C682.01 65.2462 681.547 64.19 681.532 63.0886C681.517 61.9878 681.95 60.9209 682.746 60.1234C683.408 59.4666 684.272 59.0323 685.219 58.9005L685.221 58.9002L727.417 52.9269L727.934 52.8538L728.169 52.3886L747.03 15.1453C747.03 15.1444 747.031 15.1436 747.031 15.1428C748.092 13.0791 750.69 12.2105 752.836 13.2426L752.837 13.2432C753.689 13.6513 754.373 14.3201 754.787 15.1395L754.787 15.1404L773.65 52.3886ZM777.382 92.0171L802.386 68.2833L803.888 66.8581L801.838 66.5679L767.255 61.6713L751.802 31.1691L750.91 29.4083L750.018 31.1691L734.565 61.6713L699.981 66.5679L697.933 66.858L699.433 68.2831L724.438 92.0331L718.531 125.547L718.182 127.527L719.972 126.611L750.91 110.77L781.848 126.595L783.637 127.51L783.288 125.531L777.382 92.0171Z" fill="#FFD60A" stroke="#FFD60A" stroke-width="2"/>
</svg>
