<svg width="852" height="163" viewBox="0 0 852 163" fill="none" xmlns="http://www.w3.org/2000/svg">
<path d="M151.5 56.5321L109.142 50.6985L90.2062 14.3217C89.689 13.3257 88.8382 12.5194 87.7872 12.0293C85.1512 10.7962 81.948 11.8238 80.6301 14.3217L61.6947 50.6985L19.3361 56.5321C18.1683 56.6902 17.1006 57.2119 16.2831 58.0023C15.2948 58.9649 14.7503 60.2599 14.769 61.6027C14.7878 62.9456 15.3684 64.2265 16.3832 65.1639L47.0302 93.4781L39.7897 133.459C39.6199 134.389 39.7285 135.346 40.1032 136.221C40.4779 137.095 41.1037 137.853 41.9096 138.407C42.7155 138.962 43.6693 139.292 44.6628 139.359C45.6564 139.426 46.6499 139.228 47.5307 138.787L85.4181 119.911L123.306 138.787C124.34 139.309 125.541 139.483 126.692 139.293C129.595 138.819 131.547 136.21 131.047 133.459L123.806 93.4781L154.453 65.1639C155.287 64.3892 155.838 63.3774 156.005 62.2708C156.455 59.5042 154.42 56.9431 151.5 56.5321ZM110.91 89.4941L116.933 122.741L85.4181 107.058L53.9037 122.757L59.9263 89.51L34.4344 65.9543L69.6692 61.1009L85.4181 30.858L101.167 61.1009L136.402 65.9543L110.91 89.4941Z" fill="#FFD60A"/>
<path d="M110.91 89.4941L116.933 122.741L85.4181 107.058L53.9037 122.757L59.9263 89.51L34.4344 65.9543L69.6692 61.1009L85.4181 30.858L101.167 61.1009L136.402 65.9543L110.91 89.4941Z" fill="#FFD60A"/>
<path d="M320.005 56.5321L278.298 50.6985L259.654 14.3217C259.145 13.3257 258.307 12.5194 257.272 12.0293C254.677 10.7962 251.523 11.8238 250.225 14.3217L231.581 50.6985L189.874 56.5321C188.724 56.6902 187.673 57.2119 186.868 58.0023C185.895 58.9649 185.359 60.2599 185.377 61.6027C185.396 62.9456 185.968 64.2265 186.967 65.1639L217.142 93.4781L210.013 133.459C209.846 134.389 209.953 135.346 210.322 136.221C210.691 137.095 211.307 137.853 212.1 138.407C212.894 138.962 213.833 139.292 214.811 139.359C215.79 139.426 216.768 139.228 217.635 138.787L254.94 119.911L292.244 138.787C293.263 139.309 294.445 139.483 295.579 139.293C298.437 138.819 300.359 136.21 299.866 133.459L292.737 93.4781L322.912 65.1639C323.734 64.3892 324.276 63.3774 324.44 62.2708C324.884 59.5042 322.88 56.9431 320.005 56.5321V56.5321ZM280.039 89.4942L285.969 122.741L254.94 107.058L223.91 122.757L229.84 89.51L204.74 65.9543L239.433 61.1009L254.94 30.858L270.446 61.1009L305.139 65.9543L280.039 89.4942Z" fill="#FFD60A"/>
<path d="M490.543 56.5321L448.185 50.6985L429.249 14.3217C428.732 13.3257 427.881 12.5194 426.83 12.0293C424.194 10.7962 420.991 11.8238 419.673 14.3217L400.738 50.6985L358.379 56.5321C357.211 56.6902 356.144 57.2119 355.326 58.0023C354.338 58.9649 353.793 60.2599 353.812 61.6027C353.831 62.9456 354.411 64.2265 355.426 65.1639L386.073 93.4781L378.833 133.459C378.663 134.389 378.771 135.346 379.146 136.221C379.521 137.095 380.147 137.853 380.953 138.407C381.758 138.962 382.712 139.292 383.706 139.359C384.699 139.426 385.693 139.228 386.574 138.787L424.461 119.911L462.349 138.787C463.383 139.309 464.584 139.483 465.735 139.293C468.638 138.819 470.59 136.21 470.09 133.459L462.849 93.4781L493.496 65.1639C494.33 64.3892 494.881 63.3774 495.048 62.2708C495.498 59.5042 493.463 56.9431 490.543 56.5321V56.5321ZM449.953 89.4942L455.976 122.741L424.461 107.058L392.947 122.757L398.969 89.51L373.477 65.9543L408.712 61.1009L424.461 30.858L440.21 61.1009L475.445 65.9543L449.953 89.4942Z" fill="#FFD60A"/>
<path d="M659.048 56.5321L617.341 50.6985L598.697 14.3217C598.188 13.3257 597.35 12.5194 596.315 12.0293C593.72 10.7962 590.566 11.8238 589.268 14.3217L570.624 50.6985L528.917 56.5321C527.767 56.6902 526.716 57.2119 525.911 58.0023C524.938 58.9649 524.402 60.2599 524.42 61.6027C524.439 62.9456 525.011 64.2265 526.01 65.1639L556.185 93.4781L549.056 133.459C548.889 134.389 548.996 135.346 549.365 136.221C549.734 137.095 550.35 137.853 551.143 138.407C551.937 138.962 552.876 139.292 553.854 139.359C554.833 139.426 555.811 139.228 556.678 138.787L593.983 119.911L631.287 138.787C632.306 139.309 633.488 139.483 634.622 139.293C637.48 138.819 639.402 136.21 638.909 133.459L631.78 93.4781L661.955 65.1639C662.777 64.3892 663.319 63.3774 663.483 62.2708C663.927 59.5042 661.923 56.9431 659.048 56.5321V56.5321ZM619.082 89.4942L625.012 122.741L593.983 107.058L562.953 122.757L568.883 89.51L543.783 65.9543L578.476 61.1009L593.983 30.858L609.489 61.1009L644.182 65.9543L619.082 89.4942Z" fill="#FFD60A"/>
<path d="M788.022 51.1658L788.262 51.6203L788.772 51.6894L831.779 57.5226C831.779 57.5226 831.779 57.5226 831.779 57.5227C834.264 57.8673 835.857 59.9704 835.503 62.1077L835.501 62.1195C835.369 62.9877 834.928 63.7964 834.24 64.426L803.123 92.7384L802.712 93.1124L802.813 93.6589L810.164 133.64L810.165 133.641C810.559 135.776 809.027 137.91 806.568 138.306L806.566 138.306C805.597 138.463 804.589 138.317 803.733 137.891L803.728 137.889L765.258 119.013L764.818 118.797L764.377 119.013L725.907 137.889L725.905 137.89C725.171 138.252 724.338 138.417 723.502 138.361C722.666 138.305 721.869 138.032 721.201 137.58C720.533 137.127 720.024 136.516 719.722 135.822C719.421 135.128 719.335 134.374 719.47 133.642L719.471 133.64L726.823 93.6589L726.923 93.1124L726.512 92.7384L695.394 64.4242L695.393 64.4242C694.559 63.6651 694.096 62.6433 694.081 61.5886C694.066 60.5345 694.499 59.5033 695.31 58.7252C695.984 58.0835 696.872 57.6539 697.851 57.5233L697.853 57.523L740.864 51.6894L741.373 51.6203L741.613 51.1658L760.837 14.7939C760.838 14.7932 760.838 14.7926 760.838 14.7919C761.912 12.7904 764.579 11.9123 766.805 12.9376L766.806 12.9381C767.682 13.3405 768.377 13.9958 768.795 14.7881L768.795 14.7889L788.022 51.1658ZM797.8 122.56L791.786 89.86L817.258 66.6942L818.845 65.2516L816.72 64.9634L781.452 60.1791L765.702 30.3906L764.818 28.7187L763.934 30.3906L748.183 60.1791L712.915 64.9634L710.791 65.2515L712.376 66.6939L737.849 89.8756L731.835 122.576L731.475 124.529L733.259 123.654L764.818 108.172L796.377 123.639L798.16 124.512L797.8 122.56Z" fill="#FFD60A" stroke="#FFD60A" stroke-width="2"/>
</svg>
