<svg width="807" height="170" viewBox="0 0 807 170" fill="none" xmlns="http://www.w3.org/2000/svg">
<path d="M143.573 59.0626L103.431 52.9908L85.4861 15.1287C84.996 14.0921 84.1896 13.2529 83.1936 12.7428C80.6955 11.4593 77.66 12.5289 76.4109 15.1287L58.4662 52.9908L18.3237 59.0626C17.217 59.2271 16.2052 59.7701 15.4304 60.5929C14.4939 61.5947 13.9778 62.9426 13.9956 64.3403C14.0133 65.738 14.5636 67.0711 15.5253 68.0468L44.5689 97.5171L37.7072 139.131C37.5463 140.099 37.6492 141.094 38.0043 142.005C38.3594 142.915 38.9525 143.703 39.7162 144.281C40.48 144.858 41.3839 145.201 42.3254 145.271C43.267 145.341 44.2085 145.135 45.0432 144.676L80.9485 125.029L116.854 144.676C117.834 145.219 118.972 145.4 120.063 145.203C122.814 144.709 124.664 141.994 124.19 139.131L117.328 97.5171L146.372 68.0468C147.162 67.2405 147.684 66.1874 147.842 65.0356C148.269 62.1561 146.34 59.4904 143.573 59.0626ZM105.107 93.3705L110.814 127.975L80.9485 111.652L51.0828 127.991L56.7903 93.387L32.6321 68.8696L66.0235 63.818L80.9485 32.3402L95.8735 63.818L129.265 68.8696L105.107 93.3705Z" fill="#FFD60A"/>
<path d="M105.107 93.3705L110.814 127.975L80.9485 111.652L51.0828 127.991L56.7903 93.387L32.6321 68.8696L66.0235 63.818L80.9485 32.3402L95.8735 63.818L129.265 68.8696L105.107 93.3705Z" fill="#FFD60A"/>
<path d="M303.262 59.0626L263.737 52.9908L246.069 15.1287C245.586 14.0921 244.792 13.2529 243.812 12.7428C241.352 11.4593 238.363 12.5289 237.133 15.1287L219.465 52.9908L179.94 59.0626C178.85 59.2271 177.854 59.7701 177.091 60.5929C176.169 61.5947 175.661 62.9426 175.678 64.3403C175.696 65.738 176.237 67.0711 177.184 68.0468L205.781 97.5171L199.025 139.131C198.867 140.099 198.968 141.095 199.318 142.005C199.667 142.915 200.251 143.703 201.003 144.281C201.755 144.858 202.645 145.201 203.572 145.271C204.499 145.341 205.426 145.135 206.248 144.676L241.601 125.029L276.954 144.676C277.919 145.219 279.04 145.4 280.114 145.203C282.823 144.709 284.644 141.994 284.177 139.131L277.421 97.5171L306.018 68.0468C306.796 67.2406 307.31 66.1875 307.465 65.0356C307.886 62.1561 305.987 59.4904 303.262 59.0626V59.0626ZM265.388 93.3705L271.007 127.975L241.601 111.652L212.195 127.991L217.815 93.387L194.028 68.8696L226.906 63.818L241.601 32.3403L256.296 63.818L289.174 68.8696L265.388 93.3705Z" fill="#FFD60A"/>
<path d="M464.879 59.0626L424.736 52.9908L406.792 15.1287C406.302 14.0921 405.495 13.2529 404.499 12.7428C402.001 11.4593 398.966 12.5289 397.717 15.1287L379.772 52.9908L339.629 59.0626C338.523 59.2271 337.511 59.7701 336.736 60.5929C335.8 61.5947 335.283 62.9426 335.301 64.3403C335.319 65.738 335.869 67.0711 336.831 68.0468L365.875 97.5171L359.013 139.131C358.852 140.099 358.955 141.095 359.31 142.005C359.665 142.915 360.258 143.703 361.022 144.281C361.786 144.858 362.69 145.201 363.631 145.271C364.573 145.341 365.514 145.135 366.349 144.676L402.254 125.029L438.159 144.676C439.14 145.219 440.278 145.4 441.369 145.203C444.12 144.709 445.97 141.994 445.495 139.131L438.634 97.5171L467.677 68.0468C468.468 67.2406 468.99 66.1875 469.148 65.0356C469.575 62.1561 467.646 59.4904 464.879 59.0626V59.0626ZM426.412 93.3705L432.12 127.975L402.254 111.652L372.388 127.991L378.096 93.387L353.938 68.8696L387.329 63.818L402.254 32.3403L417.179 63.818L450.571 68.8696L426.412 93.3705Z" fill="#FFD60A"/>
<path d="M624.568 59.0626L585.043 52.9908L567.374 15.1287C566.892 14.0921 566.098 13.2529 565.117 12.7428C562.658 11.4593 559.669 12.5289 558.439 15.1287L540.77 52.9908L501.245 59.0626C500.156 59.2271 499.159 59.7701 498.397 60.5929C497.474 61.5947 496.966 62.9426 496.984 64.3403C497.001 65.738 497.543 67.0711 498.49 68.0468L527.087 97.5171L520.331 139.131C520.172 140.099 520.274 141.095 520.623 142.005C520.973 142.915 521.557 143.703 522.309 144.281C523.061 144.858 523.951 145.201 524.878 145.271C525.805 145.341 526.732 145.135 527.554 144.676L562.907 125.029L598.26 144.676C599.225 145.219 600.346 145.4 601.42 145.203C604.128 144.709 605.95 141.994 605.483 139.131L598.727 97.5171L627.323 68.0468C628.102 67.2406 628.615 66.1875 628.771 65.0356C629.191 62.1561 627.292 59.4904 624.568 59.0626V59.0626ZM586.693 93.3705L592.313 127.975L562.907 111.652L533.5 127.991L539.12 93.387L515.334 68.8696L548.211 63.818L562.907 32.3403L577.602 63.818L610.48 68.8696L586.693 93.3705Z" fill="#FFD60A"/>
<path d="M746.733 53.4245L746.963 53.9019L747.487 53.9799L788.243 60.0512C788.244 60.0513 788.245 60.0514 788.245 60.0515C790.498 60.3957 792.092 62.543 791.739 64.8868L791.738 64.8976C791.608 65.8334 791.177 66.6877 790.527 67.3413L761.038 96.8097L760.674 97.174L760.759 97.6822L767.726 139.296L767.726 139.297C768.12 141.637 766.582 143.823 764.348 144.218L764.347 144.218C763.459 144.376 762.535 144.231 761.742 143.798L761.738 143.796L725.28 124.149L724.806 123.893L724.331 124.149L687.874 143.796L687.872 143.797C687.191 144.165 686.426 144.33 685.661 144.274C684.897 144.218 684.16 143.943 683.536 143.479C682.912 143.014 682.424 142.376 682.131 141.636C681.837 140.896 681.752 140.086 681.885 139.297L681.885 139.296L688.853 97.6822L688.938 97.174L688.573 96.8097L659.083 67.3395L659.083 67.3394C658.293 66.5507 657.837 65.4678 657.823 64.3274C657.808 63.1876 658.235 62.0931 659.003 61.2829C659.641 60.6166 660.467 60.1832 661.362 60.052L661.365 60.0517L702.125 53.9799L702.649 53.9019L702.879 53.4245L721.097 15.5671C721.097 15.5664 721.098 15.5657 721.098 15.5651C722.13 13.4521 724.612 12.6119 726.634 13.635L726.635 13.6356C727.446 14.0447 728.108 14.7205 728.512 15.5615L728.512 15.5623L746.733 53.4245ZM754.657 128.855L756.454 129.823L756.117 127.809L750.407 93.7138L774.572 69.5771L775.978 68.1732L774.013 67.8805L740.632 62.907L725.707 31.9065L724.806 30.035L723.905 31.9065L708.98 62.907L675.599 67.8805L673.635 68.1731L675.039 69.5768L699.204 93.73L693.494 127.826L693.157 129.84L694.955 128.871L724.806 112.787L754.657 128.855Z" fill="#FFD60A" stroke="#FFD60A" stroke-width="2"/>
</svg>
