<svg width="810" height="173" viewBox="0 0 810 173" fill="none" xmlns="http://www.w3.org/2000/svg">
<path d="M144.001 59.6546L103.739 53.4205L85.7406 14.5462C85.249 13.4819 84.4403 12.6203 83.4413 12.0965C80.9358 10.7787 77.8912 11.8769 76.6385 14.5462L58.6404 53.4205L18.3786 59.6546C17.2686 59.8236 16.2537 60.3811 15.4767 61.2258C14.5373 62.2545 14.0197 63.6384 14.0376 65.0734C14.0554 66.5085 14.6072 67.8772 15.5719 68.879L44.7018 99.1371L37.8197 141.863C37.6583 142.857 37.7616 143.879 38.1177 144.814C38.4739 145.749 39.0687 146.558 39.8347 147.151C40.6007 147.744 41.5073 148.096 42.4516 148.168C43.396 148.239 44.3403 148.028 45.1775 147.557L81.1896 127.385L117.202 147.557C118.185 148.114 119.327 148.3 120.421 148.097C123.18 147.591 125.035 144.803 124.559 141.863L117.677 99.1371L146.807 68.879C147.6 68.0512 148.123 66.9699 148.282 65.7873C148.71 62.8308 146.776 60.0939 144.001 59.6546ZM105.42 94.8797L111.144 130.409L81.1896 113.65L51.235 130.426L56.9595 94.8966L32.7295 69.7238L66.2202 64.5371L81.1896 32.2179L96.1589 64.5371L129.65 69.7238L105.42 94.8797Z" fill="#FFD60A"/>
<path d="M105.42 94.8797L111.144 130.409L81.1896 113.65L51.235 130.426L56.9595 94.8966L32.7295 69.7238L66.2202 64.5371L81.1896 32.2179L96.1589 64.5371L129.65 69.7238L105.42 94.8797Z" fill="#FFD60A"/>
<path d="M304.165 59.6546L264.523 53.4205L246.802 14.5462C246.318 13.4819 245.521 12.6203 244.538 12.0965C242.071 10.7787 239.073 11.8769 237.839 14.5462L220.118 53.4205L180.476 59.6546C179.383 59.8236 178.384 60.3811 177.619 61.2258C176.694 62.2545 176.184 63.6384 176.202 65.0734C176.219 66.5084 176.763 67.8772 177.712 68.879L206.394 99.1371L199.618 141.863C199.459 142.857 199.561 143.879 199.911 144.814C200.262 145.749 200.848 146.558 201.602 147.151C202.356 147.744 203.249 148.096 204.179 148.168C205.108 148.239 206.038 148.028 206.863 147.557L242.321 127.385L277.779 147.557C278.747 148.114 279.871 148.3 280.948 148.097C283.665 147.591 285.492 144.803 285.023 141.863L278.247 99.1371L306.929 68.879C307.709 68.0512 308.225 66.9699 308.381 65.7873C308.802 62.8308 306.897 60.0939 304.165 59.6546V59.6546ZM266.178 94.8797L271.814 130.409L242.321 113.65L212.827 130.426L218.463 94.8966L194.606 69.7238L227.581 64.5371L242.321 32.2179L257.06 64.5371L290.035 69.7238L266.178 94.8797Z" fill="#FFD60A"/>
<path d="M466.261 59.6546L425.999 53.4205L408.001 14.5462C407.51 13.4819 406.701 12.6203 405.702 12.0965C403.197 10.7787 400.152 11.8769 398.899 14.5462L380.901 53.4205L340.639 59.6546C339.529 59.8236 338.514 60.3811 337.737 61.2258C336.798 62.2545 336.28 63.6384 336.298 65.0734C336.316 66.5084 336.868 67.8772 337.833 68.879L366.963 99.1371L360.08 141.863C359.919 142.857 360.022 143.879 360.378 144.814C360.735 145.749 361.329 146.558 362.095 147.151C362.861 147.744 363.768 148.096 364.712 148.168C365.657 148.239 366.601 148.028 367.438 147.557L403.45 127.385L439.462 147.557C440.446 148.114 441.587 148.3 442.681 148.097C445.441 147.591 447.296 144.803 446.82 141.863L439.938 99.1371L469.068 68.879C469.861 68.0512 470.384 66.9699 470.543 65.7873C470.971 62.8308 469.036 60.0939 466.261 59.6546V59.6546ZM427.68 94.8797L433.405 130.409L403.45 113.65L373.496 130.426L379.22 94.8966L354.99 69.7238L388.481 64.5371L403.45 32.2179L418.42 64.5371L451.91 69.7238L427.68 94.8797Z" fill="#FFD60A"/>
<path d="M626.425 59.6546L586.783 53.4205L569.061 14.5462C568.577 13.4819 567.781 12.6203 566.797 12.0965C564.33 10.7787 561.333 11.8769 560.099 14.5462L542.378 53.4205L502.736 59.6546C501.643 59.8236 500.643 60.3811 499.878 61.2258C498.953 62.2545 498.444 63.6384 498.461 65.0734C498.479 66.5084 499.022 67.8772 499.972 68.879L528.654 99.1371L521.878 141.863C521.719 142.857 521.82 143.879 522.171 144.814C522.522 145.749 523.107 146.558 523.862 147.151C524.616 147.744 525.509 148.096 526.438 148.168C527.368 148.239 528.298 148.028 529.122 147.557L564.58 127.385L600.038 147.557C601.006 148.114 602.13 148.3 603.208 148.097C605.925 147.591 607.751 144.803 607.283 141.863L600.507 99.1371L629.188 68.879C629.969 68.0512 630.484 66.9699 630.641 65.7873C631.062 62.8308 629.157 60.0939 626.425 59.6546V59.6546ZM588.438 94.8797L594.074 130.409L564.58 113.65L535.087 130.426L540.723 94.8966L516.866 69.7238L549.841 64.5371L564.58 32.2179L579.319 64.5371L612.295 69.7238L588.438 94.8797Z" fill="#FFD60A"/>
<path d="M748.95 53.846L749.177 54.3287L749.704 54.4091L790.582 60.6427C790.583 60.6427 790.583 60.6428 790.583 60.6428C792.828 60.9932 794.454 63.1976 794.094 65.6418L794.093 65.6524C793.96 66.624 793.525 67.5075 792.87 68.181C792.87 68.1813 792.87 68.1816 792.869 68.1819L763.293 98.4381L762.94 98.7996L763.021 99.2985L770.009 142.025L770.009 142.026C770.41 144.466 768.842 146.711 766.616 147.113L766.614 147.114C765.729 147.275 764.806 147.127 764.013 146.684L764.008 146.681L727.442 126.509L726.959 126.243L726.476 126.509L689.91 146.681L689.908 146.682C689.227 147.06 688.462 147.227 687.7 147.17C686.937 147.113 686.201 146.833 685.574 146.356C684.947 145.878 684.454 145.22 684.157 144.453C683.86 143.686 683.774 142.845 683.909 142.026L683.909 142.025L690.897 99.2985L690.978 98.7996L690.625 98.4381L661.047 68.18L661.047 68.1799C660.252 67.3668 659.789 66.2459 659.774 65.0608C659.759 63.8761 660.193 62.7423 660.968 61.9067C661.609 61.2202 662.437 60.7774 663.33 60.6436L663.332 60.6432L704.214 54.4091L704.741 54.3287L704.968 53.846L723.241 14.9764C723.241 14.9757 723.241 14.975 723.242 14.9743C724.285 12.7874 726.773 11.9418 728.785 12.9845L728.787 12.9851C729.599 13.4044 730.266 14.0997 730.675 14.9708L730.675 14.9717L748.95 53.846ZM758.361 130.247L752.63 95.2173L776.88 70.423L778.243 69.0291L776.315 68.7352L742.837 63.629L727.864 31.7923L726.959 29.8682L726.054 31.7923L711.081 63.629L677.603 68.7352L675.676 69.029L677.038 70.4227L701.288 95.234L695.557 130.264L695.224 132.295L697.027 131.301L726.959 114.791L756.892 131.285L758.693 132.277L758.361 130.247Z" fill="#FFD60A" stroke="#FFD60A" stroke-width="2"/>
</svg>
