<svg width="824" height="178" viewBox="0 0 824 178" fill="none" xmlns="http://www.w3.org/2000/svg">
<path d="M147.093 61.6478L106.135 55.2483L87.8257 15.3427C87.3256 14.2501 86.5029 13.3656 85.4866 12.828C82.9378 11.4753 79.8405 12.6025 78.5661 15.3427L60.2567 55.2483L19.2984 61.6478C18.1692 61.8212 17.1368 62.3935 16.3463 63.2606C15.3907 64.3166 14.8641 65.7372 14.8823 67.2103C14.9004 68.6834 15.4618 70.0885 16.4431 71.1169L46.077 102.178L39.0758 146.037C38.9117 147.058 39.0167 148.107 39.379 149.066C39.7413 150.026 40.3464 150.857 41.1257 151.465C41.9049 152.074 42.8272 152.435 43.7879 152.509C44.7486 152.583 45.7092 152.365 46.5609 151.882L83.1959 131.175L119.831 151.882C120.831 152.454 121.993 152.645 123.106 152.437C125.913 151.917 127.8 149.055 127.316 146.037L120.315 102.178L149.949 71.1169C150.755 70.2671 151.288 69.1571 151.449 67.9432C151.884 64.9082 149.916 62.0987 147.093 61.6478ZM107.845 97.8073L113.669 134.279L83.1959 117.075L52.7232 134.296L58.5467 97.8247L33.8976 71.984L67.9676 66.6598L83.1959 33.4832L98.4242 66.6598L132.494 71.984L107.845 97.8073Z" fill="#FFD60A"/>
<path d="M107.845 97.8073L113.669 134.279L83.1959 117.075L52.7232 134.296L58.5467 97.8247L33.8976 71.984L67.9676 66.6598L83.1959 33.4832L98.4242 66.6598L132.494 71.984L107.845 97.8073Z" fill="#FFD60A"/>
<path d="M310.028 61.6478L269.7 55.2483L251.672 15.3427C251.18 14.2501 250.37 13.3656 249.369 12.828C246.86 11.4753 243.81 12.6025 242.555 15.3427L224.527 55.2483L184.199 61.6478C183.087 61.8212 182.071 62.3935 181.293 63.2606C180.352 64.3166 179.833 65.7372 179.851 67.2103C179.869 68.6834 180.422 70.0885 181.388 71.1169L210.566 102.178L203.672 146.037C203.511 147.058 203.614 148.107 203.971 149.066C204.328 150.026 204.923 150.857 205.691 151.465C206.458 152.074 207.366 152.435 208.312 152.509C209.258 152.583 210.204 152.365 211.042 151.882L247.114 131.175L283.185 151.882C284.17 152.454 285.313 152.645 286.409 152.437C289.173 151.917 291.031 149.055 290.555 146.037L283.662 102.178L312.839 71.1169C313.634 70.2671 314.158 69.1571 314.317 67.9432C314.745 64.9082 312.808 62.0987 310.028 61.6478V61.6478ZM271.384 97.8073L277.118 134.279L247.114 117.075L217.11 134.296L222.844 97.8247L198.574 71.984L232.12 66.6598L247.114 33.4832L262.108 66.6598L295.654 71.984L271.384 97.8073Z" fill="#FFD60A"/>
<path d="M474.928 61.6478L433.97 55.2483L415.661 15.3427C415.161 14.2501 414.338 13.3656 413.322 12.828C410.773 11.4753 407.675 12.6025 406.401 15.3427L388.092 55.2483L347.133 61.6478C346.004 61.8212 344.972 62.3935 344.181 63.2606C343.226 64.3166 342.699 65.7372 342.717 67.2103C342.735 68.6834 343.297 70.0885 344.278 71.1169L373.912 102.178L366.911 146.037C366.747 147.058 366.852 148.107 367.214 149.066C367.576 150.026 368.181 150.857 368.961 151.465C369.74 152.074 370.662 152.435 371.623 152.509C372.584 152.583 373.544 152.365 374.396 151.882L411.031 131.175L447.666 151.882C448.666 152.454 449.827 152.645 450.941 152.437C453.747 151.917 455.635 149.055 455.151 146.037L448.15 102.178L477.784 71.1169C478.59 70.2671 479.123 69.1571 479.284 67.9432C479.719 64.9082 477.751 62.0987 474.928 61.6478V61.6478ZM435.68 97.8073L441.504 134.279L411.031 117.075L380.558 134.296L386.382 97.8247L361.733 71.984L395.803 66.6598L411.031 33.4832L426.259 66.6598L460.329 71.984L435.68 97.8073Z" fill="#FFD60A"/>
<path d="M475.045 61.6478L434.087 55.2483L415.778 15.3427C415.278 14.2501 414.455 13.3656 413.439 12.828C410.89 11.4753 407.793 12.6025 406.518 15.3427L388.209 55.2483L347.251 61.6478C346.121 61.8212 345.089 62.3935 344.298 63.2606C343.343 64.3166 342.816 65.7372 342.834 67.2103C342.853 68.6834 343.414 70.0885 344.395 71.1169L374.029 102.178L367.028 146.037C366.864 147.058 366.969 148.107 367.331 149.066C367.693 150.026 368.299 150.857 369.078 151.465C369.857 152.074 370.779 152.435 371.74 152.509C372.701 152.583 373.661 152.365 374.513 151.882L411.148 131.175L447.783 151.882C448.783 152.454 449.945 152.645 451.058 152.437C453.865 151.917 455.752 149.055 455.268 146.037L448.267 102.178L477.901 71.1169C478.707 70.2671 479.24 69.1571 479.401 67.9432C479.837 64.9082 477.869 62.0987 475.045 61.6478ZM435.797 97.8073L441.621 134.279L411.148 117.075L380.675 134.296L386.499 97.8247L361.85 71.984L395.92 66.6598L411.148 33.4832L426.376 66.6598L460.446 71.984L435.797 97.8073Z" fill="#FFD60A"/>
<path d="M435.797 97.8073L441.621 134.279L411.148 117.075L380.675 134.296L386.499 97.8247L361.85 71.984L395.92 66.6598L411.148 33.4832L426.376 66.6598L460.446 71.984L435.797 97.8073Z" fill="#FFD60A"/>
<path d="M637.863 61.6478L597.535 55.2483L579.507 15.3427C579.015 14.2501 578.205 13.3656 577.204 12.828C574.694 11.4753 571.645 12.6025 570.39 15.3427L552.362 55.2483L512.034 61.6478C510.922 61.8212 509.906 62.3935 509.128 63.2606C508.187 64.3166 507.668 65.7372 507.686 67.2103C507.704 68.6834 508.257 70.0885 509.223 71.1169L538.401 102.178L531.507 146.037C531.346 147.058 531.449 148.107 531.806 149.066C532.163 150.026 532.758 150.857 533.526 151.465C534.293 152.074 535.201 152.435 536.147 152.509C537.093 152.583 538.039 152.365 538.877 151.882L574.949 131.175L611.02 151.882C612.005 152.454 613.148 152.645 614.244 152.437C617.008 151.917 618.866 149.055 618.39 146.037L611.496 102.178L640.674 71.1169C641.469 70.2671 641.993 69.1571 642.152 67.9432C642.58 64.9082 640.643 62.0987 637.863 61.6478V61.6478ZM599.219 97.8073L604.953 134.279L574.949 117.075L544.945 134.296L550.679 97.8247L526.409 71.984L559.955 66.6598L574.949 33.4832L589.943 66.6598L623.489 71.984L599.219 97.8073Z" fill="#FFD60A"/>
<path d="M762.521 55.6706L762.747 56.1553L763.276 56.2367L804.861 62.6356C804.861 62.6357 804.862 62.6358 804.862 62.6358C807.148 62.9964 808.818 65.2677 808.449 67.799L808.448 67.8094C808.312 68.8142 807.866 69.7267 807.197 70.4216C807.196 70.4221 807.196 70.4225 807.195 70.4229L777.107 101.482L776.758 101.842L776.838 102.338L783.947 146.197L783.947 146.198C784.359 148.725 782.748 151.039 780.48 151.453L780.478 151.453C779.576 151.62 778.635 151.467 777.825 151.011L777.821 151.008L740.622 130.301L740.136 130.03L739.649 130.301L702.451 151.008L702.449 151.009C701.753 151.398 700.973 151.57 700.197 151.512C699.419 151.453 698.668 151.165 698.028 150.673C697.387 150.18 696.882 149.501 696.578 148.708C696.274 147.915 696.185 147.045 696.324 146.199L696.324 146.197L703.433 102.338L703.513 101.842L703.164 101.482L673.074 70.4211L673.074 70.421C672.261 69.5819 671.786 68.4237 671.771 67.1978C671.756 65.9724 672.201 64.8009 672.993 63.9384C673.649 63.23 674.494 62.7742 675.405 62.6365L675.407 62.6361L716.996 56.2367L717.524 56.1553L717.75 55.6706L736.339 15.7697C736.339 15.7687 736.34 15.7677 736.34 15.7667C737.409 13.5077 739.948 12.6427 741.998 13.7142L741.999 13.7148C742.829 14.1468 743.511 14.8638 743.93 15.7641L743.93 15.765L762.521 55.6706ZM772.064 134.119L766.231 98.1428L790.91 72.68L792.257 71.2901L790.344 70.9957L756.279 65.7528L741.042 33.0607L740.136 31.116L739.229 33.0607L723.992 65.7528L689.927 70.9957L688.014 71.29L689.36 72.6797L714.04 98.16L708.207 134.136L707.877 136.174L709.68 135.17L740.136 118.219L770.591 135.153L772.394 136.156L772.064 134.119Z" fill="#FFD60A" stroke="#FFD60A" stroke-width="2"/>
</svg>
