<svg width="668" height="167" viewBox="0 0 668 167" fill="none" xmlns="http://www.w3.org/2000/svg">
<path d="M146.517 57.9101L105.6 51.9368L87.3085 14.6886C86.8089 13.6688 85.987 12.8432 84.9717 12.3414C82.4255 11.0787 79.3313 12.1309 78.0582 14.6886L59.767 51.9368L18.8497 57.9101C17.7216 58.072 16.6902 58.6062 15.9005 59.4155C14.9459 60.4012 14.4198 61.7272 14.438 63.1022C14.4561 64.4772 15.0169 65.7887 15.9972 66.7486L45.6015 95.741L38.6073 136.68C38.4433 137.632 38.5482 138.612 38.9102 139.507C39.2721 140.403 39.8766 141.178 40.6551 141.746C41.4336 142.314 42.355 142.652 43.3147 142.721C44.2744 142.789 45.2341 142.587 46.0849 142.135L82.6833 122.807L119.282 142.135C120.281 142.669 121.441 142.848 122.553 142.653C125.357 142.168 127.243 139.497 126.759 136.68L119.765 95.741L149.369 66.7486C150.175 65.9554 150.707 64.9194 150.868 63.7862C151.303 60.9534 149.337 58.331 146.517 57.9101V57.9101ZM107.308 91.6617L113.126 125.705L82.6833 109.646L52.2411 125.721L58.0588 91.6779L33.4342 67.558L67.4703 62.5884L82.6833 31.6211L97.8964 62.5884L131.932 67.558L107.308 91.6617Z" fill="#FFD60A"/>
<path d="M313.826 57.9101L272.269 51.9368L253.692 14.6886C253.185 13.6688 252.35 12.8432 251.319 12.3414C248.733 11.0787 245.59 12.1309 244.297 14.6886L225.72 51.9368L184.164 57.9101C183.018 58.072 181.971 58.6062 181.169 59.4155C180.199 60.4012 179.665 61.7272 179.683 63.1022C179.701 64.4772 180.271 65.7887 181.267 66.7486L211.334 95.741L204.23 136.68C204.064 137.632 204.17 138.612 204.538 139.507C204.905 140.403 205.519 141.178 206.31 141.746C207.101 142.314 208.036 142.652 209.011 142.721C209.986 142.789 210.96 142.587 211.825 142.135L248.995 122.807L286.165 142.135C287.18 142.669 288.358 142.848 289.488 142.653C292.336 142.168 294.25 139.497 293.759 136.68L286.656 95.741L316.723 66.7486C317.541 65.9554 318.081 64.9194 318.245 63.7862C318.687 60.9534 316.69 58.331 313.826 57.9101V57.9101ZM274.004 91.6617L279.913 125.705L248.995 109.646L218.077 125.721L223.985 91.6779L198.976 67.558L233.544 62.5884L248.995 31.6211L264.446 62.5884L299.013 67.558L274.004 91.6617Z" fill="#FFD60A"/>
<path d="M314.056 57.6591L272.5 51.6858L253.923 14.4376C253.415 13.4178 252.581 12.5922 251.549 12.0904C248.963 10.8278 245.821 11.88 244.528 14.4376L225.951 51.6858L184.394 57.6591C183.248 57.821 182.201 58.3552 181.399 59.1646C180.429 60.1502 179.895 61.4762 179.914 62.8512C179.932 64.2262 180.502 65.5378 181.497 66.4976L211.564 95.49L204.461 136.429C204.294 137.381 204.401 138.361 204.768 139.256C205.136 140.152 205.75 140.927 206.54 141.495C207.331 142.063 208.267 142.401 209.241 142.47C210.216 142.538 211.191 142.336 212.055 141.884L249.225 122.556L286.395 141.884C287.41 142.418 288.589 142.597 289.718 142.402C292.566 141.917 294.481 139.246 293.99 136.429L286.887 95.49L316.953 66.4976C317.772 65.7044 318.312 64.6684 318.475 63.5353C318.917 60.7024 316.921 58.08 314.056 57.6591ZM274.235 91.4107L280.143 125.454L249.225 109.395L218.307 125.47L224.216 91.4269L199.207 67.307L233.774 62.3374L249.225 31.3701L264.676 62.3374L299.244 67.307L274.235 91.4107Z" fill="#FFD60A"/>
<path d="M274.235 91.4107L280.143 125.454L249.225 109.395L218.307 125.47L224.216 91.4269L199.207 67.307L233.774 62.3374L249.225 31.3701L264.676 62.3374L299.244 67.307L274.235 91.4107Z" fill="#FFD60A"/>
<path d="M479.142 57.9101L438.225 51.9368L419.933 14.6886C419.434 13.6688 418.612 12.8432 417.597 12.3414C415.05 11.0787 411.956 12.1309 410.683 14.6886L392.392 51.9368L351.475 57.9101C350.347 58.072 349.315 58.6062 348.526 59.4155C347.571 60.4012 347.045 61.7272 347.063 63.1022C347.081 64.4772 347.642 65.7887 348.622 66.7486L378.226 95.741L371.232 136.68C371.068 137.632 371.173 138.612 371.535 139.507C371.897 140.403 372.502 141.178 373.28 141.746C374.059 142.314 374.98 142.652 375.94 142.721C376.899 142.789 377.859 142.587 378.71 142.135L415.308 122.807L451.907 142.135C452.906 142.669 454.066 142.848 455.178 142.653C457.982 142.168 459.868 139.497 459.384 136.68L452.39 95.741L481.994 66.7486C482.8 65.9554 483.332 64.9194 483.493 63.7862C483.928 60.9534 481.962 58.331 479.142 57.9101V57.9101ZM439.933 91.6617L445.751 125.705L415.308 109.646L384.866 125.721L390.684 91.6779L366.059 67.558L400.095 62.5884L415.308 31.6211L430.521 62.5884L464.557 67.558L439.933 91.6617Z" fill="#FFD60A"/>
<path d="M621.15 95.741L628.363 136.68C628.862 139.497 626.917 142.168 624.026 142.653C622.879 142.848 621.682 142.669 620.652 142.135L582.91 122.807L545.168 142.135C544.29 142.587 543.301 142.789 542.311 142.721C541.321 142.652 540.371 142.314 539.568 141.746C538.765 141.178 538.142 140.403 537.769 139.507C537.395 138.612 537.287 137.632 537.456 136.68L544.669 95.741L514.14 66.7486C513.129 65.7887 512.55 64.4772 512.532 63.1022C512.513 61.7272 513.056 60.4012 514.04 59.4155C514.854 58.6062 515.918 58.072 517.081 57.9101L621.15 95.741ZM621.15 95.741L651.68 66.7486L621.15 95.741ZM605.65 52.3886L605.886 52.8538L606.402 52.9269L648.595 58.8998C648.595 58.8998 648.596 58.8999 648.596 58.8999C650.988 59.2465 652.594 61.3832 652.238 63.6298L652.236 63.6411C652.103 64.5463 651.664 65.3809 650.989 66.0253L620.462 95.0159L620.072 95.3857L620.166 95.9145L627.378 136.853L627.378 136.854C627.776 139.098 626.23 141.269 623.86 141.667L623.858 141.667C622.92 141.826 621.945 141.679 621.112 141.247L621.108 141.245L583.366 121.917L582.91 121.684L582.454 121.917L544.712 141.245L544.71 141.246C543.996 141.613 543.189 141.779 542.38 141.723C541.572 141.667 540.798 141.391 540.146 140.93C539.494 140.469 538.992 139.842 538.692 139.122C538.392 138.403 538.305 137.618 538.441 136.855L538.441 136.853L545.654 95.9145L545.747 95.3857L545.358 95.0159L514.828 66.0235L514.828 66.0234C514.01 65.2462 513.547 64.19 513.532 63.0886C513.517 61.9878 513.95 60.9209 514.746 60.1234C515.408 59.4666 516.272 59.0323 517.219 58.9005L517.221 58.9002L559.417 52.9269L559.934 52.8538L560.169 52.3886L579.03 15.1453C579.03 15.1444 579.031 15.1436 579.031 15.1428C580.092 13.0791 582.69 12.2105 584.836 13.2426L584.837 13.2432C585.689 13.6513 586.373 14.3201 586.787 15.1395L586.787 15.1404L605.65 52.3886ZM609.382 92.0171L634.386 68.2833L635.888 66.8581L633.838 66.5679L599.255 61.6713L583.802 31.1691L582.91 29.4083L582.018 31.1691L566.565 61.6713L531.981 66.5679L529.933 66.858L531.433 68.2831L556.438 92.0331L550.531 125.547L550.182 127.527L551.972 126.611L582.91 110.77L613.848 126.595L615.637 127.51L615.288 125.531L609.382 92.0171Z" fill="#FFD60A" stroke="#FFD60A" stroke-width="2"/>
</svg>
