<svg width="60" height="55" viewBox="0 0 60 55" fill="none" xmlns="http://www.w3.org/2000/svg">
<path d="M29.9824 0.748291C24.0652 0.748291 18.2809 2.31705 13.361 5.25619C8.441 8.19533 4.60636 12.3728 2.34195 17.2605C0.0775381 22.1481 -0.514935 27.5263 0.639451 32.7149C1.79384 37.9036 4.64324 42.6697 8.82732 46.4105C13.0114 50.1513 18.3423 52.6988 24.1457 53.7309C29.9492 54.763 35.9647 54.2333 41.4315 52.2088C46.8983 50.1843 51.5708 46.7559 54.8582 42.3571C58.1456 37.9584 59.9003 32.7869 59.9003 27.4966C59.9003 23.984 59.1264 20.5057 57.6229 17.2605C56.1194 14.0152 53.9157 11.0665 51.1375 8.58269C48.3594 6.09888 45.0613 4.12861 41.4315 2.78438C37.8017 1.44016 33.9113 0.748291 29.9824 0.748291V0.748291ZM42.8471 21.1037L29.1746 37.1527C28.8959 37.4764 28.538 37.7387 28.1283 37.9196C27.7186 38.1004 27.268 38.1949 26.8111 38.1959C26.3567 38.1981 25.9077 38.1077 25.4982 37.9316C25.0886 37.7555 24.7294 37.4983 24.4476 37.1795L17.1477 28.8608C16.906 28.5833 16.7279 28.2659 16.6235 27.9269C16.519 27.5878 16.4903 27.2337 16.5389 26.8847C16.5875 26.5358 16.7125 26.1988 16.9068 25.893C17.1011 25.5872 17.3609 25.3186 17.6712 25.1026C18.2981 24.6663 19.0931 24.4705 19.8814 24.5583C20.2717 24.6018 20.6487 24.7136 20.9907 24.8873C21.3327 25.061 21.6331 25.2932 21.8747 25.5707L26.7513 31.1344L38.0602 17.7602C38.2999 17.4792 38.5991 17.2431 38.9408 17.0655C39.2825 16.8879 39.66 16.7722 40.0517 16.725C40.4434 16.6778 40.8417 16.7001 41.2238 16.7905C41.6059 16.8809 41.9643 17.0377 42.2787 17.252C42.593 17.4663 42.857 17.7338 43.0557 18.0393C43.2543 18.3448 43.3838 18.6823 43.4365 19.0325C43.4893 19.3827 43.4644 19.7388 43.3633 20.0804C43.2622 20.422 43.0868 20.7425 42.8471 21.0235V21.1037Z" fill="#1AA260"/>
</svg>
