<svg width="60" height="54" viewBox="0 0 60 54" fill="none" xmlns="http://www.w3.org/2000/svg">
<path d="M29.9178 0C24.0007 0 18.2164 1.56876 13.2964 4.5079C8.37643 7.44704 4.54178 11.6246 2.27737 16.5122C0.0129629 21.3998 -0.57951 26.778 0.574876 31.9666C1.72926 37.1553 4.57866 41.9214 8.76274 45.6622C12.9468 49.403 18.2777 51.9506 24.0812 52.9826C29.8847 54.0147 35.9001 53.485 41.3669 51.4605C46.8337 49.436 51.5062 46.0076 54.7936 41.6089C58.081 37.2101 59.8357 32.0386 59.8357 26.7483C59.8357 23.2357 59.0618 19.7574 57.5583 16.5122C56.0548 13.2669 53.8511 10.3182 51.0729 7.8344C48.2948 5.35059 44.9967 3.38032 41.3669 2.03609C37.7371 0.691865 33.8467 0 29.9178 0V0ZM42.7825 20.3555L29.1101 36.4044C28.8314 36.7281 28.4734 36.9905 28.0637 37.1713C27.654 37.3521 27.2035 37.4466 26.7466 37.4476C26.2921 37.4498 25.8431 37.3594 25.4336 37.1833C25.0241 37.0072 24.6648 36.75 24.383 36.4312L17.0831 28.1125C16.8415 27.835 16.6633 27.5176 16.5589 27.1786C16.4544 26.8395 16.4257 26.4854 16.4743 26.1364C16.5229 25.7875 16.648 25.4505 16.8422 25.1447C17.0365 24.8389 17.2963 24.5704 17.6067 24.3543C18.2335 23.918 19.0285 23.7223 19.8168 23.81C20.2071 23.8535 20.5841 23.9653 20.9261 24.139C21.2681 24.3127 21.5685 24.5449 21.8101 24.8224L26.6867 30.3861L37.9957 17.0119C38.2353 16.7309 38.5345 16.4949 38.8762 16.3172C39.2179 16.1396 39.5954 16.0239 39.9871 15.9767C40.3789 15.9295 40.7771 15.9518 41.1592 16.0422C41.5413 16.1326 41.8998 16.2894 42.2141 16.5037C42.5284 16.718 42.7924 16.9855 42.9911 17.291C43.1898 17.5965 43.3192 17.934 43.372 18.2842C43.4247 18.6344 43.3999 18.9905 43.2987 19.3321C43.1976 19.6737 43.0222 19.9942 42.7825 20.2752V20.3555Z" fill="#1AA260"/>
</svg>
