<svg width="60" height="54" viewBox="0 0 60 54" fill="none" xmlns="http://www.w3.org/2000/svg">
<path d="M29.9824 0.27063C24.0652 0.27063 18.2809 1.83939 13.361 4.77853C8.441 7.71767 4.60636 11.8952 2.34195 16.7828C0.0775381 21.6704 -0.514935 27.0486 0.639451 32.2373C1.79384 37.4259 4.64324 42.192 8.82732 45.9328C13.0114 49.6737 18.3423 52.2212 24.1457 53.2533C29.9492 54.2854 35.9647 53.7557 41.4315 51.7311C46.8983 49.7066 51.5708 46.2782 54.8582 41.8795C58.1456 37.4808 59.9003 32.3092 59.9003 27.0189C59.9003 23.5063 59.1264 20.0281 57.6229 16.7828C56.1194 13.5375 53.9157 10.5888 51.1375 8.10503C48.3594 5.62122 45.0613 3.65095 41.4315 2.30672C37.8017 0.962495 33.9113 0.27063 29.9824 0.27063V0.27063ZM42.8471 20.6261L29.1746 36.6751C28.8959 36.9988 28.538 37.2611 28.1283 37.4419C27.7186 37.6227 27.268 37.7173 26.8111 37.7182C26.3567 37.7204 25.9077 37.63 25.4982 37.4539C25.0886 37.2778 24.7294 37.0206 24.4476 36.7018L17.1477 28.3831C16.906 28.1056 16.7279 27.7883 16.6235 27.4492C16.519 27.1102 16.4903 26.7561 16.5389 26.4071C16.5875 26.0581 16.7125 25.7211 16.9068 25.4153C17.1011 25.1096 17.3609 24.841 17.6712 24.625C18.2981 24.1887 19.0931 23.9929 19.8814 24.0807C20.2717 24.1241 20.6487 24.2359 20.9907 24.4096C21.3327 24.5833 21.6331 24.8156 21.8747 25.0931L26.7513 30.6567L38.0602 17.2825C38.2999 17.0015 38.5991 16.7655 38.9408 16.5879C39.2825 16.4102 39.66 16.2945 40.0517 16.2473C40.4434 16.2001 40.8417 16.2224 41.2238 16.3128C41.6059 16.4032 41.9643 16.5601 42.2787 16.7743C42.593 16.9886 42.857 17.2561 43.0557 17.5616C43.2543 17.8671 43.3838 18.2046 43.4365 18.5548C43.4893 18.905 43.4644 19.2611 43.3633 19.6027C43.2622 19.9444 43.0868 20.2648 42.8471 20.5458V20.6261Z" fill="#1AA260"/>
</svg>
