<svg width="60" height="54" viewBox="0 0 60 54" fill="none" xmlns="http://www.w3.org/2000/svg">
<path d="M29.9824 0.277588C24.0652 0.277588 18.2809 1.84635 13.361 4.78549C8.441 7.72463 4.60636 11.9021 2.34195 16.7898C0.0775381 21.6774 -0.514935 27.0556 0.639451 32.2442C1.79384 37.4329 4.64324 42.199 8.82732 45.9398C13.0114 49.6806 18.3423 52.2281 24.1457 53.2602C29.9492 54.2923 35.9647 53.7626 41.4315 51.7381C46.8983 49.7136 51.5708 46.2852 54.8582 41.8864C58.1456 37.4877 59.9003 32.3162 59.9003 27.0259C59.9003 23.5133 59.1264 20.035 57.6229 16.7898C56.1194 13.5445 53.9157 10.5958 51.1375 8.11198C48.3594 5.62817 45.0613 3.65791 41.4315 2.31368C37.8017 0.969453 33.9113 0.277588 29.9824 0.277588V0.277588ZM42.8471 20.633L29.1746 36.682C28.8959 37.0057 28.538 37.268 28.1283 37.4489C27.7186 37.6297 27.268 37.7242 26.8111 37.7252C26.3567 37.7274 25.9077 37.637 25.4982 37.4609C25.0886 37.2848 24.7294 37.0276 24.4476 36.7088L17.1477 28.3901C16.906 28.1126 16.7279 27.7952 16.6235 27.4562C16.519 27.1171 16.4903 26.763 16.5389 26.414C16.5875 26.0651 16.7125 25.7281 16.9068 25.4223C17.1011 25.1165 17.3609 24.8479 17.6712 24.6319C18.2981 24.1956 19.0931 23.9998 19.8814 24.0876C20.2717 24.1311 20.6487 24.2429 20.9907 24.4166C21.3327 24.5903 21.6331 24.8225 21.8747 25.1L26.7513 30.6637L38.0602 17.2895C38.2999 17.0085 38.5991 16.7724 38.9408 16.5948C39.2825 16.4172 39.66 16.3015 40.0517 16.2543C40.4434 16.2071 40.8417 16.2293 41.2238 16.3198C41.6059 16.4102 41.9643 16.567 42.2787 16.7813C42.593 16.9956 42.857 17.2631 43.0557 17.5686C43.2543 17.8741 43.3838 18.2116 43.4365 18.5618C43.4893 18.912 43.4644 19.2681 43.3633 19.6097C43.2622 19.9513 43.0868 20.2718 42.8471 20.5528V20.633Z" fill="#1AA260"/>
</svg>
