<svg width="108" height="108" viewBox="0 0 108 108" fill="none" xmlns="http://www.w3.org/2000/svg">
<path fill-rule="evenodd" clip-rule="evenodd" d="M82.119 92.3928C74.2347 98.1172 64.518 101.497 54.0002 101.497C43.4822 101.497 33.7652 98.1169 25.8807 92.3922C32.0875 83.5852 42.3664 77.8303 53.9996 77.8303C65.6331 77.8303 75.9122 83.5854 82.119 92.3928ZM86.7548 88.5605C79.4376 78.4287 67.4928 71.8303 53.9996 71.8303C40.5068 71.8303 28.5622 78.4284 21.245 88.5599C12.01 79.8945 6.25024 67.6087 6.25024 53.9973C6.25024 27.7901 27.6022 6.49731 54.0002 6.49731C80.3982 6.49731 101.75 27.7901 101.75 53.9973C101.75 67.6091 95.9902 79.8951 86.7548 88.5605ZM89.946 93.7741C100.877 83.9812 107.75 69.7882 107.75 53.9973C107.75 24.4501 83.6855 0.497314 54.0002 0.497314C24.3149 0.497314 0.250244 24.4501 0.250244 53.9973C0.250244 69.7878 7.12308 83.9804 18.0537 93.7734C18.0533 93.7741 18.0529 93.7749 18.0525 93.7756C27.5758 102.309 40.1798 107.503 54.0026 107.503C67.8234 107.503 80.4258 102.311 89.9486 93.7793C89.9477 93.7775 89.9468 93.7758 89.946 93.7741ZM54.0017 52.4613C60.6095 52.4613 65.9183 47.137 65.9183 40.628C65.9183 34.119 60.6095 28.7947 54.0017 28.7947C47.3939 28.7947 42.085 34.119 42.085 40.628C42.085 47.137 47.3939 52.4613 54.0017 52.4613ZM54.0017 58.4613C63.8968 58.4613 71.9183 50.4771 71.9183 40.628C71.9183 30.7789 63.8968 22.7947 54.0017 22.7947C44.1066 22.7947 36.085 30.7789 36.085 40.628C36.085 50.4771 44.1066 58.4613 54.0017 58.4613Z" fill="#486581"/>
</svg>
