<svg width="64" height="64" viewBox="0 0 64 64" fill="none" xmlns="http://www.w3.org/2000/svg">
<path fill-rule="evenodd" clip-rule="evenodd" d="M42.5 24.5C42.5 34.4411 34.4411 42.5 24.5 42.5C14.5589 42.5 6.5 34.4411 6.5 24.5C6.5 14.5589 14.5589 6.5 24.5 6.5C34.4411 6.5 42.5 14.5589 42.5 24.5ZM39.2169 43.4596C35.1529 46.6188 30.0461 48.5 24.5 48.5C11.2452 48.5 0.5 37.7548 0.5 24.5C0.5 11.2452 11.2452 0.5 24.5 0.5C37.7548 0.5 48.5 11.2452 48.5 24.5C48.5 30.0461 46.6188 35.1529 43.4596 39.2169L62.6214 58.3787C63.7929 59.5503 63.7929 61.4498 62.6214 62.6214C61.4498 63.7929 59.5503 63.7929 58.3787 62.6214L39.2169 43.4596Z" fill="#102A43"/>
</svg>
