<svg width="110" height="117" viewBox="0 0 110 117" fill="none" xmlns="http://www.w3.org/2000/svg">
<path fill-rule="evenodd" clip-rule="evenodd" d="M26.6043 19.9991C25.3572 24.4053 21.3056 27.6336 16.5001 27.6336C10.7011 27.6336 6.00012 22.9327 6.00012 17.1337C6.00012 11.3347 10.7011 6.63374 16.5001 6.63374C21.3066 6.63374 25.3588 9.86332 26.605 14.2708C25.3852 14.6515 24.4999 15.7899 24.4999 17.1351C24.4999 18.48 25.3849 19.6182 26.6043 19.9991ZM32.7277 20.1351C31.3164 27.8147 24.5878 33.6336 16.5001 33.6336C7.3874 33.6336 0.00012207 26.2464 0.00012207 17.1337C0.00012207 8.02102 7.3874 0.63374 16.5001 0.63374C24.5887 0.63374 31.318 6.45407 32.7282 14.1351H104.5C106.157 14.1351 107.5 15.4782 107.5 17.1351C107.5 18.7919 106.157 20.1351 104.5 20.1351H32.7277ZM5.49998 58.135C3.84313 58.135 2.49998 59.4781 2.49998 61.135C2.49998 62.7918 3.84313 64.135 5.49998 64.135H77.2724C78.6839 71.8144 85.4124 77.6331 93.5 77.6331C102.613 77.6331 110 70.2458 110 61.1332C110 52.0205 102.613 44.6332 93.5 44.6332C85.4111 44.6332 78.6818 50.4537 77.2717 58.135H5.49998ZM93.5 71.6331C88.6945 71.6331 84.643 68.4049 83.3958 63.9988C84.615 63.6178 85.4998 62.4797 85.4998 61.135C85.4998 59.7899 84.6145 58.6515 83.3949 58.2708C84.641 53.863 88.6933 50.6332 93.5 50.6332C99.2989 50.6332 104 55.3342 104 61.1332C104 66.9321 99.2989 71.6331 93.5 71.6331ZM26.6052 96.7705C25.3853 97.1512 24.4999 98.2896 24.4999 99.6348C24.4999 100.98 25.3849 102.118 26.6043 102.499C25.357 106.905 21.3056 110.133 16.5002 110.133C10.7012 110.133 6.00022 105.432 6.00022 99.633C6.00022 93.8341 10.7012 89.1331 16.5002 89.1331C21.3068 89.1331 25.3591 92.3628 26.6052 96.7705ZM32.7284 96.6348C31.3183 88.9536 24.589 83.1331 16.5002 83.1331C7.3875 83.1331 0.000223795 90.5204 0.000223795 99.633C0.000223795 108.746 7.3875 116.133 16.5002 116.133C24.5877 116.133 31.3162 110.314 32.7277 102.635H104.5C106.157 102.635 107.5 101.292 107.5 99.6348C107.5 97.978 106.157 96.6348 104.5 96.6348H32.7284Z" fill="white"/>
</svg>
