<svg width="108" height="108" viewBox="0 0 108 108" fill="none" xmlns="http://www.w3.org/2000/svg">
<path fill-rule="evenodd" clip-rule="evenodd" d="M82.1187 92.3926C74.2344 98.1169 64.5177 101.497 54 101.497C43.4819 101.497 33.7649 98.1167 25.8804 92.392C32.0873 83.5849 42.3662 77.8301 53.9994 77.8301C65.6329 77.8301 75.912 83.5852 82.1187 92.3926ZM86.7545 88.5603C79.4374 78.4285 67.4925 71.8301 53.9994 71.8301C40.5065 71.8301 28.562 78.4282 21.2447 88.5596C12.0098 79.8942 6.25 67.6085 6.25 53.9971C6.25 27.7899 27.602 6.49707 54 6.49707C80.398 6.49707 101.75 27.7899 101.75 53.9971C101.75 67.6088 95.9899 79.8949 86.7545 88.5603ZM89.9457 93.7739C100.877 83.9809 107.75 69.7879 107.75 53.9971C107.75 24.4498 83.6853 0.49707 54 0.49707C24.3147 0.49707 0.25 24.4498 0.25 53.9971C0.25 69.7875 7.12284 83.9802 18.0534 93.7731C18.0531 93.7739 18.0527 93.7746 18.0523 93.7754C27.5755 102.309 40.1796 107.502 54.0023 107.502C67.8231 107.502 80.4256 102.31 89.9483 93.779C89.9475 93.7773 89.9466 93.7756 89.9457 93.7739ZM54.0014 52.4611C60.6092 52.4611 65.9181 47.1368 65.9181 40.6278C65.9181 34.1187 60.6092 28.7944 54.0014 28.7944C47.3936 28.7944 42.0848 34.1187 42.0848 40.6278C42.0848 47.1368 47.3936 52.4611 54.0014 52.4611ZM54.0014 58.4611C63.8965 58.4611 71.9181 50.4768 71.9181 40.6278C71.9181 30.7787 63.8965 22.7944 54.0014 22.7944C44.1063 22.7944 36.0848 30.7787 36.0848 40.6278C36.0848 50.4768 44.1063 58.4611 54.0014 58.4611Z" fill="#486581"/>
</svg>
