<svg width="88" height="116" viewBox="0 0 88 116" fill="none" xmlns="http://www.w3.org/2000/svg">
<path fill-rule="evenodd" clip-rule="evenodd" d="M9.99721 60.1898C10.8614 59.1217 11.3329 57.7895 11.3329 56.4156V30C11.3329 16.7452 22.078 6 35.3329 6H52.6662C65.921 6 76.6662 16.7452 76.6662 30V56.4145C76.6662 57.7885 77.1377 59.1208 78.0021 60.1889C80.1923 62.8954 81.5 66.3303 81.5 70.087C81.5 78.7854 74.4485 85.837 65.75 85.837H22.25C13.5515 85.837 6.5 78.7854 6.5 70.087C6.5 66.3307 7.8074 62.8961 9.99721 60.1898ZM35.3329 0C18.7643 0 5.33288 13.4315 5.33288 30V56.4156C2.31039 60.1511 0.5 64.9076 0.5 70.087C0.5 82.0992 10.2378 91.837 22.25 91.837H65.75C77.7622 91.837 87.5 82.0992 87.5 70.087C87.5 64.9071 85.6892 60.1501 82.6662 56.4145V30C82.6662 13.4315 69.2347 0 52.6662 0H35.3329ZM36.6402 105.75C35.8117 104.315 33.9769 103.823 32.5421 104.652C31.1072 105.48 30.6156 107.315 31.444 108.75C32.7166 110.954 34.5471 112.785 36.7514 114.057C38.9557 115.33 41.4561 116 44.0014 116C46.5467 116 49.0471 115.33 51.2514 114.057C53.4557 112.785 55.2861 110.954 56.5588 108.75C57.3872 107.315 56.8956 105.48 55.4607 104.652C54.0258 103.823 52.191 104.315 51.3626 105.75C50.6166 107.042 49.5436 108.115 48.2514 108.861C46.9592 109.607 45.4934 110 44.0014 110C42.5093 110 41.0435 109.607 39.7514 108.861C38.4592 108.115 37.3862 107.042 36.6402 105.75Z" fill="#486581"/>
</svg>
