<svg width="64" height="64" viewBox="0 0 64 64" fill="none" xmlns="http://www.w3.org/2000/svg">
<path fill-rule="evenodd" clip-rule="evenodd" d="M42.5002 24.5C42.5002 34.4411 34.4414 42.5 24.5002 42.5C14.5591 42.5 6.50024 34.4411 6.50024 24.5C6.50024 14.5589 14.5591 6.5 24.5002 6.5C34.4414 6.5 42.5002 14.5589 42.5002 24.5ZM39.2172 43.4596C35.1531 46.6188 30.0464 48.5 24.5002 48.5C11.2454 48.5 0.500244 37.7548 0.500244 24.5C0.500244 11.2452 11.2454 0.5 24.5002 0.5C37.7551 0.5 48.5002 11.2452 48.5002 24.5C48.5002 30.0461 46.619 35.1529 43.4598 39.2169L62.6216 58.3787C63.7932 59.5503 63.7932 61.4498 62.6216 62.6214C61.45 63.7929 59.5505 63.7929 58.379 62.6214L39.2172 43.4596Z" fill="#102A43"/>
</svg>
