<svg width="110" height="148" viewBox="0 0 110 148" fill="none" xmlns="http://www.w3.org/2000/svg">
<path fill-rule="evenodd" clip-rule="evenodd" d="M6 6.604H104V141.271H82.4424C82.4438 141.234 82.4444 141.197 82.4444 141.16V49.4929C82.4444 47.836 81.1013 46.4929 79.4444 46.4929C77.7876 46.4929 76.4444 47.836 76.4444 49.4929V141.16C76.4444 141.197 76.4451 141.234 76.4465 141.271H57.998C57.9988 141.248 57.9994 141.225 57.9997 141.203C57.9999 141.188 58 141.174 58 141.159V80.0483C58 78.3915 56.6569 77.0483 55 77.0483C53.3431 77.0483 52 78.3915 52 80.0483V141.159C52 141.197 52.0007 141.234 52.002 141.271H33.5538C33.5545 141.251 33.555 141.232 33.5553 141.213C33.5556 141.195 33.5558 141.177 33.5558 141.16V110.604C33.5558 108.947 32.2127 107.604 30.5558 107.604C28.8989 107.604 27.5558 108.947 27.5558 110.604V141.16C27.5558 141.197 27.5565 141.234 27.5578 141.271H6V6.604ZM0 6.60401C0 3.2903 2.68629 0.604004 6 0.604004H104C107.314 0.604004 110 3.2903 110 6.604V141.271C110 144.584 107.314 147.271 104 147.271H6C2.68629 147.271 0 144.584 0 141.271V6.60401Z" fill="white"/>
</svg>
