<svg width="88" height="116" viewBox="0 0 88 116" fill="none" xmlns="http://www.w3.org/2000/svg">
<path fill-rule="evenodd" clip-rule="evenodd" d="M9.99746 60.1898C10.8616 59.1217 11.3331 57.7895 11.3331 56.4156V30C11.3331 16.7452 22.0783 6 35.3331 6H52.6664C65.9212 6 76.6664 16.7452 76.6664 30V56.4145C76.6664 57.7885 77.138 59.1208 78.0023 60.1889C80.1926 62.8954 81.5002 66.3303 81.5002 70.087C81.5002 78.7854 74.4487 85.837 65.7503 85.837H22.2502C13.5518 85.837 6.50024 78.7854 6.50024 70.087C6.50024 66.3307 7.80764 62.8961 9.99746 60.1898ZM35.3331 0C18.7646 0 5.33312 13.4315 5.33312 30V56.4156C2.31063 60.1511 0.500244 64.9076 0.500244 70.087C0.500244 82.0992 10.238 91.837 22.2502 91.837H65.7503C77.7624 91.837 87.5002 82.0992 87.5002 70.087C87.5002 64.9071 85.6895 60.1501 82.6664 56.4145V30C82.6664 13.4315 69.2349 0 52.6664 0H35.3331ZM36.6404 105.75C35.812 104.315 33.9772 103.823 32.5423 104.652C31.1074 105.48 30.6158 107.315 31.4442 108.75C32.7169 110.954 34.5473 112.785 36.7516 114.057C38.9559 115.33 41.4563 116 44.0016 116C46.5469 116 49.0473 115.33 51.2516 114.057C53.4559 112.785 55.2864 110.954 56.559 108.75C57.3874 107.315 56.8958 105.48 55.4609 104.652C54.0261 103.823 52.1913 104.315 51.3629 105.75C50.6168 107.042 49.5438 108.115 48.2516 108.861C46.9595 109.607 45.4937 110 44.0016 110C42.5096 110 41.0438 109.607 39.7516 108.861C38.4594 108.115 37.3864 107.042 36.6404 105.75Z" fill="#486581"/>
</svg>
