<svg width="147" height="147" viewBox="0 0 147 147" fill="none" xmlns="http://www.w3.org/2000/svg">
<path fill-rule="evenodd" clip-rule="evenodd" d="M39.7881 15.0701C49.9734 9.18957 61.5271 6.09375 73.2881 6.09375C85.049 6.09375 96.6028 9.18957 106.788 15.07C116.973 20.9505 125.431 29.4085 131.312 39.5937C137.192 49.779 140.288 61.3328 140.288 73.0937C140.288 78.5112 139.631 83.8847 138.348 89.1008C132.785 83.0044 124.776 79.1793 115.873 79.1793C100.402 79.1793 87.6297 90.7286 85.7063 105.675C87.7215 106.404 89.6543 107.306 91.4866 108.362C92.1294 95.4503 102.802 85.1793 115.873 85.1793C124.356 85.1793 131.837 89.5041 136.218 96.0899C134.894 99.7127 133.255 103.228 131.312 106.594L131.322 106.6C125.76 116.21 117.877 124.315 108.439 130.143C109.008 132.172 109.405 134.272 109.615 136.427C125.224 127.454 137.202 112.878 142.803 95.4431C142.799 95.4351 142.795 95.4271 142.79 95.4192C145.099 88.2336 146.288 80.7035 146.288 73.0937C146.288 60.2796 142.915 47.6911 136.508 36.5937C130.101 25.4963 120.885 16.281 109.788 9.87389C98.6907 3.4668 86.1023 0.09375 73.2881 0.09375C60.4739 0.09375 47.8855 3.46681 36.7881 9.8739C25.6907 16.281 16.4753 25.4964 10.0682 36.5938C3.66114 47.6912 0.288083 60.2796 0.288086 73.0938C0.288087 80.7036 1.47767 88.2338 3.78582 95.4194C3.78149 95.4276 3.77716 95.4358 3.77284 95.444C9.37403 112.878 21.3516 127.454 36.9596 136.426C37.1695 134.271 37.5668 132.171 38.135 130.142C28.6978 124.314 20.8155 116.209 15.254 106.6L15.2644 106.594C13.3212 103.228 11.682 99.7128 10.3582 96.09C14.7393 89.5037 22.2206 85.1786 30.7041 85.1786C43.7748 85.1786 54.4468 95.449 55.0901 108.36C56.9225 107.304 58.8552 106.403 60.8704 105.674C58.9467 90.7275 46.1741 79.1786 30.7041 79.1786C21.8007 79.1786 13.7908 83.0039 8.22829 89.1007C6.94496 83.8847 6.28809 78.5112 6.28809 73.0938C6.28808 61.3328 9.3839 49.779 15.2644 39.5938C21.1449 29.4085 29.6028 20.9505 39.7881 15.0701ZM30.7045 61.0132C34.1102 61.0132 36.8711 58.2523 36.8711 54.8465C36.8711 51.4408 34.1102 48.6799 30.7045 48.6799C27.2987 48.6799 24.5378 51.4408 24.5378 54.8465C24.5378 58.2523 27.2987 61.0132 30.7045 61.0132ZM30.7045 67.0132C37.424 67.0132 42.8711 61.566 42.8711 54.8465C42.8711 48.1271 37.424 42.6799 30.7045 42.6799C23.985 42.6799 18.5378 48.1271 18.5378 54.8465C18.5378 61.566 23.985 67.0132 30.7045 67.0132ZM73.2878 79.2576C80.0533 79.2576 85.5378 73.7731 85.5378 67.0076C85.5378 60.2421 80.0533 54.7576 73.2878 54.7576C66.5224 54.7576 61.0378 60.2421 61.0378 67.0076C61.0378 73.7731 66.5224 79.2576 73.2878 79.2576ZM73.2878 85.2576C83.367 85.2576 91.5378 77.0868 91.5378 67.0076C91.5378 56.9284 83.367 48.7576 73.2878 48.7576C63.2086 48.7576 55.0378 56.9284 55.0378 67.0076C55.0378 77.0868 63.2086 85.2576 73.2878 85.2576ZM122.039 54.8465C122.039 58.2523 119.278 61.0132 115.873 61.0132C112.467 61.0132 109.706 58.2523 109.706 54.8465C109.706 51.4408 112.467 48.6799 115.873 48.6799C119.278 48.6799 122.039 51.4408 122.039 54.8465ZM128.039 54.8465C128.039 61.566 122.592 67.0132 115.873 67.0132C109.153 67.0132 103.706 61.566 103.706 54.8465C103.706 48.1271 109.153 42.6799 115.873 42.6799C122.592 42.6799 128.039 48.1271 128.039 54.8465ZM43.5595 133.157C52.5123 137.597 62.6014 140.095 73.2878 140.095C83.9743 140.095 94.0633 137.597 103.016 133.157C99.9086 119.614 87.7752 109.509 73.2878 109.509C58.8004 109.509 46.667 119.614 43.5595 133.157ZM109.614 136.429C107.816 117.951 92.2383 103.509 73.2878 103.509C54.3374 103.509 38.76 117.951 36.9612 136.429C47.6592 142.578 60.0628 146.095 73.2878 146.095C86.5128 146.095 98.9164 142.578 109.614 136.429Z" fill="#4827CE"/>
</svg>
