<svg width="110" height="84" viewBox="0 0 110 84" fill="none" xmlns="http://www.w3.org/2000/svg">
<path fill-rule="evenodd" clip-rule="evenodd" d="M36.6667 15.7707C34.394 15.7707 32.3165 14.4867 31.3001 12.454L28.3751 6.604L6 6.604V15.7707V22.104V77.104H104V15.7707H36.6667ZM0 6.604C0 3.29029 2.68629 0.604004 6 0.604004H28.3751C30.6478 0.604004 32.7253 1.88802 33.7417 3.92072L36.6667 9.77067H104C107.314 9.77067 110 12.457 110 15.7707V77.104C110 80.4177 107.314 83.104 104 83.104H6C2.68629 83.104 0 80.4177 0 77.104V22.104V15.7707V6.604Z" fill="white"/>
</svg>
