<svg width="110" height="116" viewBox="0 0 110 116" fill="none" xmlns="http://www.w3.org/2000/svg">
<path fill-rule="evenodd" clip-rule="evenodd" d="M26.6043 19.4693C25.3572 23.8755 21.3056 27.1039 16.5001 27.1039C10.7011 27.1039 6.00012 22.4029 6.00012 16.6039C6.00012 10.8049 10.7011 6.10396 16.5001 6.10396C21.3066 6.10396 25.3588 9.33353 26.605 13.741C25.3852 14.1218 24.4999 15.2601 24.4999 16.6053C24.4999 17.9502 25.3849 19.0884 26.6043 19.4693ZM32.7277 19.6053C31.3164 27.2849 24.5878 33.1039 16.5001 33.1039C7.3874 33.1039 0.00012207 25.7166 0.00012207 16.6039C0.00012207 7.49123 7.3874 0.103955 16.5001 0.103955C24.5887 0.103955 31.318 5.92428 32.7282 13.6053H104.5C106.157 13.6053 107.5 14.9484 107.5 16.6053C107.5 18.2622 106.157 19.6053 104.5 19.6053H32.7277ZM5.49998 57.6052C3.84313 57.6052 2.49998 58.9483 2.49998 60.6052C2.49998 62.262 3.84313 63.6052 5.49998 63.6052H77.2724C78.6839 71.2846 85.4124 77.1033 93.5 77.1033C102.613 77.1033 110 69.716 110 60.6034C110 51.4907 102.613 44.1034 93.5 44.1034C85.4111 44.1034 78.6818 49.924 77.2717 57.6052H5.49998ZM93.5 71.1033C88.6945 71.1033 84.643 67.8751 83.3958 63.4691C84.615 63.088 85.4998 61.9499 85.4998 60.6052C85.4998 59.2601 84.6145 58.1218 83.3949 57.741C84.641 53.3332 88.6933 50.1034 93.5 50.1034C99.2989 50.1034 104 54.8044 104 60.6034C104 66.4023 99.2989 71.1033 93.5 71.1033ZM26.6052 96.2407C25.3853 96.6214 24.4999 97.7598 24.4999 99.1051C24.4999 100.45 25.3849 101.588 26.6043 101.969C25.357 106.375 21.3056 109.603 16.5002 109.603C10.7012 109.603 6.00022 104.902 6.00022 99.1033C6.00022 93.3043 10.7012 88.6033 16.5002 88.6033C21.3068 88.6033 25.3591 91.8331 26.6052 96.2407ZM32.7284 96.1051C31.3183 88.4238 24.589 82.6033 16.5002 82.6033C7.3875 82.6033 0.000223795 89.9906 0.000223795 99.1033C0.000223795 108.216 7.3875 115.603 16.5002 115.603C24.5877 115.603 31.3162 109.784 32.7277 102.105H104.5C106.157 102.105 107.5 100.762 107.5 99.1051C107.5 97.4482 106.157 96.1051 104.5 96.1051H32.7284Z" fill="white"/>
</svg>
