<svg width="110" height="147" viewBox="0 0 110 147" fill="none" xmlns="http://www.w3.org/2000/svg">
<path fill-rule="evenodd" clip-rule="evenodd" d="M6 6H104V140.667H82.4424C82.4438 140.63 82.4444 140.593 82.4444 140.556V48.8889C82.4444 47.232 81.1013 45.8889 79.4444 45.8889C77.7876 45.8889 76.4444 47.232 76.4444 48.8889V140.556C76.4444 140.593 76.4451 140.63 76.4465 140.667H57.9982C57.999 140.646 57.9995 140.625 57.9999 140.605C58.0001 140.588 58.0002 140.572 58.0002 140.556V79.4445C58.0002 77.7876 56.6571 76.4445 55.0002 76.4445C53.3434 76.4445 52.0002 77.7876 52.0002 79.4445V140.556C52.0002 140.593 52.0009 140.63 52.0023 140.667H33.5538C33.5545 140.647 33.555 140.628 33.5553 140.609C33.5556 140.591 33.5558 140.573 33.5558 140.556V110C33.5558 108.343 32.2127 107 30.5558 107C28.8989 107 27.5558 108.343 27.5558 110V140.556C27.5558 140.593 27.5565 140.63 27.5578 140.667H6V6ZM0 6C0 2.68629 2.68629 0 6 0H104C107.314 0 110 2.68629 110 6V140.667C110 143.98 107.314 146.667 104 146.667H6C2.68629 146.667 0 143.98 0 140.667V6Z" fill="white"/>
</svg>
