<svg width="42" height="42" viewBox="0 0 42 42" fill="none" xmlns="http://www.w3.org/2000/svg">
<path fill-rule="evenodd" clip-rule="evenodd" d="M10.5 2.1C10.5 0.940202 9.5598 0 8.4 0C7.2402 0 6.3 0.940202 6.3 2.1H4.2C1.8804 2.1 0 3.9804 0 6.3V14.7V37.8C0 40.1196 1.8804 42 4.2 42H25.9H28L30.1 39.8876L39.9123 30.0176L42 27.9176V25.8176V14.7V6.3C42 3.9804 40.1196 2.1 37.8 2.1H35.7C35.7 0.940202 34.7598 0 33.6 0C32.4402 0 31.5 0.940202 31.5 2.1H10.5ZM6.3 6.3C6.3 7.4598 7.2402 8.4 8.4 8.4C9.5598 8.4 10.5 7.4598 10.5 6.3H31.5C31.5 7.4598 32.4402 8.4 33.6 8.4C34.7598 8.4 35.7 7.4598 35.7 6.3H37.8V12.6H4.2V6.3H6.3ZM4.2 16.8V37.8H25.9V32.1176C25.9 28.6383 28.7206 25.8176 32.2 25.8176H37.8V16.8H4.2ZM33.9899 30.0176L30.1 33.9305V32.1176C30.1 30.9578 31.0402 30.0176 32.2 30.0176H33.9899Z" fill="#486581"/>
</svg>
