<svg width="110" height="83" viewBox="0 0 110 83" fill="none" xmlns="http://www.w3.org/2000/svg">
<path fill-rule="evenodd" clip-rule="evenodd" d="M36.6667 15.3005C34.394 15.3005 32.3165 14.0164 31.3001 11.9837L28.3751 6.13379L6 6.13379V15.3005V21.6338V76.6338H104V15.3005H36.6667ZM0 6.13379C0 2.82008 2.68629 0.133789 6 0.133789H28.3751C30.6478 0.133789 32.7253 1.4178 33.7417 3.45051L36.6667 9.30046H104C107.314 9.30046 110 11.9867 110 15.3005V76.6338C110 79.9475 107.314 82.6338 104 82.6338H6C2.68629 82.6338 0 79.9475 0 76.6338V21.6338V15.3005V6.13379Z" fill="white"/>
</svg>
