<svg width="110" height="147" viewBox="0 0 110 147" fill="none" xmlns="http://www.w3.org/2000/svg">
<path fill-rule="evenodd" clip-rule="evenodd" d="M104 140.667L6 140.667L6.00001 5.99999L104 6L104 140.667ZM110 140.667C110 143.98 107.314 146.667 104 146.667L6 146.667C2.68629 146.667 0 143.98 0 140.667L1.22975e-05 5.99999C1.25872e-05 2.68629 2.68631 -9.38166e-06 6.00001 -9.09197e-06L104 0C107.314 0 110 2.68629 110 6L110 140.667ZM82.2905 55.9487C82.8144 54.3768 81.9649 52.6779 80.3931 52.1539C78.8213 51.63 77.1223 52.4795 76.5984 54.0513L65.9112 86.113L50.7669 70.9687C47.9482 68.15 43.2153 68.8129 41.2794 72.2975L27.9331 96.3208C27.1284 97.7692 27.6503 99.5956 29.0986 100.4C30.547 101.205 32.3734 100.683 33.178 99.2347L46.5243 75.2114L61.6685 90.3556C64.8224 93.5095 70.1928 92.2417 71.6033 88.0103L82.2905 55.9487Z" fill="white"/>
</svg>
