<svg width="110" height="83" viewBox="0 0 110 83" fill="none" xmlns="http://www.w3.org/2000/svg">
<path fill-rule="evenodd" clip-rule="evenodd" d="M36.6667 15.1667C34.394 15.1667 32.3165 13.8827 31.3001 11.8499L28.3751 6L6 6V15.1667V21.5V76.5H104V15.1667H36.6667ZM0 6C0 2.68629 2.68629 0 6 0H28.3751C30.6478 0 32.7253 1.28401 33.7417 3.31672L36.6667 9.16667H104C107.314 9.16667 110 11.853 110 15.1667V76.5C110 79.8137 107.314 82.5 104 82.5H6C2.68629 82.5 0 79.8137 0 76.5V21.5V15.1667V6Z" fill="white"/>
</svg>
