<svg width="110" height="116" viewBox="0 0 110 116" fill="none" xmlns="http://www.w3.org/2000/svg">
<path fill-rule="evenodd" clip-rule="evenodd" d="M26.6042 19.4693C25.3571 23.8755 21.3055 27.1039 16.5 27.1039C10.701 27.1039 6 22.4029 6 16.6039C6 10.8049 10.701 6.10396 16.5 6.10396C21.3065 6.10396 25.3586 9.33353 26.6049 13.741C25.3851 14.1218 24.4998 15.2601 24.4998 16.6053C24.4998 17.9502 25.3848 19.0884 26.6042 19.4693ZM32.7276 19.6053C31.3163 27.2849 24.5876 33.1039 16.5 33.1039C7.38728 33.1039 0 25.7166 0 16.6039C0 7.49123 7.38728 0.103955 16.5 0.103955C24.5886 0.103955 31.3179 5.92428 32.7281 13.6053H104.5C106.156 13.6053 107.5 14.9484 107.5 16.6053C107.5 18.2622 106.156 19.6053 104.5 19.6053H32.7276ZM5.49986 57.6052C3.84301 57.6052 2.49986 58.9483 2.49986 60.6052C2.49986 62.262 3.84301 63.6052 5.49986 63.6052H77.2723C78.6838 71.2846 85.4123 77.1033 93.4998 77.1033C102.613 77.1033 110 69.716 110 60.6034C110 51.4907 102.613 44.1034 93.4998 44.1034C85.411 44.1034 78.6817 49.924 77.2716 57.6052H5.49986ZM93.4998 71.1033C88.6944 71.1033 84.6429 67.8751 83.3957 63.4691C84.6149 63.088 85.4996 61.9499 85.4996 60.6052C85.4996 59.2601 84.6144 58.1218 83.3948 57.741C84.6409 53.3332 88.6932 50.1034 93.4998 50.1034C99.2988 50.1034 104 54.8044 104 60.6034C104 66.4023 99.2988 71.1033 93.4998 71.1033ZM26.6051 96.2407C25.3852 96.6214 24.4998 97.7598 24.4998 99.1051C24.4998 100.45 25.3848 101.588 26.6041 101.969C25.3569 106.375 21.3055 109.603 16.5001 109.603C10.7011 109.603 6.0001 104.902 6.0001 99.1033C6.0001 93.3043 10.7011 88.6033 16.5001 88.6033C21.3067 88.6033 25.3589 91.8331 26.6051 96.2407ZM32.7283 96.1051C31.3182 88.4238 24.5889 82.6033 16.5001 82.6033C7.38738 82.6033 0.000101725 89.9906 0.000101725 99.1033C0.000101725 108.216 7.38738 115.603 16.5001 115.603C24.5876 115.603 31.3161 109.784 32.7276 102.105H104.5C106.156 102.105 107.5 100.762 107.5 99.1051C107.5 97.4482 106.156 96.1051 104.5 96.1051H32.7283Z" fill="white"/>
</svg>
