<svg width="110" height="111" viewBox="0 0 110 111" fill="none" xmlns="http://www.w3.org/2000/svg">
<path fill-rule="evenodd" clip-rule="evenodd" d="M101.288 71.72C103.045 66.6729 104 61.2499 104 55.604C104 43.1466 99.3513 31.775 91.694 23.1293C91.6323 23.2043 91.5664 23.2771 91.4963 23.3472L84.6213 30.2222C83.4497 31.3938 81.5502 31.3938 80.3786 30.2222C79.207 29.0506 79.207 27.1511 80.3786 25.9795L87.2536 19.1045C87.3237 19.0345 87.3963 18.9686 87.4713 18.907C79.5252 11.8707 69.2771 7.37545 58.0001 6.69434V23.5207C58.0001 25.1775 56.6569 26.5207 55.0001 26.5207C53.3432 26.5207 52.0001 25.1775 52.0001 23.5207V6.69433C40.7229 7.37542 30.4748 11.8707 22.5287 18.907C22.6036 18.9687 22.6762 19.0345 22.7463 19.1045L29.6213 25.9795C30.7928 27.1511 30.7928 29.0506 29.6213 30.2222C28.4497 31.3938 26.5502 31.3938 25.3786 30.2222L18.5036 23.3472C18.4335 23.2771 18.3676 23.2044 18.3059 23.1294C10.6487 31.7751 6 43.1467 6 55.604C6 61.2499 6.95489 66.6729 8.71197 71.72C17.9896 57.2993 33.8221 47.4956 51.9999 46.5184V41.8539C51.9999 40.1971 53.3431 38.8539 54.9999 38.8539C56.6568 38.8539 57.9999 40.1971 57.9999 41.8539V46.5184C76.1778 47.4955 92.0104 57.2993 101.288 71.72ZM11.6776 78.5196C19.4663 63.8287 34.4987 53.5853 51.9999 52.5283V65.0954C52.9656 64.8805 53.9694 64.7672 54.9998 64.7672C56.0303 64.7672 57.0342 64.8806 57.9999 65.0955V52.5283C75.5012 53.5853 90.5336 63.8286 98.3224 78.5196C98.159 78.8279 97.9924 79.1343 97.8227 79.4386C97.6228 79.7969 97.4186 80.1525 97.2101 80.5052C88.6764 94.9371 72.9616 104.602 55 104.602C37.1506 104.602 21.52 95.0575 12.9507 80.7751C12.6941 80.3473 12.4438 79.9153 12.2 79.4791C12.0224 79.1614 11.8482 78.8416 11.6776 78.5196ZM55 110.604C85.3757 110.604 110 85.9797 110 55.604C110 25.2283 85.3757 0.604004 55 0.604004C24.6243 0.604004 0 25.2283 0 55.604C0 85.9797 24.6243 110.604 55 110.604ZM62.7499 78.5175C62.7499 82.7977 59.2801 86.2675 54.9999 86.2675C50.7197 86.2675 47.2499 82.7977 47.2499 78.5175C47.2499 74.2373 50.7197 70.7675 54.9999 70.7675C59.2801 70.7675 62.7499 74.2373 62.7499 78.5175ZM68.7499 78.5175C68.7499 86.1114 62.5938 92.2675 54.9999 92.2675C47.406 92.2675 41.2499 86.1114 41.2499 78.5175C41.2499 70.9236 47.406 64.7675 54.9999 64.7675C62.5938 64.7675 68.7499 70.9236 68.7499 78.5175Z" fill="white"/>
</svg>
