<svg width="110" height="147" viewBox="0 0 110 147" fill="none" xmlns="http://www.w3.org/2000/svg">
<path fill-rule="evenodd" clip-rule="evenodd" d="M6 6.13379H104V140.8H82.4433C82.4446 140.764 82.4453 140.727 82.4453 140.69V49.0229C82.4453 47.3661 81.1022 46.0229 79.4453 46.0229C77.7885 46.0229 76.4453 47.3661 76.4453 49.0229V140.69C76.4453 140.727 76.446 140.764 76.4473 140.8H57.998C57.9988 140.778 57.9994 140.755 57.9997 140.733C57.9999 140.718 58 140.704 58 140.689V79.5781C58 77.9213 56.6569 76.5781 55 76.5781C53.3431 76.5781 52 77.9213 52 79.5781V140.689C52 140.726 52.0007 140.764 52.002 140.8H33.5546C33.556 140.764 33.5566 140.727 33.5566 140.689V110.134C33.5566 108.477 32.2135 107.134 30.5566 107.134C28.8998 107.134 27.5566 108.477 27.5566 110.134V140.689C27.5566 140.727 27.5573 140.764 27.5587 140.8H6V6.13379ZM0 6.13379C0 2.82008 2.68629 0.133789 6 0.133789H104C107.314 0.133789 110 2.82008 110 6.13379V140.8C110 144.114 107.314 146.8 104 146.8H6C2.68629 146.8 0 144.114 0 140.8V6.13379Z" fill="white"/>
</svg>
