<svg width="110" height="116" viewBox="0 0 110 116" fill="none" xmlns="http://www.w3.org/2000/svg">
<path fill-rule="evenodd" clip-rule="evenodd" d="M26.6043 19.3653C25.3572 23.7715 21.3056 26.9999 16.5001 26.9999C10.7011 26.9999 6.00012 22.2989 6.00012 16.4999C6.00012 10.7009 10.7011 5.99995 16.5001 5.99995C21.3066 5.99995 25.3588 9.22953 26.605 13.637C25.3852 14.0178 24.4999 15.1561 24.4999 16.5013C24.4999 17.8462 25.3849 18.9844 26.6043 19.3653ZM32.7277 19.5013C31.3164 27.1809 24.5878 32.9999 16.5001 32.9999C7.3874 32.9999 0.00012207 25.6126 0.00012207 16.4999C0.00012207 7.38723 7.3874 -4.88281e-05 16.5001 -4.88281e-05C24.5887 -4.88281e-05 31.318 5.82028 32.7282 13.5013H104.5C106.157 13.5013 107.5 14.8444 107.5 16.5013C107.5 18.1581 106.157 19.5013 104.5 19.5013H32.7277ZM5.49998 57.5012C3.84313 57.5012 2.49998 58.8443 2.49998 60.5012C2.49998 62.158 3.84313 63.5012 5.49998 63.5012H77.2724C78.6839 71.1806 85.4124 76.9993 93.5 76.9993C102.613 76.9993 110 69.612 110 60.4994C110 51.3867 102.613 43.9994 93.5 43.9994C85.4111 43.9994 78.6818 49.82 77.2717 57.5012H5.49998ZM93.5 70.9993C88.6945 70.9993 84.643 67.7711 83.3958 63.3651C84.615 62.984 85.4998 61.8459 85.4998 60.5012C85.4998 59.1561 84.6145 58.0178 83.3949 57.637C84.641 53.2292 88.6933 49.9994 93.5 49.9994C99.2989 49.9994 104 54.7004 104 60.4994C104 66.2983 99.2989 70.9993 93.5 70.9993ZM26.6052 96.1367C25.3853 96.5174 24.4999 97.6558 24.4999 99.0011C24.4999 100.346 25.3849 101.484 26.6043 101.865C25.357 106.271 21.3056 109.499 16.5002 109.499C10.7012 109.499 6.00022 104.798 6.00022 98.9993C6.00022 93.2003 10.7012 88.4993 16.5002 88.4993C21.3068 88.4993 25.3591 91.729 26.6052 96.1367ZM32.7284 96.0011C31.3183 88.3198 24.589 82.4993 16.5002 82.4993C7.3875 82.4993 0.000223795 89.8866 0.000223795 98.9993C0.000223795 108.112 7.3875 115.499 16.5002 115.499C24.5877 115.499 31.3162 109.68 32.7277 102.001H104.5C106.157 102.001 107.5 100.658 107.5 99.0011C107.5 97.3442 106.157 96.0011 104.5 96.0011H32.7284Z" fill="white"/>
</svg>
