<svg width="110" height="111" viewBox="0 0 110 111" fill="none" xmlns="http://www.w3.org/2000/svg">
<path fill-rule="evenodd" clip-rule="evenodd" d="M30.5 13.1688C37.9489 8.86811 46.3987 6.604 55 6.604C63.6013 6.604 72.0511 8.86811 79.5 13.1688C86.9489 17.4694 93.1346 23.6551 97.4352 31.104C101.736 38.5529 104 47.0027 104 55.604C104 59.2578 103.591 62.8843 102.792 66.4184C98.6897 62.5558 93.1636 60.1889 87.0846 60.1889C75.429 60.1889 65.8057 68.8905 64.3566 80.1518C66.4197 80.8982 68.3681 81.8844 70.168 83.0768C70.1835 73.7472 77.7514 66.1889 87.0846 66.1889C92.6938 66.1889 97.6728 68.9176 100.755 73.138C99.8369 75.5351 98.7281 77.8648 97.4352 80.104L97.4428 80.1084C93.439 87.0262 87.7901 92.8785 81.0304 97.1261C77.3335 86.3027 67.0758 78.5195 55.0003 78.5195C40.7225 78.5195 28.986 89.4005 27.6309 103.322C35.691 107.956 45.0362 110.605 55.0003 110.605C64.9643 110.605 74.3095 107.956 82.3697 103.322L82.3695 103.321C94.1298 96.5606 103.155 85.5781 107.374 72.4422C107.371 72.4361 107.368 72.4301 107.365 72.424C109.104 67.0104 110 61.3372 110 55.604C110 45.9495 107.459 36.465 102.631 28.104C97.8041 19.7429 90.8611 12.7999 82.5 7.9726C74.1389 3.14535 64.6545 0.604004 55 0.604004C45.3455 0.604004 35.861 3.14535 27.5 7.97261C19.1389 12.7999 12.1959 19.743 7.3686 28.104C2.54134 36.4651 0 45.9495 0 55.604C0 61.3376 0.896317 67.0113 2.63545 72.4252C2.63229 72.4312 2.62913 72.4372 2.62598 72.4432C6.84612 85.5783 15.8704 96.5601 27.6301 103.32C27.8392 101.173 28.2952 99.0986 28.9692 97.1253C22.2099 92.8779 16.5611 87.0258 12.5574 80.1083L12.5648 80.104C11.2721 77.865 10.1634 75.5356 9.24489 73.1388C12.3274 68.9177 17.3069 66.1885 22.9166 66.1885C32.2495 66.1885 39.8172 73.7463 39.8333 83.0755C41.6332 81.8833 43.5815 80.8973 45.6446 80.1511C44.1954 68.8899 34.5722 60.1885 22.9166 60.1885C16.8371 60.1885 11.3105 62.5558 7.2084 66.4189C6.40862 62.8847 6 59.258 6 55.604C6 47.0027 8.2641 38.5529 12.5648 31.104C16.8654 23.6551 23.0511 17.4694 30.5 13.1688ZM22.9165 45.0226C24.6654 45.0226 26.0831 43.6049 26.0831 41.856C26.0831 40.1071 24.6654 38.6893 22.9165 38.6893C21.1676 38.6893 19.7498 40.1071 19.7498 41.856C19.7498 43.6049 21.1676 45.0226 22.9165 45.0226ZM22.9165 51.0226C27.9791 51.0226 32.0831 46.9186 32.0831 41.856C32.0831 36.7934 27.9791 32.6893 22.9165 32.6893C17.8539 32.6893 13.7498 36.7934 13.7498 41.856C13.7498 46.9186 17.8539 51.0226 22.9165 51.0226ZM54.9998 58.7687C59.28 58.7687 62.7498 55.2989 62.7498 51.0187C62.7498 46.7385 59.28 43.2687 54.9998 43.2687C50.7196 43.2687 47.2498 46.7385 47.2498 51.0187C47.2498 55.2989 50.7196 58.7687 54.9998 58.7687ZM54.9998 64.7687C62.5937 64.7687 68.7498 58.6126 68.7498 51.0187C68.7498 43.4248 62.5937 37.2687 54.9998 37.2687C47.4059 37.2687 41.2498 43.4248 41.2498 51.0187C41.2498 58.6126 47.4059 64.7687 54.9998 64.7687ZM90.2513 41.8561C90.2513 43.605 88.8335 45.0228 87.0846 45.0228C85.3357 45.0228 83.918 43.605 83.918 41.8561C83.918 40.1072 85.3357 38.6895 87.0846 38.6895C88.8335 38.6895 90.2513 40.1072 90.2513 41.8561ZM96.2513 41.8561C96.2513 46.9187 92.1472 51.0228 87.0846 51.0228C82.022 51.0228 77.918 46.9187 77.918 41.8561C77.918 36.7935 82.022 32.6895 87.0846 32.6895C92.1472 32.6895 96.2513 36.7935 96.2513 41.8561ZM34.3385 100.05C40.6119 102.972 47.6091 104.605 55.0003 104.605C62.3914 104.605 69.3886 102.972 75.6621 100.05C73.0765 91.0822 64.802 84.5195 55.0003 84.5195C45.1986 84.5195 36.924 91.0822 34.3385 100.05Z" fill="white"/>
</svg>
