<svg width="108" height="108" viewBox="0 0 108 108" fill="none" xmlns="http://www.w3.org/2000/svg">
<path fill-rule="evenodd" clip-rule="evenodd" d="M82.1187 92.3931C74.2344 98.1174 64.5177 101.498 54 101.498C43.4819 101.498 33.7649 98.1172 25.8804 92.3925C32.0873 83.5854 42.3662 77.8306 53.9994 77.8306C65.6329 77.8306 75.912 83.5857 82.1187 92.3931ZM86.7545 88.5608C79.4374 78.429 67.4925 71.8306 53.9994 71.8306C40.5065 71.8306 28.562 78.4287 21.2447 88.5601C12.0098 79.8947 6.25 67.609 6.25 53.9976C6.25 27.7904 27.602 6.49756 54 6.49756C80.398 6.49756 101.75 27.7904 101.75 53.9976C101.75 67.6093 95.9899 79.8953 86.7545 88.5608ZM89.9457 93.7744C100.877 83.9814 107.75 69.7884 107.75 53.9976C107.75 24.4503 83.6853 0.497559 54 0.497559C24.3147 0.497559 0.25 24.4503 0.25 53.9976C0.25 69.788 7.12284 83.9807 18.0534 93.7736C18.0531 93.7744 18.0527 93.7751 18.0523 93.7759C27.5755 102.309 40.1796 107.503 54.0023 107.503C67.8231 107.503 80.4256 102.311 89.9483 93.7795C89.9475 93.7778 89.9466 93.7761 89.9457 93.7744ZM54.0014 52.4616C60.6092 52.4616 65.9181 47.1373 65.9181 40.6283C65.9181 34.1192 60.6092 28.7949 54.0014 28.7949C47.3936 28.7949 42.0848 34.1192 42.0848 40.6283C42.0848 47.1373 47.3936 52.4616 54.0014 52.4616ZM54.0014 58.4616C63.8965 58.4616 71.9181 50.4773 71.9181 40.6283C71.9181 30.7792 63.8965 22.7949 54.0014 22.7949C44.1063 22.7949 36.0848 30.7792 36.0848 40.6283C36.0848 50.4773 44.1063 58.4616 54.0014 58.4616Z" fill="#486581"/>
</svg>
