<svg width="110" height="147" viewBox="0 0 110 147" fill="none" xmlns="http://www.w3.org/2000/svg">
<path fill-rule="evenodd" clip-rule="evenodd" d="M104 140.8L6 140.8L6.00001 6.13378L104 6.13379L104 140.8ZM110 140.8C110 144.114 107.314 146.8 104 146.8L6 146.8C2.68629 146.8 0 144.114 0 140.8L1.22975e-05 6.13378C1.25872e-05 2.82007 2.68631 0.13378 6.00001 0.13378L104 0.133789C107.314 0.133789 110 2.82008 110 6.13379L110 140.8ZM82.2896 56.0825C82.8136 54.5106 81.9641 52.8117 80.3923 52.2877C78.8204 51.7638 77.1215 52.6133 76.5975 54.1851L65.9103 86.2468L50.7661 71.1025C47.9474 68.2838 43.2144 68.9467 41.2785 72.4313L27.9322 96.4546C27.1276 97.903 27.6494 99.7294 29.0978 100.534C30.5461 101.339 32.3725 100.817 33.1772 99.3685L46.5234 75.3452L61.6677 90.4894C64.8216 93.6433 70.1919 92.3755 71.6024 88.1441L82.2896 56.0825Z" fill="white"/>
</svg>
