<svg width="108" height="108" viewBox="0 0 108 108" fill="none" xmlns="http://www.w3.org/2000/svg">
<path fill-rule="evenodd" clip-rule="evenodd" d="M82.1187 92.3928C74.2344 98.1172 64.5177 101.497 54 101.497C43.4819 101.497 33.7649 98.1169 25.8804 92.3922C32.0873 83.5852 42.3662 77.8303 53.9994 77.8303C65.6329 77.8303 75.912 83.5854 82.1187 92.3928ZM86.7545 88.5605C79.4374 78.4287 67.4925 71.8303 53.9994 71.8303C40.5065 71.8303 28.562 78.4284 21.2447 88.5599C12.0098 79.8945 6.25 67.6087 6.25 53.9973C6.25 27.7901 27.602 6.49731 54 6.49731C80.398 6.49731 101.75 27.7901 101.75 53.9973C101.75 67.6091 95.9899 79.8951 86.7545 88.5605ZM89.9457 93.7741C100.877 83.9812 107.75 69.7882 107.75 53.9973C107.75 24.4501 83.6853 0.497314 54 0.497314C24.3147 0.497314 0.25 24.4501 0.25 53.9973C0.25 69.7878 7.12284 83.9804 18.0534 93.7734C18.0531 93.7741 18.0527 93.7749 18.0523 93.7756C27.5755 102.309 40.1796 107.503 54.0023 107.503C67.8231 107.503 80.4256 102.311 89.9483 93.7793C89.9475 93.7775 89.9466 93.7758 89.9457 93.7741ZM54.0014 52.4613C60.6092 52.4613 65.9181 47.137 65.9181 40.628C65.9181 34.119 60.6092 28.7947 54.0014 28.7947C47.3936 28.7947 42.0848 34.119 42.0848 40.628C42.0848 47.137 47.3936 52.4613 54.0014 52.4613ZM54.0014 58.4613C63.8965 58.4613 71.9181 50.4771 71.9181 40.628C71.9181 30.7789 63.8965 22.7947 54.0014 22.7947C44.1063 22.7947 36.0848 30.7789 36.0848 40.628C36.0848 50.4771 44.1063 58.4613 54.0014 58.4613Z" fill="#486581"/>
</svg>
