<svg width="110" height="110" viewBox="0 0 110 110" fill="none" xmlns="http://www.w3.org/2000/svg">
<path fill-rule="evenodd" clip-rule="evenodd" d="M101.288 71.1154C103.045 66.0684 104 60.6457 104 55C104 42.5426 99.3513 31.171 91.694 22.5253C91.6323 22.6003 91.5664 22.6731 91.4963 22.7432L84.6213 29.6182C83.4497 30.7898 81.5502 30.7898 80.3786 29.6182C79.207 28.4466 79.207 26.5471 80.3786 25.3755L87.2536 18.5005C87.3237 18.4305 87.3963 18.3646 87.4713 18.303C79.5252 11.2666 69.2771 6.77144 58.0001 6.09034V22.9167C58.0001 24.5735 56.6569 25.9167 55.0001 25.9167C53.3432 25.9167 52.0001 24.5735 52.0001 22.9167V6.09033C40.7229 6.77142 30.4748 11.2666 22.5287 18.303C22.6036 18.3647 22.6762 18.4305 22.7463 18.5005L29.6213 25.3755C30.7928 26.5471 30.7928 28.4466 29.6213 29.6182C28.4497 30.7898 26.5502 30.7898 25.3786 29.6182L18.5036 22.7432C18.4335 22.6731 18.3676 22.6004 18.3059 22.5254C10.6487 31.1711 6 42.5427 6 55C6 60.6462 6.95498 66.0694 8.71223 71.1168C17.9897 56.6959 33.8221 46.8919 51.9999 45.9145V41.2499C51.9999 39.5931 53.3431 38.2499 54.9999 38.2499C56.6568 38.2499 57.9999 39.5931 57.9999 41.2499V45.9144C76.1778 46.8913 92.0104 56.6949 101.288 71.1154ZM11.6782 77.9158C19.4668 63.225 34.4989 52.9817 51.9999 51.9244V64.4914C52.9656 64.2765 53.9694 64.1632 54.9998 64.1632C56.0303 64.1632 57.0342 64.2766 57.9999 64.4915V51.9243C75.5013 52.9811 90.5338 63.2242 98.3228 77.915L98.3232 77.9158C90.0928 93.4398 73.774 103.998 55.0007 103.998C36.2274 103.998 19.9086 93.4398 11.6782 77.9158ZM55 110C85.3757 110 110 85.3757 110 55C110 24.6243 85.3757 0 55 0C24.6243 0 0 24.6243 0 55C0 85.3757 24.6243 110 55 110ZM62.7499 77.9135C62.7499 82.1937 59.2801 85.6635 54.9999 85.6635C50.7197 85.6635 47.2499 82.1937 47.2499 77.9135C47.2499 73.6333 50.7197 70.1635 54.9999 70.1635C59.2801 70.1635 62.7499 73.6333 62.7499 77.9135ZM68.7499 77.9135C68.7499 85.5074 62.5938 91.6635 54.9999 91.6635C47.406 91.6635 41.2499 85.5074 41.2499 77.9135C41.2499 70.3196 47.406 64.1635 54.9999 64.1635C62.5938 64.1635 68.7499 70.3196 68.7499 77.9135Z" fill="white"/>
</svg>
