<svg width="34" height="48" viewBox="0 0 34 48" fill="none" xmlns="http://www.w3.org/2000/svg">
<path fill-rule="evenodd" clip-rule="evenodd" d="M24.6803 36C24.6803 42.6274 19.3077 48 12.6803 48C6.0529 48 0.680325 42.6274 0.680325 36L0.680327 16.32C0.680328 7.30671 7.98704 -4.80393e-06 17.0003 -3.53855e-07C26.0136 4.34111e-07 33.3203 7.30671 33.3203 16.32L33.3203 37.44C33.3203 38.5004 32.4607 39.36 31.4003 39.36C30.3399 39.36 29.4803 38.5004 29.4803 37.44L29.4803 16.32C29.4803 9.42748 23.8928 3.84 17.0003 3.84C10.1078 3.84 4.52033 9.42748 4.52033 16.32L4.52033 36C4.52032 40.5066 8.17368 44.16 12.6803 44.16C17.187 44.16 20.8403 40.5066 20.8403 36L20.8403 16.32C20.8403 14.1992 19.1211 12.48 17.0003 12.48C14.8796 12.48 13.1603 14.1992 13.1603 16.32L13.1603 37.44C13.1603 38.5004 12.3007 39.36 11.2403 39.36C10.1799 39.36 9.32033 38.5004 9.32033 37.44L9.32033 16.32C9.32033 12.0785 12.7588 8.64 17.0003 8.64C21.2419 8.64 24.6803 12.0785 24.6803 16.32L24.6803 36Z" fill="#486581"/>
</svg>
