<svg width="48" height="52" viewBox="0 0 48 52" fill="none" xmlns="http://www.w3.org/2000/svg">
<path opacity="0.6" d="M23.9846 28.2091C23.0737 28.2 22.1815 28.4282 21.4279 28.8629C20.6744 29.2976 20.0957 29.9179 19.7698 30.6404C19.4439 31.3629 19.3864 32.1528 19.605 32.9039C19.8237 33.6549 20.308 34.3311 20.9928 34.8413V38.3734C20.9928 39.0473 21.308 39.6937 21.8691 40.1702C22.4301 40.6468 23.1911 40.9145 23.9846 40.9145C24.778 40.9145 25.539 40.6468 26.1001 40.1702C26.6611 39.6937 26.9763 39.0473 26.9763 38.3734V34.8413C27.6611 34.3311 28.1454 33.6549 28.3641 32.9039C28.5827 32.1528 28.5253 31.3629 28.1993 30.6404C27.8734 29.9179 27.2948 29.2976 26.5412 28.8629C25.7877 28.4282 24.8954 28.2 23.9846 28.2091V28.2091ZM38.9435 18.0447V12.9625C38.9435 9.59283 37.3675 6.36115 34.5621 3.97842C31.7568 1.59569 27.9519 0.25708 23.9846 0.25708C20.0172 0.25708 16.2124 1.59569 13.407 3.97842C10.6017 6.36115 9.02564 9.59283 9.02564 12.9625V18.0447C6.64523 18.0447 4.36232 18.8479 2.67911 20.2775C0.995908 21.7071 0.050293 23.6462 0.050293 25.668V43.4556C0.050293 45.4774 0.995908 47.4164 2.67911 48.846C4.36232 50.2757 6.64523 51.0789 9.02564 51.0789H38.9435C41.3239 51.0789 43.6068 50.2757 45.29 48.846C46.9732 47.4164 47.9188 45.4774 47.9188 43.4556V25.668C47.9188 23.6462 46.9732 21.7071 45.29 20.2775C43.6068 18.8479 41.3239 18.0447 38.9435 18.0447ZM15.0092 12.9625C15.0092 10.9407 15.9548 9.0017 17.638 7.57206C19.3212 6.14242 21.6042 5.33926 23.9846 5.33926C26.365 5.33926 28.6479 6.14242 30.3311 7.57206C32.0143 9.0017 32.9599 10.9407 32.9599 12.9625V18.0447H15.0092V12.9625ZM41.9353 43.4556C41.9353 44.1295 41.6201 44.7759 41.059 45.2524C40.4979 45.729 39.737 45.9967 38.9435 45.9967H9.02564C8.23217 45.9967 7.4712 45.729 6.91013 45.2524C6.34907 44.7759 6.03386 44.1295 6.03386 43.4556V25.668C6.03386 24.994 6.34907 24.3477 6.91013 23.8711C7.4712 23.3946 8.23217 23.1269 9.02564 23.1269H38.9435C39.737 23.1269 40.4979 23.3946 41.059 23.8711C41.6201 24.3477 41.9353 24.994 41.9353 25.668V43.4556Z" fill="#A4A4A4"/>
</svg>
