<svg width="48" height="51" viewBox="0 0 48 51" fill="none" xmlns="http://www.w3.org/2000/svg">
<path opacity="0.6" d="M23.9343 27.952C23.0234 27.9429 22.1312 28.1711 21.3776 28.6058C20.6241 29.0405 20.0454 29.6608 19.7195 30.3833C19.3936 31.1058 19.3361 31.8957 19.5547 32.6468C19.7734 33.3979 20.2577 34.074 20.9425 34.5842V38.1163C20.9425 38.7903 21.2577 39.4366 21.8188 39.9132C22.3798 40.3897 23.1408 40.6574 23.9343 40.6574C24.7277 40.6574 25.4887 40.3897 26.0498 39.9132C26.6108 39.4366 26.9261 38.7903 26.9261 38.1163V34.5842C27.6108 34.074 28.0951 33.3979 28.3138 32.6468C28.5325 31.8957 28.475 31.1058 28.1491 30.3833C27.8231 29.6608 27.2445 29.0405 26.4909 28.6058C25.7374 28.1711 24.8451 27.9429 23.9343 27.952V27.952ZM38.8932 17.7876V12.7054C38.8932 9.33575 37.3172 6.10407 34.5118 3.72134C31.7065 1.33861 27.9016 0 23.9343 0C19.9669 0 16.1621 1.33861 13.3567 3.72134C10.5514 6.10407 8.97535 9.33575 8.97535 12.7054V17.7876C6.59494 17.7876 4.31202 18.5908 2.62882 20.0204C0.945615 21.4501 0 23.3891 0 25.4109V43.1985C0 45.2203 0.945615 47.1593 2.62882 48.589C4.31202 50.0186 6.59494 50.8218 8.97535 50.8218H38.8932C41.2736 50.8218 43.5565 50.0186 45.2397 48.589C46.9229 47.1593 47.8685 45.2203 47.8685 43.1985V25.4109C47.8685 23.3891 46.9229 21.4501 45.2397 20.0204C43.5565 18.5908 41.2736 17.7876 38.8932 17.7876ZM14.9589 12.7054C14.9589 10.6836 15.9045 8.74462 17.5877 7.31498C19.2709 5.88534 21.5539 5.08218 23.9343 5.08218C26.3147 5.08218 28.5976 5.88534 30.2808 7.31498C31.964 8.74462 32.9096 10.6836 32.9096 12.7054V17.7876H14.9589V12.7054ZM41.885 43.1985C41.885 43.8724 41.5698 44.5188 41.0087 44.9953C40.4476 45.4719 39.6867 45.7396 38.8932 45.7396H8.97535C8.18188 45.7396 7.42091 45.4719 6.85984 44.9953C6.29877 44.5188 5.98357 43.8724 5.98357 43.1985V25.4109C5.98357 24.7369 6.29877 24.0906 6.85984 23.6141C7.42091 23.1375 8.18188 22.8698 8.97535 22.8698H38.8932C39.6867 22.8698 40.4476 23.1375 41.0087 23.6141C41.5698 24.0906 41.885 24.7369 41.885 25.4109V43.1985Z" fill="#A4A4A4"/>
</svg>
