<svg width="48" height="52" viewBox="0 0 48 52" fill="none" xmlns="http://www.w3.org/2000/svg">
<path opacity="0.6" d="M23.9846 28.216C23.0737 28.207 22.1815 28.4351 21.4279 28.8698C20.6744 29.3045 20.0957 29.9249 19.7698 30.6473C19.4439 31.3698 19.3864 32.1598 19.605 32.9108C19.8237 33.6619 20.308 34.338 20.9928 34.8483V38.3804C20.9928 39.0543 21.308 39.7006 21.8691 40.1772C22.4301 40.6537 23.1911 40.9215 23.9846 40.9215C24.778 40.9215 25.539 40.6537 26.1001 40.1772C26.6611 39.7006 26.9763 39.0543 26.9763 38.3804V34.8483C27.6611 34.338 28.1454 33.6619 28.3641 32.9108C28.5827 32.1598 28.5253 31.3698 28.1993 30.6473C27.8734 29.9249 27.2948 29.3045 26.5412 28.8698C25.7877 28.4351 24.8954 28.207 23.9846 28.216V28.216ZM38.9435 18.0517V12.9695C38.9435 9.59979 37.3675 6.36811 34.5621 3.98538C31.7568 1.60264 27.9519 0.264038 23.9846 0.264038C20.0172 0.264038 16.2124 1.60264 13.407 3.98538C10.6017 6.36811 9.02564 9.59979 9.02564 12.9695V18.0517C6.64523 18.0517 4.36232 18.8548 2.67911 20.2845C0.995908 21.7141 0.050293 23.6531 0.050293 25.6749V43.4625C0.050293 45.4844 0.995908 47.4234 2.67911 48.853C4.36232 50.2826 6.64523 51.0858 9.02564 51.0858H38.9435C41.3239 51.0858 43.6068 50.2826 45.29 48.853C46.9732 47.4234 47.9188 45.4844 47.9188 43.4625V25.6749C47.9188 23.6531 46.9732 21.7141 45.29 20.2845C43.6068 18.8548 41.3239 18.0517 38.9435 18.0517ZM15.0092 12.9695C15.0092 10.9477 15.9548 9.00866 17.638 7.57902C19.3212 6.14938 21.6042 5.34622 23.9846 5.34622C26.365 5.34622 28.6479 6.14938 30.3311 7.57902C32.0143 9.00866 32.9599 10.9477 32.9599 12.9695V18.0517H15.0092V12.9695ZM41.9353 43.4625C41.9353 44.1365 41.6201 44.7828 41.059 45.2594C40.4979 45.7359 39.737 46.0036 38.9435 46.0036H9.02564C8.23217 46.0036 7.4712 45.7359 6.91013 45.2594C6.34907 44.7828 6.03386 44.1365 6.03386 43.4625V25.6749C6.03386 25.001 6.34907 24.3546 6.91013 23.8781C7.4712 23.4016 8.23217 23.1338 9.02564 23.1338H38.9435C39.737 23.1338 40.4979 23.4016 41.059 23.8781C41.6201 24.3546 41.9353 25.001 41.9353 25.6749V43.4625Z" fill="#A4A4A4"/>
</svg>
