<svg width="48" height="52" viewBox="0 0 48 52" fill="none" xmlns="http://www.w3.org/2000/svg">
<path opacity="0.6" d="M23.9343 28.4227C23.0234 28.4136 22.1312 28.6418 21.3776 29.0765C20.6241 29.5112 20.0454 30.1315 19.7195 30.854C19.3936 31.5765 19.3361 32.3664 19.5547 33.1175C19.7734 33.8686 20.2577 34.5447 20.9425 35.0549V38.587C20.9425 39.261 21.2577 39.9073 21.8188 40.3839C22.3798 40.8604 23.1408 41.1281 23.9343 41.1281C24.7277 41.1281 25.4887 40.8604 26.0498 40.3839C26.6108 39.9073 26.9261 39.261 26.9261 38.587V35.0549C27.6108 34.5447 28.0951 33.8686 28.3138 33.1175C28.5325 32.3664 28.475 31.5765 28.1491 30.854C27.8231 30.1315 27.2445 29.5112 26.4909 29.0765C25.7374 28.6418 24.8451 28.4136 23.9343 28.4227V28.4227ZM38.8932 18.2583V13.1761C38.8932 9.80645 37.3172 6.57477 34.5118 4.19204C31.7065 1.80931 27.9016 0.470703 23.9343 0.470703C19.9669 0.470703 16.1621 1.80931 13.3567 4.19204C10.5514 6.57477 8.97535 9.80645 8.97535 13.1761V18.2583C6.59494 18.2583 4.31202 19.0615 2.62882 20.4911C0.945615 21.9208 0 23.8598 0 25.8816V43.6692C0 45.691 0.945615 47.63 2.62882 49.0597C4.31202 50.4893 6.59494 51.2925 8.97535 51.2925H38.8932C41.2736 51.2925 43.5565 50.4893 45.2397 49.0597C46.9229 47.63 47.8685 45.691 47.8685 43.6692V25.8816C47.8685 23.8598 46.9229 21.9208 45.2397 20.4911C43.5565 19.0615 41.2736 18.2583 38.8932 18.2583ZM14.9589 13.1761C14.9589 11.1543 15.9045 9.21532 17.5877 7.78568C19.2709 6.35604 21.5539 5.55288 23.9343 5.55288C26.3147 5.55288 28.5976 6.35604 30.2808 7.78568C31.964 9.21532 32.9096 11.1543 32.9096 13.1761V18.2583H14.9589V13.1761ZM41.885 43.6692C41.885 44.3431 41.5698 44.9895 41.0087 45.466C40.4476 45.9426 39.6867 46.2103 38.8932 46.2103H8.97535C8.18188 46.2103 7.42091 45.9426 6.85984 45.466C6.29877 44.9895 5.98357 44.3431 5.98357 43.6692V25.8816C5.98357 25.2077 6.29877 24.5613 6.85984 24.0848C7.42091 23.6082 8.18188 23.3405 8.97535 23.3405H38.8932C39.6867 23.3405 40.4476 23.6082 41.0087 24.0848C41.5698 24.5613 41.885 25.2077 41.885 25.8816V43.6692Z" fill="#A4A4A4"/>
</svg>
